<svg width="38" height="32" viewBox="0 0 38 32" fill="none" xmlns="http://www.w3.org/2000/svg">
<path fill-rule="evenodd" clip-rule="evenodd" d="M19 0C15.8656 0.00827703 12.838 0.96027 10.4643 2.684C8.645 4.004 7.32687 5.724 6.98725 7.45C3.00675 8.19 0 11.11 0 14.636C0 18.732 4.0565 22 8.97987 22H17.8125V11.414L12.7157 15.708C12.4928 15.8958 12.1903 16.0013 11.875 16.0013C11.5597 16.0013 11.2572 15.8958 11.0343 15.708C10.8113 15.5202 10.686 15.2656 10.686 15C10.686 14.7344 10.8113 14.4798 11.0343 14.292L18.1593 8.292C18.2696 8.19887 18.4006 8.12499 18.5449 8.07457C18.6891 8.02416 18.8438 7.99821 19 7.99821C19.1562 7.99821 19.3109 8.02416 19.4551 8.07457C19.5994 8.12499 19.7304 8.19887 19.8407 8.292L26.9657 14.292C27.1887 14.4798 27.314 14.7344 27.314 15C27.314 15.2656 27.1887 15.5202 26.9657 15.708C26.7428 15.8958 26.4403 16.0013 26.125 16.0013C25.8097 16.0013 25.5072 15.8958 25.2843 15.708L20.1875 11.414V22H30.134C34.4422 22 38 19.14 38 15.546C38 12.274 35.0503 9.608 31.2693 9.158C30.6921 3.998 25.3888 0 19 0ZM17.8125 29V22H20.1875V29C20.1875 29.2652 20.0624 29.5196 19.8397 29.7071C19.617 29.8946 19.3149 30 19 30C18.6851 30 18.383 29.8946 18.1603 29.7071C17.9376 29.5196 17.8125 29.2652 17.8125 29Z" fill="black"/>
</svg>
