<svg width="480" height="458" viewBox="0 0 480 458" fill="none" xmlns="http://www.w3.org/2000/svg">
<path d="M103.872 118.329C121.262 118.329 135.36 104.877 135.36 88.2841C135.36 71.6908 121.262 58.2393 103.872 58.2393C86.4814 58.2393 72.3838 71.6908 72.3838 88.2841C72.3838 104.877 86.4814 118.329 103.872 118.329Z" fill="#EBEBEB"/>
<path d="M126.556 109.224C138.29 98.0272 138.29 79.8738 126.556 68.6772C114.821 57.4805 95.7961 57.4805 84.0616 68.6772C72.3271 79.8738 72.3271 98.0272 84.0616 109.224C95.7961 120.42 114.821 120.42 126.556 109.224Z" fill="#DBDBDB"/>
<path d="M115.891 113.842C130.296 108.266 137.237 92.6036 131.393 78.8587C125.55 65.1137 109.135 58.4912 94.7299 64.0669C80.3247 69.6425 73.384 85.305 79.2275 99.0499C85.071 112.795 101.486 119.417 115.891 113.842Z" fill="white"/>
<path d="M105.677 64.0468H104.957V68.1138H105.677V64.0468Z" fill="#EBEBEB"/>
<path d="M92.566 67.2172L91.9424 67.5605L94.0729 71.0831L94.6965 70.7397L92.566 67.2172Z" fill="#EBEBEB"/>
<path d="M82.876 76.1928L82.5161 76.7878L86.2078 78.8207L86.5677 78.2257L82.876 76.1928Z" fill="#EBEBEB"/>
<path d="M83.4719 88.6138H79.2095V89.3008H83.4719V88.6138Z" fill="#EBEBEB"/>
<path d="M86.5555 99.4834L82.8472 101.517L83.2072 102.115L86.9155 100.081L86.5555 99.4834Z" fill="#EBEBEB"/>
<path d="M94.0785 106.836L91.9492 110.359L92.5729 110.702L94.7022 107.179L94.0785 106.836Z" fill="#EBEBEB"/>
<path d="M105.677 109.792H104.957V113.859H105.677V109.792Z" fill="#EBEBEB"/>
<path d="M116.544 106.851L115.92 107.194L118.052 110.716L118.675 110.373L116.544 106.851Z" fill="#EBEBEB"/>
<path d="M124.41 99.0786L124.05 99.6736L127.741 101.707L128.101 101.112L124.41 99.0786Z" fill="#EBEBEB"/>
<path d="M131.424 88.6138H127.152V89.3008H131.424V88.6138Z" fill="#EBEBEB"/>
<path d="M128.25 76.5158L124.542 78.5493L124.902 79.147L128.61 77.1135L128.25 76.5158Z" fill="#EBEBEB"/>
<path d="M118.056 67.2217L115.927 70.7449L116.55 71.0881L118.68 67.5649L118.056 67.2217Z" fill="#EBEBEB"/>
<path d="M109.488 80.3411L97.1406 103.504L97.7824 103.815L110.13 80.6526L109.488 80.3411Z" fill="#EBEBEB"/>
<path d="M103.875 79.7212L102.934 79.901L108.199 104.996L109.14 104.816L103.875 79.7212Z" fill="#DBDBDB"/>
<path d="M443.203 79.5179H306.758V325.849H443.203V79.5179Z" fill="#EBEBEB"/>
<path d="M431.52 91.774H318.441V248.172H431.52V91.774Z" fill="white"/>
<path d="M325.661 350.636H316.646V325.849H332.688L325.661 350.636Z" fill="#EBEBEB"/>
<path d="M332.688 325.849L330.096 334.981H316.637V325.849H332.688Z" fill="#C7C7C7"/>
<path d="M424.291 350.636H433.305V325.849H417.264L424.291 350.636Z" fill="#EBEBEB"/>
<path d="M417.264 325.849L419.856 334.981H433.315V325.849H417.264Z" fill="#C7C7C7"/>
<path d="M431.52 259.338C423.043 259.503 414.576 259.594 406.109 259.659C397.641 259.723 389.165 259.732 380.697 259.778L381.158 259.338C381.158 263.396 381.158 267.463 381.158 271.53V283.722C381.062 291.856 380.976 299.981 380.765 308.115C380.544 299.981 380.457 291.856 380.361 283.722L380.313 271.53C380.313 267.463 380.313 263.396 380.313 259.338V258.889H380.774C389.241 258.935 397.709 258.889 406.185 259.008C414.662 259.127 423.043 259.164 431.52 259.338Z" fill="#C7C7C7"/>
<path d="M380.697 315.104C389.164 314.93 397.632 314.838 406.108 314.774C414.585 314.71 423.043 314.701 431.52 314.655L431.04 315.104C431.04 311.11 431.04 307.126 431.04 303.141L431.097 291.178C431.184 283.2 431.27 275.231 431.491 267.252C431.702 275.231 431.788 283.2 431.875 291.178L431.932 303.141C431.932 307.126 431.98 311.11 431.932 315.104V315.544H431.472C422.995 315.498 414.528 315.544 406.06 315.434C397.593 315.324 389.164 315.241 380.697 315.104Z" fill="#C7C7C7"/>
<path d="M386.381 293.386H390.23V279.316H386.381V293.386Z" fill="#C7C7C7"/>
<path d="M318.441 259.338C326.909 259.164 335.376 259.072 343.853 259.008C352.329 258.944 360.787 258.935 369.264 258.889H369.715V259.338C369.715 263.396 369.715 267.463 369.715 271.53L369.657 283.722C369.571 291.856 369.485 299.981 369.264 308.115C369.043 299.981 368.957 291.856 368.861 283.722L368.813 271.53C368.813 267.463 368.813 263.396 368.813 259.338L369.273 259.778C360.797 259.732 352.329 259.778 343.862 259.659C335.395 259.539 326.909 259.503 318.441 259.338Z" fill="#C7C7C7"/>
<path d="M369.264 315.104C360.787 315.269 352.32 315.36 343.852 315.434C335.385 315.507 326.908 315.498 318.441 315.544H317.98V315.104C317.98 311.11 317.98 307.126 317.98 303.141L318.038 291.178C318.124 283.2 318.211 275.231 318.432 267.252C318.643 275.231 318.729 283.2 318.816 291.178L318.873 303.141C318.873 307.126 318.921 311.11 318.873 315.104L318.412 314.655C326.88 314.655 335.347 314.655 343.824 314.774C352.3 314.893 360.787 314.903 369.264 315.104Z" fill="#C7C7C7"/>
<path d="M363.571 279.307H359.722V293.377H363.571V279.307Z" fill="#C7C7C7"/>
<path d="M431.52 141.724H318.441V143.4H431.52V141.724Z" fill="#C7C7C7"/>
<path d="M431.52 175.67H318.441V177.347H431.52V175.67Z" fill="#C7C7C7"/>
<path d="M431.52 209.617H318.441V211.294H431.52V209.617Z" fill="#C7C7C7"/>
<path d="M376.281 91.774H373.68V248.172H376.281V91.774Z" fill="#EBEBEB"/>
<path d="M167.933 256.572L170.227 269.716L185.789 349.903H188.294L176.985 269.716L175.305 256.572H167.933Z" fill="#EBEBEB"/>
<path d="M175.305 256.572H167.933L170.227 269.716H176.985L175.305 256.572Z" fill="#C7C7C7"/>
<path d="M119.069 349.903H121.574L137.136 269.716L139.43 256.572H132.058L130.378 269.716L119.069 349.903Z" fill="#EBEBEB"/>
<path d="M132.057 256.572L130.377 269.716H137.136L139.43 256.572H132.057Z" fill="#C7C7C7"/>
<path d="M72.3936 349.903H74.8991L90.4608 269.716L92.7552 256.572H85.3824L83.7024 269.716L72.3936 349.903Z" fill="#EBEBEB"/>
<path d="M83.7021 269.716H90.4605L92.7549 256.572H85.3821L83.7021 269.716Z" fill="#C7C7C7"/>
<path d="M76.3677 262.755H190.396V253.924L147.705 251.286L133.363 172.336H80.7165L76.3677 262.755Z" fill="#EBEBEB"/>
<path d="M76.3677 262.755H82.5885L86.6397 172.336H80.7165L76.3677 262.755Z" fill="#C7C7C7"/>
<path d="M240 419.4C311.756 419.4 369.927 410.094 369.927 398.616C369.927 387.137 311.756 377.832 240 377.832C168.244 377.832 110.074 387.137 110.074 398.616C110.074 410.094 168.244 419.4 240 419.4Z" fill="#EBEBEB"/>
<path d="M85.3151 407.382C111.772 407.382 133.219 403.063 133.219 397.736C133.219 392.409 111.772 388.091 85.3151 388.091C58.8585 388.091 37.4111 392.409 37.4111 397.736C37.4111 403.063 58.8585 407.382 85.3151 407.382Z" fill="#EBEBEB"/>
<path d="M384.384 407.382C410.841 407.382 432.288 403.063 432.288 397.736C432.288 392.409 410.841 388.091 384.384 388.091C357.927 388.091 336.48 392.409 336.48 397.736C336.48 403.063 357.927 407.382 384.384 407.382Z" fill="#EBEBEB"/>
<path d="M32.064 350.636L84.048 350.416L136.032 350.333L240 350.187L343.968 350.333L395.952 350.416L447.936 350.636L395.952 350.865L343.968 350.947L240 351.094L136.032 350.947L84.048 350.865L32.064 350.636Z" fill="#263238"/>
<path d="M262.695 221.287H188.986V350.498H262.695V221.287Z" fill="#455A64"/>
<path d="M262.695 221.287H188.986V229.714H262.695V221.287Z" fill="#263238"/>
<path d="M294.346 214.5H40.0225V221.296H294.346V214.5Z" fill="#455A64"/>
<path d="M55.7475 221.296L55.5075 229.714L52.4067 350.507H46.7715V221.296H55.7475Z" fill="#455A64"/>
<path d="M46.7715 221.296H55.7475L55.5075 229.714H46.7715V221.296Z" fill="#263238"/>
<path d="M287.674 221.287H262.694V350.498H287.674V221.287Z" fill="#37474F"/>
<path d="M287.674 221.287H262.694V229.714H287.674V221.287Z" fill="#263238"/>
<path d="M114.461 298.03C111.197 294.979 106.982 291.297 101.981 292.607C97.296 293.844 95.5008 298.735 94.656 302.802C93.5808 308.042 92.736 313.336 91.8624 318.621C90.9888 323.907 90.1536 329.293 89.3472 334.633C88.8992 337.65 88.4512 340.663 88.0032 343.674L87.36 348.199C87.1488 349.683 86.8896 351.158 86.8032 352.651C86.8032 353.127 87.5616 353.2 87.6672 352.742C88.272 350.223 88.5216 347.613 88.9056 345.057C89.2896 342.502 89.6832 339.928 90.0864 337.354C90.8672 332.255 91.664 327.159 92.4768 322.066C93.2896 316.973 94.1216 311.877 94.9728 306.778C95.6928 302.454 96.0288 297.095 100.042 294.247C101.129 293.534 102.389 293.097 103.703 292.979C105.017 292.86 106.34 293.063 107.549 293.569C110.189 294.531 112.349 296.317 114.365 298.149C114.432 298.176 114.518 298.085 114.461 298.03Z" fill="#263238"/>
<path d="M109.997 294.952C109.997 294.952 103.334 292.662 100.042 297.297C96.7488 301.932 100.685 313.785 131.03 320.398C130.137 311.348 127.668 302.504 123.725 294.228C117.226 280.662 105.6 285.792 109.997 294.952Z" fill="#80BBDA"/>
<path d="M129.283 318.438C128.826 317.624 128.316 316.838 127.757 316.084C127.248 315.342 126.739 314.6 126.221 313.858C125.827 313.299 125.434 312.75 125.031 312.2C125.031 312.063 125.031 311.925 125.088 311.788C125.146 311.651 125.155 311.284 125.194 311.037C125.271 310.487 125.347 309.947 125.434 309.406C125.52 308.866 125.607 308.335 125.722 307.794C125.789 307.215 125.921 306.644 126.115 306.091C126.115 306.008 126 305.962 125.981 306.091C125.917 306.402 125.828 306.709 125.712 307.007L125.511 307.739C125.367 308.289 125.223 308.839 125.088 309.397C124.954 309.956 124.867 310.414 124.781 310.936C124.736 311.187 124.698 311.434 124.666 311.678C124.119 310.936 123.571 310.213 123.005 309.498C121.392 307.474 119.683 305.523 117.927 303.617C117.927 303.617 117.927 303.617 117.927 303.572C118.09 300.521 118.013 297.517 118.723 294.521C118.723 294.439 118.608 294.393 118.589 294.476C117.787 297.296 117.405 300.21 117.456 303.132C116.823 302.454 116.189 301.785 115.536 301.126C114.058 299.605 112.551 298.115 111.015 296.656C110.957 296.601 110.861 296.656 110.919 296.747C113.472 299.367 115.901 302.106 118.263 304.891C116.414 304.863 114.565 304.927 112.723 305.083C110.659 305.23 108.624 305.486 106.579 305.752C106.493 305.752 106.512 305.889 106.579 305.88C108.613 305.601 110.661 305.427 112.714 305.358C114.701 305.275 116.669 305.358 118.647 305.358C119.923 306.869 121.191 308.39 122.429 309.938H120.759C119.799 309.938 118.906 310.02 117.994 310.093C116.108 310.239 114.235 310.505 112.387 310.89C112.369 310.89 112.352 310.897 112.34 310.909C112.327 310.921 112.32 310.937 112.32 310.955C112.32 310.972 112.327 310.988 112.34 311C112.352 311.012 112.369 311.019 112.387 311.019C114.25 310.817 116.122 310.652 117.994 310.588C118.887 310.588 119.779 310.588 120.682 310.588H122.074C122.331 310.623 122.594 310.601 122.842 310.524C123.658 311.532 124.474 312.548 125.28 313.565C125.92 314.371 126.56 315.186 127.2 316.011C127.843 316.854 128.419 317.77 129.12 318.557C129.226 318.566 129.312 318.502 129.283 318.438Z" fill="#263238"/>
<path d="M112.896 301.492C111.821 301.353 110.736 301.301 109.651 301.337C108.566 301.337 107.491 301.337 106.406 301.401C106.31 301.401 106.31 301.538 106.406 301.529C107.501 301.456 108.595 301.437 109.699 301.456C110.803 301.474 111.821 301.566 112.886 301.538C112.934 301.538 112.934 301.492 112.896 301.492Z" fill="#263238"/>
<path d="M122.419 303.819C122.544 302.83 122.678 301.84 122.899 300.869C122.899 300.778 122.774 300.741 122.765 300.869C122.611 301.84 122.41 302.802 122.256 303.782C122.179 304.268 122.112 304.753 122.054 305.248C121.96 305.7 121.918 306.161 121.93 306.622C121.93 306.644 121.939 306.665 121.955 306.68C121.971 306.696 121.993 306.704 122.016 306.704C122.039 306.704 122.061 306.696 122.077 306.68C122.093 306.665 122.102 306.644 122.102 306.622C122.195 306.166 122.25 305.703 122.266 305.239C122.314 304.762 122.362 304.295 122.419 303.819Z" fill="#263238"/>
<path d="M120.423 292.863C120.163 293.779 119.895 294.805 119.712 295.786C119.616 296.28 119.539 296.775 119.463 297.279C119.368 297.762 119.336 298.254 119.367 298.744C119.367 298.744 119.434 298.744 119.443 298.744C119.563 298.287 119.643 297.821 119.683 297.352C119.751 296.866 119.827 296.39 119.914 295.914C120.096 294.906 120.288 293.908 120.557 292.909C120.576 292.827 120.451 292.781 120.423 292.863Z" fill="#263238"/>
<path d="M80.9184 351.579C80.7456 349.747 80.5632 347.915 80.3616 346.083C79.968 342.474 79.4976 338.874 78.9984 335.284C78.4992 331.693 78.0384 328.111 77.4048 324.539C77.1756 322.89 76.7867 321.265 76.2432 319.684C76.0437 318.999 75.6795 318.367 75.1796 317.839C74.6797 317.311 74.0578 316.902 73.3632 316.643C69.792 315.461 67.392 318.997 65.9424 321.498C65.9424 321.571 66.0192 321.626 66.0672 321.562C66.9312 320.371 69.312 317.055 72.0192 317.202C73.8432 317.312 75.3024 318.539 76.176 322.881C78.3552 333.681 80.3232 355.6 80.5536 357.029C80.6688 357.79 81.2352 357.762 81.2448 356.947C81.3024 355.161 81.0816 353.365 80.9184 351.579Z" fill="#263238"/>
<path d="M66.9602 320.16C66.9602 320.16 70.0802 309.608 63.1778 314.902C51.6578 323.65 51.293 342.685 51.293 342.685C51.293 342.685 71.7026 331.372 74.237 323.916C78.0194 312.805 66.9602 320.16 66.9602 320.16Z" fill="#80BBDA"/>
<path d="M70.8193 325.317C69.2161 325.629 67.5937 325.83 66.0193 326.059L63.7153 326.362C63.2065 326.435 62.6785 326.481 62.1601 326.536C63.6769 324.539 65.2129 322.551 66.6721 320.508C66.7297 320.435 66.5953 320.353 66.5281 320.417C65.319 321.607 64.1811 322.86 63.1201 324.172L62.2177 321.727C61.8721 320.811 61.4977 319.849 61.2577 318.887C61.2577 318.805 61.1041 318.841 61.1233 318.887C61.4017 319.849 61.6033 320.829 61.8721 321.8C62.1409 322.771 62.4289 323.632 62.7745 324.548C62.0257 325.464 61.3057 326.426 60.6145 327.378C60.2593 326.462 59.8273 325.546 59.5201 324.548C59.5201 324.466 59.3569 324.548 59.3857 324.548C59.7505 325.62 59.9521 326.728 60.2977 327.8C59.8273 328.45 59.3377 329.11 58.9057 329.769C58.0897 330.978 57.3121 332.215 56.5441 333.433C56.4863 333.458 56.4384 333.5 56.4073 333.553C56.3762 333.605 56.3636 333.666 56.3713 333.726C55.0753 335.861 53.8561 338.022 52.6465 340.193C52.6465 340.276 52.7233 340.34 52.7617 340.257C53.9713 338.105 55.3249 336.016 56.7265 333.955C56.9446 333.888 57.1701 333.845 57.3985 333.827L58.0993 333.681C58.6273 333.571 59.1553 333.442 59.6737 333.323C60.7105 333.076 61.7377 332.838 62.7841 332.673C62.8705 332.673 62.7841 332.526 62.7841 332.545C61.5457 332.765 60.3073 332.902 59.0593 333.039C58.4737 333.103 57.8881 333.177 57.3025 333.268H57.2161C57.9457 332.206 58.6945 331.152 59.4433 330.108C60.1921 329.064 60.9505 328.065 61.7185 327.058C62.4193 326.957 63.1201 326.783 63.8305 326.655L66.1921 326.215C67.7761 325.913 69.3505 325.574 70.9345 325.299C70.9441 325.427 70.9057 325.299 70.8193 325.317Z" fill="#263238"/>
<path d="M58.5598 326.352C58.4734 326.078 58.3774 325.803 58.291 325.519C58.1005 324.941 57.9435 324.354 57.8206 323.76C57.8206 323.678 57.667 323.714 57.6862 323.76C57.8206 324.356 57.9646 324.942 58.1086 325.537C58.2407 326.133 58.4204 326.718 58.6462 327.287C58.661 327.31 58.6834 327.327 58.7099 327.336C58.7363 327.345 58.7651 327.346 58.7918 327.337C58.8184 327.329 58.8413 327.312 58.8567 327.289C58.8721 327.267 58.8791 327.24 58.8766 327.214C58.7806 326.948 58.6558 326.655 58.5598 326.352Z" fill="#263238"/>
<path d="M72.9602 322.89C72.0002 323.018 71.0402 323.082 70.1474 323.156C69.2546 323.229 68.2274 323.366 67.3442 323.495V323.577C68.3042 323.513 69.2642 323.449 70.157 323.33C71.0498 323.211 72.0194 323.082 72.9602 323.018C72.9602 323.009 72.9602 322.872 72.9602 322.89Z" fill="#263238"/>
<path d="M95.9328 338.27C95.5776 330.529 95.0592 322.808 94.2432 315.095C93.84 311.257 93.3888 307.419 92.8224 303.599C92.3144 299.842 91.5349 296.124 90.4896 292.47C89.783 289.634 88.4763 286.965 86.6496 284.629C85.7406 283.493 84.5436 282.597 83.1715 282.025C81.7994 281.453 80.2972 281.224 78.8064 281.359C75.2544 281.78 72.3936 283.914 69.9264 286.232C67.152 288.833 64.608 291.673 62.0448 294.476C61.392 295.181 60.7488 295.886 60.1248 296.601C60.0672 296.665 60.1248 296.757 60.2304 296.692C62.736 293.944 65.3472 291.26 68.0832 288.705C70.5984 286.342 73.2 283.758 76.7232 282.778C78.3482 282.285 80.0874 282.247 81.7344 282.668C83.0427 283.064 84.2206 283.777 85.152 284.739C87.0107 286.798 88.3272 289.25 88.992 291.893C91.1808 299.01 91.9584 306.466 92.7648 313.812C93.5712 321.159 94.1472 328.762 94.5408 336.254C94.9344 343.747 95.2416 351.341 96 358.852C96.096 359.768 96.2208 360.684 96.3456 361.6C96.432 362.223 97.44 362.223 97.392 361.6C96.672 353.823 96.2976 346.056 95.9328 338.27Z" fill="#263238"/>
<path d="M69.4369 287.074C69.4369 287.074 74.0737 278.895 68.6017 276.266C63.1297 273.637 44.8033 293.12 39.4561 321.681C39.4561 321.681 69.0433 309.196 79.0945 296.747C89.1457 284.299 77.7601 281.56 69.4369 287.074Z" fill="#80BBDA"/>
<path d="M73.795 293.725C70.4638 293.725 67.1518 293.486 63.8206 293.505L65.7406 291.462C66.6716 290.558 67.5405 289.597 68.3422 288.586C68.3422 288.513 68.3422 288.421 68.227 288.476C67.3226 289.214 66.4816 290.019 65.7118 290.885C64.8766 291.728 64.0414 292.57 63.2254 293.422C61.9486 294.732 60.7006 296.07 59.4622 297.407C59.4622 297.279 59.4622 297.15 59.4622 297.022C59.4622 296.463 59.4622 295.914 59.4622 295.355V292.131C59.4622 289.942 59.4622 287.752 59.6446 285.572C59.6446 285.49 59.5102 285.499 59.5006 285.572C59.347 287.761 59.107 289.932 58.9918 292.131C58.9918 293.202 58.915 294.283 58.8958 295.355C58.8958 295.914 58.8958 296.473 58.8958 297.022C58.8958 297.324 58.8958 297.645 58.8958 297.938C58.7038 298.149 58.5022 298.35 58.3006 298.561C55.651 301.456 53.1262 304.451 50.6686 307.492C50.6686 307.327 50.6686 307.153 50.6686 306.988L50.5534 305.981C50.467 305.257 50.3614 304.533 50.2462 303.81C50.131 303.086 50.0254 302.445 49.9102 301.767C49.795 301.089 49.5742 300.228 49.5166 299.459C49.5166 299.442 49.5095 299.425 49.4969 299.413C49.4843 299.401 49.4672 299.395 49.4494 299.395C49.4316 299.395 49.4145 299.401 49.4019 299.413C49.3893 299.425 49.3822 299.442 49.3822 299.459C49.5229 300.228 49.6158 301.005 49.6606 301.785L49.8622 303.883C49.9294 304.579 49.9966 305.275 50.0734 305.981C50.0734 306.31 50.1406 306.649 50.179 306.979L50.2366 307.483C50.2531 307.626 50.3022 307.763 50.3806 307.886L49.1134 309.461C47.443 311.577 45.7918 313.721 44.1406 315.873C44.1406 315.938 44.1406 316.029 44.2462 315.965C45.8014 314.023 47.4046 312.118 49.0462 310.231C50.2654 310.231 51.5038 310.231 52.723 310.176C53.9422 310.121 55.2862 310.176 56.563 310.176C56.5808 310.176 56.5979 310.169 56.6105 310.157C56.6231 310.145 56.6302 310.129 56.6302 310.112C56.6302 310.095 56.6231 310.078 56.6105 310.066C56.5979 310.054 56.5808 310.048 56.563 310.048H52.723C51.5518 310.048 50.3518 309.993 49.1902 310.048C50.6238 308.393 52.0638 306.741 53.5102 305.092C54.0382 304.497 54.5758 303.901 55.1038 303.26C55.5935 303.326 56.0891 303.341 56.5822 303.306H58.339C59.4238 303.306 60.5182 303.306 61.6126 303.26C63.8686 303.26 66.1342 303.159 68.3902 303.15C68.408 303.15 68.4251 303.143 68.4377 303.131C68.4503 303.119 68.4574 303.103 68.4574 303.086C68.4574 303.069 68.4503 303.053 68.4377 303.041C68.4251 303.029 68.408 303.022 68.3902 303.022C66.1246 303.022 63.8686 302.903 61.603 302.848C60.5086 302.848 59.4142 302.784 58.3198 302.775H56.5726C56.2366 302.775 55.9006 302.775 55.6126 302.775C56.851 301.373 58.0894 299.963 59.3374 298.561C59.3647 298.541 59.3875 298.516 59.4046 298.488C60.6142 297.12 61.8302 295.758 63.0526 294.402L63.5614 293.853C67.0078 293.954 70.4542 293.734 73.9006 293.798C73.9063 293.785 73.9072 293.77 73.9031 293.756C73.899 293.742 73.8902 293.73 73.878 293.722C73.8658 293.713 73.851 293.709 73.836 293.709C73.8209 293.71 73.8065 293.715 73.795 293.725Z" fill="#263238"/>
<path d="M72.0865 299.331H71.2801C71.2033 299.331 71.2129 299.45 71.2801 299.45H72.0865C72.1825 299.468 72.1825 299.331 72.0865 299.331Z" fill="#263238"/>
<path d="M70.301 299.34C69.2354 299.34 68.1698 299.34 67.1042 299.276L65.501 299.23C65.0102 299.17 64.5134 299.17 64.0226 299.23C64.0099 299.23 63.9977 299.235 63.9887 299.243C63.9797 299.252 63.9746 299.263 63.9746 299.276C63.9746 299.288 63.9797 299.299 63.9887 299.308C63.9977 299.317 64.0099 299.321 64.0226 299.321C64.5115 299.419 65.0121 299.453 65.5106 299.422H67.1042H70.301C70.3097 299.41 70.3143 299.396 70.3143 299.381C70.3143 299.366 70.3097 299.352 70.301 299.34Z" fill="#263238"/>
<path d="M60.9984 308.866C58.833 308.529 56.6449 308.342 54.4512 308.307V308.353C56.6304 308.555 58.8096 308.664 60.96 308.994C60.9778 308.999 60.9969 308.997 61.0131 308.988C61.0293 308.98 61.0413 308.965 61.0464 308.948C61.0515 308.931 61.0493 308.913 61.0403 308.898C61.0313 308.882 61.0162 308.871 60.9984 308.866Z" fill="#263238"/>
<path d="M52.0992 299.788C52.0992 299.605 52.0992 299.422 52.032 299.239C51.984 298.836 51.9168 298.424 51.8496 298.021C51.7152 297.242 51.5712 296.473 51.4176 295.703C51.4176 295.63 51.2736 295.648 51.2832 295.703C51.3888 296.5 51.4752 297.297 51.5616 298.103C51.5616 298.497 51.6288 298.891 51.6672 299.276C51.6508 299.673 51.7093 300.07 51.84 300.448C51.8976 300.567 52.0896 300.512 52.128 300.402C52.1657 300.198 52.1559 299.989 52.0992 299.788Z" fill="#263238"/>
<path d="M95.6446 276.568C94.5886 274.681 93.235 272.199 90.595 272.354C88.4158 272.492 87.427 274.617 86.9662 276.366C85.5166 281.798 85.4398 287.532 85.1422 293.12C84.547 304.891 84.0094 316.67 83.9326 328.45C83.9326 331.711 83.9326 334.981 83.9326 338.242C83.9326 341.503 83.9326 344.929 84.1726 348.254C84.1841 348.31 84.2158 348.361 84.2622 348.398C84.3086 348.434 84.3669 348.454 84.427 348.454C84.4871 348.454 84.5454 348.434 84.5918 348.398C84.6382 348.361 84.6699 348.31 84.6814 348.254C84.6814 345.405 84.595 342.557 84.5854 339.708C84.5758 336.859 84.5854 334.148 84.643 331.363C84.739 325.739 84.8958 320.111 85.1134 314.481C85.3342 308.884 85.5934 303.297 85.843 297.7L86.2174 289.319C86.3518 286.571 86.467 283.896 86.7934 281.203C86.9758 279.691 87.2158 278.189 87.5422 276.696C87.7083 275.594 88.1788 274.554 88.9054 273.682C89.4097 273.213 90.0718 272.929 90.7746 272.88C91.4773 272.832 92.1754 273.022 92.7454 273.417C93.9629 274.227 94.9255 275.338 95.5294 276.632C95.5678 276.705 95.683 276.632 95.6446 276.568Z" fill="#263238"/>
<path d="M94.9346 275.716C94.9346 275.716 92.7554 268.388 97.565 272.052C105.562 278.143 105.84 291.407 105.84 291.407C105.84 291.407 91.6226 283.529 89.8562 278.327C87.2258 270.541 94.9346 275.716 94.9346 275.716Z" fill="#80BBDA"/>
<path d="M102.855 285.92L102.451 285.325C102.466 285.117 102.466 284.909 102.451 284.702C102.451 284.381 102.451 284.07 102.451 283.786C102.451 283.163 102.451 282.549 102.519 281.954C102.519 281.872 102.394 281.872 102.384 281.954C102.384 282.568 102.327 283.172 102.307 283.786V284.702C102.307 284.812 102.307 284.949 102.307 285.087C101.751 284.262 101.175 283.447 100.579 282.641C100.407 282.403 100.234 282.174 100.051 281.945C99.9841 281.149 99.9841 280.35 100.051 279.554C100.051 278.702 100.051 277.85 100.051 277.008C100.051 276.916 99.9169 276.925 99.9169 277.008C99.9169 277.924 99.8497 278.775 99.8017 279.664C99.7442 280.291 99.725 280.921 99.7441 281.551C98.3713 279.774 96.9121 278.052 95.4433 276.348C95.3953 276.293 95.2897 276.348 95.3377 276.43C96.2497 277.53 97.1233 278.666 97.9777 279.811C96.3073 279.435 94.6081 279.224 92.9089 278.986C92.8225 278.986 92.7841 279.105 92.9089 279.114C94.7137 279.371 96.4801 279.801 98.2561 280.177C98.9281 281.093 99.6097 282.009 100.272 282.925C100.551 283.3 100.81 283.685 101.079 284.061H101.002L100.455 283.987C100.061 283.942 99.6673 283.914 99.2737 283.887C98.4481 283.823 97.6321 283.786 96.8065 283.74C96.7887 283.74 96.7716 283.747 96.759 283.759C96.7464 283.771 96.7393 283.787 96.7393 283.804C96.7393 283.821 96.7464 283.838 96.759 283.85C96.7716 283.862 96.7887 283.868 96.8065 283.868C97.6225 283.868 98.4193 283.951 99.2257 284.033C99.6481 284.033 100.071 284.134 100.503 284.18L101.05 284.244H101.213L102.586 286.168C103.383 287.294 104.103 288.513 104.957 289.603C105.015 289.667 105.111 289.603 105.072 289.538C104.404 288.294 103.664 287.086 102.855 285.92Z" fill="#263238"/>
<path d="M99.3123 277.649C99.3123 277.365 99.3123 277.081 99.3123 276.797C99.2979 276.185 99.3236 275.573 99.3892 274.965C99.3892 274.948 99.3821 274.932 99.3695 274.92C99.3569 274.908 99.3397 274.901 99.3219 274.901C99.304 274.901 99.2869 274.908 99.2742 274.92C99.2616 274.932 99.2545 274.948 99.2545 274.965C99.2545 275.551 99.1872 276.147 99.1583 276.742C99.1583 277.035 99.1583 277.337 99.1583 277.658C99.1583 277.795 99.1583 277.933 99.1583 278.07C99.1341 278.21 99.1341 278.352 99.1583 278.491C99.1583 278.506 99.1644 278.52 99.1752 278.53C99.186 278.541 99.2007 278.546 99.216 278.546C99.2313 278.546 99.246 278.541 99.2569 278.53C99.2677 278.52 99.2738 278.506 99.2738 278.491C99.2977 278.361 99.2977 278.228 99.2738 278.098L99.3123 277.649Z" fill="#263238"/>
<path d="M97.5551 280.69C97.024 280.611 96.4888 280.559 95.9519 280.534C95.3663 280.479 94.7807 280.433 94.1951 280.36C94.0991 280.36 94.0799 280.488 94.1951 280.488C95.3183 280.562 96.4415 280.754 97.5647 280.791C97.5746 280.786 97.5828 280.778 97.5882 280.768C97.5935 280.759 97.5959 280.748 97.5948 280.737C97.5938 280.726 97.5895 280.716 97.5824 280.708C97.5754 280.699 97.5658 280.693 97.5551 280.69Z" fill="#263238"/>
<path d="M102.019 280.727C102.039 280.82 102.039 280.917 102.019 281.01V281.212C102.019 281.386 102.019 281.551 102.019 281.725V282.238C101.99 282.386 101.99 282.538 102.019 282.687C102.019 282.687 102.019 282.687 102.077 282.687C102.096 282.615 102.096 282.539 102.077 282.467V282.238C102.077 282.064 102.077 281.89 102.077 281.725V280.974C102.077 280.901 102.077 280.754 102.077 280.69C102.077 280.626 101.933 280.607 102.019 280.727Z" fill="#263238"/>
<path d="M95.9999 315.635C93.0047 313.501 90.3167 310.423 86.2943 310.268C82.9823 310.148 80.6495 312.53 79.3247 315.186C78.6572 316.598 78.1114 318.059 77.6927 319.556C77.0975 321.559 76.5343 323.574 76.0031 325.601C74.9471 329.595 74.0511 333.607 73.3151 337.638C72.9119 339.891 72.5375 342.144 72.2399 344.416C71.8629 346.715 71.6289 349.034 71.5391 351.359C71.546 351.444 71.5836 351.524 71.6454 351.585C71.7072 351.646 71.7894 351.685 71.8779 351.695C71.9664 351.704 72.0557 351.685 72.1304 351.638C72.2052 351.592 72.2609 351.523 72.2879 351.442C72.6911 349.546 72.8543 347.585 73.1519 345.671C73.4495 343.756 73.7471 341.815 74.1119 339.891C74.7903 336.044 75.5839 332.221 76.4927 328.423C77.3471 324.832 78.1919 321.186 79.3727 317.687C80.2367 315.186 81.6383 312.255 84.4703 311.358C88.7903 309.984 92.7071 313.474 95.8655 315.736C95.9999 315.782 96.0479 315.69 95.9999 315.635Z" fill="#263238"/>
<path d="M92.8801 313.593C92.8801 313.593 90.1249 306.081 94.1089 304.607C100.09 302.399 115.728 319.208 112.666 344.911C112.666 344.911 100.579 338.563 91.6609 331.418C82.7425 324.273 80.4577 314.93 84.3841 312.53C88.3105 310.13 92.8801 313.593 92.8801 313.593Z" fill="#80BBDA"/>
<path d="M110.861 339.433C110.441 338.536 109.954 337.67 109.402 336.841C108.893 335.925 108.374 335.082 107.846 334.212C106.81 332.517 105.773 330.813 104.707 329.137L104.189 328.322C104.189 328.221 104.189 328.12 104.256 328.02L104.429 327.278C104.563 326.719 104.669 326.151 104.774 325.592C104.995 324.493 105.187 323.375 105.504 322.295C105.504 322.278 105.497 322.261 105.484 322.249C105.472 322.237 105.455 322.23 105.437 322.23C105.419 322.23 105.402 322.237 105.389 322.249C105.377 322.261 105.37 322.278 105.37 322.295C105.12 323.394 104.755 324.484 104.41 325.556C104.237 326.087 104.064 326.618 103.91 327.159C103.91 327.342 103.814 327.525 103.757 327.708C102.48 325.693 101.174 323.696 99.7632 321.763C99.8535 321.497 99.8989 321.219 99.8976 320.939L100.042 319.812C100.147 318.96 100.243 318.118 100.378 317.275C100.606 315.614 100.927 313.966 101.338 312.338C101.338 312.255 101.232 312.237 101.203 312.338C100.781 313.959 100.31 315.58 99.984 317.22C99.8304 318.026 99.6768 318.841 99.5616 319.647C99.504 320.06 99.4656 320.463 99.4176 320.875C99.4176 320.994 99.4176 321.122 99.4176 321.241C98.9856 320.655 98.5536 320.078 98.0928 319.51C96.72 317.779 95.2896 316.084 93.84 314.399C93.84 314.335 93.6768 314.399 93.7344 314.472C96.2055 317.488 98.4725 320.652 100.522 323.943C100.925 324.548 101.309 325.152 101.702 325.775L101.309 325.73C100.81 325.675 100.291 325.638 99.792 325.592L96.7392 325.345C94.704 325.189 92.6592 325.07 90.6336 324.859C90.5472 324.859 90.5184 324.978 90.6336 324.988C92.6976 325.217 94.7424 325.528 96.7872 325.812C97.7472 325.949 98.8032 326.078 99.8208 326.197C100.586 326.344 101.364 326.421 102.144 326.426C102.95 327.647 103.75 328.887 104.544 330.145C104.365 330.131 104.185 330.131 104.006 330.145H101.126C99.8112 330.145 98.5056 330.145 97.1904 330.145C97.104 330.145 97.1232 330.273 97.1904 330.273C98.5152 330.273 99.84 330.355 101.165 330.42C101.798 330.42 102.422 330.484 103.085 330.529L104.045 330.594C104.317 330.649 104.598 330.649 104.87 330.594C105.552 331.647 106.243 332.7 106.915 333.754C107.587 334.807 108.173 335.696 108.835 336.657C109.443 337.685 110.129 338.668 110.89 339.598C110.901 339.596 110.912 339.592 110.922 339.586C110.931 339.58 110.94 339.573 110.946 339.564C110.953 339.555 110.958 339.545 110.961 339.534C110.963 339.524 110.963 339.512 110.962 339.502C110.96 339.491 110.956 339.48 110.95 339.471C110.943 339.462 110.935 339.454 110.926 339.447C110.917 339.441 110.906 339.436 110.895 339.434C110.884 339.431 110.872 339.431 110.861 339.433Z" fill="#263238"/>
<path d="M105.101 318.621C104.979 319.45 104.8 320.27 104.563 321.076C104.333 321.91 104.083 322.734 103.795 323.55C103.792 323.56 103.79 323.571 103.791 323.581C103.791 323.592 103.794 323.603 103.799 323.613C103.804 323.622 103.811 323.631 103.819 323.638C103.828 323.646 103.838 323.651 103.848 323.655C103.859 323.658 103.87 323.66 103.882 323.659C103.893 323.659 103.904 323.656 103.914 323.651C103.925 323.647 103.934 323.64 103.941 323.632C103.949 323.624 103.955 323.615 103.959 323.604C104.227 322.789 104.467 321.974 104.679 321.14C104.89 320.307 105.024 319.473 105.235 318.649C105.255 318.566 105.111 318.539 105.101 318.621Z" fill="#263238"/>
<path d="M96.2207 323.65C96.0377 323.504 95.8068 323.423 95.5679 323.421L94.4255 323.275L92.3039 323.027C90.8255 322.863 89.3567 322.725 87.8783 322.551C87.7919 322.551 87.7727 322.67 87.8783 322.679C89.2703 322.835 90.6431 323.037 92.0351 323.211L94.0703 323.467L95.0303 323.568C95.4097 323.568 95.7863 323.63 96.1439 323.751C96.2207 323.788 96.2687 323.696 96.2207 323.65Z" fill="#263238"/>
<path d="M105.082 334.981C104.381 334.917 103.68 334.899 102.989 334.88H101.933H101.424C101.207 334.899 100.988 334.899 100.771 334.88C100.666 334.88 100.656 335.027 100.771 335.009C100.976 334.99 101.181 334.99 101.386 335.009H101.933L102.989 335.073C103.69 335.073 104.391 335.155 105.082 335.155C105.159 335.119 105.168 334.981 105.082 334.981Z" fill="#263238"/>
<path d="M109.335 332.096C109.424 331.717 109.501 331.342 109.565 330.969L109.997 328.734C109.997 328.717 109.99 328.701 109.977 328.689C109.965 328.677 109.948 328.67 109.93 328.67C109.912 328.67 109.895 328.677 109.882 328.689C109.87 328.701 109.863 328.717 109.863 328.734L109.344 330.905C109.258 331.262 109.181 331.629 109.095 331.986C109.095 332.16 109.027 332.325 108.989 332.49C108.932 332.661 108.912 332.842 108.931 333.021C108.931 333.085 109.037 333.131 109.075 333.021C109.222 332.731 109.31 332.417 109.335 332.096Z" fill="#263238"/>
<path d="M107.731 354.29L107.059 364.934L105.072 396.353H64.3584L62.3712 364.934L61.6992 354.29H107.731Z" fill="#455A64"/>
<path d="M107.731 354.29L107.059 364.934H62.3712L61.6992 354.29H107.731Z" fill="#263238"/>
<path d="M110.851 346.761H58.5889V357.414H110.851V346.761Z" fill="#455A64"/>
<path d="M233.875 344.031C233.875 344.031 228.259 383.465 228.259 383.493C228.154 391.04 227.923 397.654 227.472 401.061C227.477 401.079 227.477 401.098 227.472 401.116C227.464 401.925 227.253 402.719 226.858 403.434L226.81 403.489C224.438 404.973 161.242 405.962 159.024 405.321C156.806 404.68 158.65 398.57 161.069 396.665C163.488 394.759 187.517 384.051 187.517 384.051L193.526 344.663L233.875 344.031Z" fill="#AD6359"/>
<path d="M228.173 388.384C228.048 393.88 227.827 398.46 227.472 401.098C227.477 401.116 227.477 401.135 227.472 401.153C227.464 401.961 227.253 402.756 226.858 403.47C226.858 403.47 226.858 403.47 226.858 403.516C224.477 405.009 161.28 405.989 159.063 405.348C156.845 404.707 158.688 398.597 161.107 396.692C162.269 395.776 168.375 392.863 174.423 390.06C172.503 391.498 170.583 393.266 171.456 393.981C172.963 395.172 211.287 393.88 228.173 388.384Z" fill="#263238"/>
<path d="M177.936 388.384C177.936 388.384 189.12 383.529 208.301 392.314L177.936 388.384Z" fill="#263238"/>
<path d="M243.322 371.209L188.247 370.366L215.962 173.188H253.296L243.322 371.209Z" fill="#263238"/>
<path d="M253.296 173.188L246.221 313.648L227.654 173.188H253.296Z" fill="#37474F"/>
<path d="M240.672 362.076C239.011 361.902 237.312 361.912 235.641 361.847C233.971 361.783 232.435 361.765 230.841 361.737C227.52 361.683 224.208 361.628 220.886 361.591C214.329 361.536 207.773 361.49 201.216 361.508C197.491 361.508 193.785 361.628 190.061 361.783C190.041 361.789 190.025 361.801 190.013 361.817C190.001 361.832 189.995 361.851 189.995 361.87C189.995 361.89 190.001 361.908 190.013 361.924C190.025 361.94 190.041 361.951 190.061 361.957C196.656 362.333 203.241 362.434 209.846 362.516C216.451 362.599 222.96 362.617 229.517 362.608C231.36 362.608 233.193 362.608 235.037 362.608C236.88 362.608 238.819 362.608 240.672 362.443C240.723 362.443 240.772 362.424 240.808 362.389C240.844 362.355 240.864 362.308 240.864 362.26C240.864 362.211 240.844 362.164 240.808 362.13C240.772 362.096 240.723 362.076 240.672 362.076Z" fill="#455A64"/>
<path d="M223.008 183.466C219.764 205.862 216.759 228.276 213.572 250.682C210.384 273.087 207.024 295.263 203.626 317.55C201.706 330.053 199.719 342.538 197.962 355.106C197.962 355.298 198.24 355.371 198.279 355.179C202.57 332.948 205.959 310.551 209.367 288.183C212.775 265.814 215.895 243.592 218.784 221.251C220.407 208.701 221.981 196.143 223.316 183.566C223.335 183.337 223.037 183.301 223.008 183.466Z" fill="#455A64"/>
<path d="M253.344 344.608C253.344 344.608 258.643 382.21 258.643 382.238C258.691 389.776 258.874 396.39 259.306 399.807C259.302 399.825 259.302 399.843 259.306 399.861C259.319 400.67 259.522 401.465 259.901 402.188C259.901 402.188 259.901 402.188 259.949 402.234C262.311 403.736 318.739 405.11 320.967 404.451C323.194 403.791 321.389 397.7 318.979 395.776C316.57 393.853 299.376 383.007 299.376 383.007L292.743 343.619L253.344 344.608Z" fill="#AD6359"/>
<path d="M320.976 404.451C318.758 405.11 262.33 403.736 259.958 402.234C259.958 402.234 259.958 402.234 259.958 402.179C259.567 401.46 259.359 400.663 259.354 399.852C259.349 399.834 259.349 399.815 259.354 399.797C258.894 395.844 258.696 391.867 258.758 387.889C267.974 393.468 291.84 395.95 299.424 394.365C306.144 392.955 304.666 387.789 303.264 385.462C308.467 388.769 317.347 394.457 319.046 395.804C321.398 397.691 323.203 403.791 320.976 404.451Z" fill="#263238"/>
<path d="M303.207 385.434C303.207 385.434 284.218 382.485 271.229 392.277L303.207 385.434Z" fill="#263238"/>
<path d="M219.754 173.124C219.917 173.857 222.528 185.417 225.235 195.346C227.203 202.601 229.229 208.976 230.391 209.636C231.706 210.378 238.119 213.089 240.269 213.941L248.64 370.843L305.626 369.624L275.866 198.552L270.855 173.124H219.754Z" fill="#263238"/>
<path d="M226.992 208.079C231.568 209.668 235.991 211.632 240.211 213.95C240.244 213.969 240.268 213.998 240.279 214.032C240.29 214.066 240.288 214.103 240.273 214.136C240.257 214.169 240.23 214.195 240.195 214.21C240.161 214.224 240.122 214.227 240.086 214.216C235.632 212.384 231.091 210.643 226.752 208.582C226.682 208.552 226.628 208.496 226.6 208.428C226.573 208.359 226.576 208.283 226.608 208.216C226.64 208.149 226.698 208.097 226.77 208.071C226.842 208.046 226.922 208.048 226.992 208.079Z" fill="#455A64"/>
<path d="M225.648 178.977C225.648 178.831 225.927 178.794 225.927 178.977C225.927 184.024 226.234 188.467 226.675 193.175C226.887 195.364 228.73 207.465 232.704 206.585C233.376 206.43 233.664 205.807 233.818 204.854C233.804 203.602 233.626 202.355 233.29 201.144C232.848 198.607 232.493 196.07 232.263 193.514C231.803 188.749 231.858 183.952 232.426 179.197C232.434 179.17 232.451 179.146 232.474 179.129C232.497 179.112 232.526 179.103 232.555 179.103C232.585 179.103 232.614 179.112 232.637 179.129C232.66 179.146 232.677 179.17 232.685 179.197C232.564 185.8 232.968 192.402 233.895 198.946C234.394 202.097 236.055 206.833 232.608 207.318C229.162 207.804 226.848 199.88 226.387 197.709C225.296 191.522 225.048 185.226 225.648 178.977Z" fill="#455A64"/>
<path d="M232.599 206.879C232.958 207.694 233.256 208.533 233.491 209.388C233.748 210.048 233.875 210.746 233.866 211.449C233.86 211.478 233.846 211.504 233.824 211.525C233.803 211.546 233.776 211.56 233.746 211.566C233.716 211.572 233.685 211.569 233.657 211.558C233.629 211.547 233.604 211.529 233.587 211.504C233.164 210.885 232.841 210.209 232.627 209.498C232.33 208.72 232.003 207.95 231.725 207.172C231.684 207.061 231.691 206.94 231.744 206.834C231.797 206.728 231.892 206.647 232.008 206.608C232.124 206.57 232.251 206.576 232.362 206.627C232.473 206.678 232.558 206.768 232.599 206.879Z" fill="#455A64"/>
<path d="M302.4 362.131C300.739 362.003 299.031 362.049 297.36 362.031C295.69 362.012 294.163 362.031 292.56 362.031C289.248 362.031 285.927 362.104 282.615 362.159C276.058 362.278 269.501 362.415 262.944 362.608C259.219 362.718 255.514 362.928 251.808 363.185C251.789 363.191 251.772 363.203 251.76 363.218C251.749 363.234 251.742 363.253 251.742 363.272C251.742 363.291 251.749 363.31 251.76 363.326C251.772 363.341 251.789 363.353 251.808 363.359C258.413 363.56 264.999 363.478 271.603 363.359C278.208 363.24 284.717 363.102 291.264 362.919L296.784 362.736C298.647 362.663 300.567 362.635 302.41 362.415C302.435 362.4 302.456 362.379 302.47 362.353C302.484 362.328 302.491 362.3 302.49 362.271C302.489 362.242 302.48 362.214 302.465 362.19C302.449 362.165 302.427 362.145 302.4 362.131Z" fill="#455A64"/>
<path d="M277.44 341.018C276.95 336.227 276.413 331.436 275.894 326.646C274.858 317.156 273.789 307.672 272.688 298.195C270.506 279.233 268.266 260.272 265.968 241.311C264.691 230.676 263.635 220.005 262.186 209.388C262.186 209.297 262.013 209.297 262.022 209.388C262.886 218.988 264.115 228.551 265.133 238.133C266.15 247.714 267.13 257.103 268.166 266.584C270.227 285.557 272.346 304.521 274.522 323.476C275.136 328.798 275.75 334.12 276.442 339.442C277.133 344.764 277.872 350.077 278.573 355.399C278.573 355.527 278.803 355.527 278.784 355.399C278.304 350.599 277.93 345.808 277.44 341.018Z" fill="#455A64"/>
<path d="M215.52 194.815L225.245 195.41L253.594 197.169L275.885 198.552L270.854 173.124H219.754H215.914L215.52 194.815Z" fill="#263238"/>
<path d="M229.133 73.9578C219.821 81.5698 222.413 92.6809 218.525 98.6898C216.144 102.354 208.407 106.265 206.861 110.506C204.336 117.486 210.528 119.987 209.146 123.779C207.226 129.147 199.651 128.735 198.288 137.519C196.925 146.304 207.063 155.647 231.111 158.184C255.159 160.721 268.359 152.312 269.223 144.856C270.087 137.4 262.09 134.927 261.543 129.358C261.197 125.803 266.131 123.321 266.343 116.781C266.554 110.241 259.911 108.106 258.951 102.546C257.991 96.9861 261.082 83.4751 252.519 76.5776C243.955 69.6801 233.722 70.2022 229.133 73.9578Z" fill="#263238"/>
<path d="M230.208 74.196C227.604 75.9543 225.484 78.2858 224.026 80.9927C222.518 83.8635 221.365 86.8912 220.589 90.0153C220.188 91.8762 219.563 93.6866 218.726 95.4106C217.896 96.85 216.803 98.1372 215.501 99.212C212.899 101.456 209.789 103.169 207.456 105.688C205.123 108.207 203.52 111.276 204.403 114.527C204.883 116.295 206.112 117.743 206.87 119.391C207.629 121.04 207.83 122.909 206.477 124.21C205.267 125.318 203.53 125.831 202.166 126.738C200.819 127.633 199.632 128.731 198.653 129.99C197.662 131.233 196.953 132.659 196.572 134.178C196.19 135.696 196.143 137.274 196.435 138.811C197.856 145.946 204.874 150.004 211.354 152.551C212.256 152.908 213.158 153.256 214.07 153.595C214.214 153.65 214.33 153.457 214.186 153.403C207.686 150.655 200.141 147.366 197.645 140.423C197.066 138.909 196.863 137.288 197.049 135.686C197.236 134.084 197.807 132.546 198.72 131.19C199.64 129.854 200.804 128.688 202.157 127.745C203.462 126.829 204.979 126.252 206.304 125.382C206.965 124.982 207.502 124.422 207.861 123.759C208.221 123.096 208.389 122.354 208.349 121.608C208.144 119.968 207.532 118.397 206.563 117.028C205.553 115.614 205.017 113.94 205.027 112.228C205.222 110.564 205.886 108.982 206.947 107.648C208.973 104.9 211.968 103.123 214.627 101.053C217.38 99.1291 219.429 96.4277 220.483 93.3313C220.982 91.6916 221.29 90.0062 221.722 88.3574C222.109 86.8066 222.587 85.2776 223.152 83.7774C224.214 80.7885 225.951 78.0587 228.24 75.7807C228.841 75.1979 229.504 74.676 230.218 74.2235C230.4 74.196 230.285 74.1044 230.208 74.196Z" fill="#263238"/>
<path d="M270.288 139.397C269.995 138.183 269.428 137.046 268.627 136.063C267.792 135.055 266.784 134.231 265.853 133.315C264.906 132.475 264.225 131.399 263.885 130.209C263.716 128.755 264.094 127.291 264.951 126.078C265.764 124.796 266.482 123.462 267.101 122.084C267.914 119.983 268.201 117.729 267.939 115.502C267.678 113.276 266.874 111.138 265.594 109.26C264.778 107.978 263.856 106.76 263.021 105.487C262.107 104.099 261.39 102.602 260.89 101.035C259.805 97.5815 259.575 93.9358 258.691 90.4367C257.758 86.8518 256.449 83.3656 254.784 80.0309C254.784 79.9485 254.611 80.0309 254.659 80.1042C256.138 83.1141 257.28 86.2642 258.067 89.5023C258.835 92.5709 259.133 95.7037 259.699 98.7997C259.95 100.324 260.359 101.822 260.919 103.27C261.49 104.607 262.187 105.891 263.002 107.108C264.634 109.636 266.304 112.128 266.755 115.132C267.204 118.077 266.663 121.082 265.21 123.715C263.943 125.996 262.176 128.515 263.29 131.18C264.25 133.443 266.477 134.844 267.984 136.676C268.774 137.709 269.327 138.888 269.607 140.139C269.886 141.389 269.886 142.681 269.607 143.931C268.311 150.343 261.571 153.54 255.255 153.86C255.214 153.86 255.175 153.876 255.146 153.903C255.117 153.931 255.101 153.968 255.101 154.007C255.101 154.046 255.117 154.083 255.146 154.111C255.175 154.138 255.214 154.154 255.255 154.154C260.746 154.089 266.727 151.79 269.299 146.881C270.533 144.572 270.882 141.925 270.288 139.397Z" fill="#263238"/>
<path d="M234.518 119.703C232.809 126.371 212.505 188.879 208.483 189.749C196.646 192.296 182.419 194.165 182.63 184.895C182.966 170.349 211.622 132.06 225.35 119.336C234.384 110.955 236.208 113.117 234.518 119.703Z" fill="#AD6359"/>
<path d="M234.518 119.703C232.809 126.371 212.505 188.879 208.483 189.749C196.646 192.296 182.419 194.165 182.63 184.895C182.966 170.349 211.622 132.06 225.35 119.336C234.384 110.955 236.208 113.117 234.518 119.703Z" fill="#AD6359"/>
<path d="M182.554 188.229C177.638 171.741 219.178 123.275 227.261 117.101C235.344 110.928 236.39 112.86 234.749 120.656C233.107 128.451 213.466 187.459 209.28 189.612C205.094 191.765 184.781 195.703 182.554 188.229Z" fill="#EBEBEB"/>
<path d="M216.499 157.103L211.939 187.038C211.939 187.038 263.069 187.762 275.76 186.91C275.76 186.91 265.411 130.942 251.76 116.808C244.935 109.737 236.919 110.259 231.811 115.205C230.525 116.46 215.098 135.907 213.475 143.336C212.055 149.885 216.499 157.103 216.499 157.103Z" fill="#80BBDA"/>
<path d="M246.106 112.668C246.106 112.668 240.154 268.718 243.312 276.128C246.471 283.539 294 290.894 294 290.894C294 290.894 280.051 179.197 267.399 145.296C255.667 113.859 246.106 112.668 246.106 112.668Z" fill="#EBEBEB"/>
<path d="M277.862 208.61C273.547 209.178 269.2 209.503 264.845 209.581C258.758 209.581 252.72 209.013 250.973 208.995C250.819 208.995 250.742 209.48 250.848 209.489C255.459 210.019 260.095 210.325 264.739 210.405C268.99 210.377 273.23 209.993 277.411 209.26C277.411 210.488 277.411 211.449 277.411 212.686C273.12 213.474 264.845 214.839 251.491 213.199C251.443 212.686 251.491 209.947 251.405 209.196C251.405 209.086 250.886 209.059 250.867 209.196C250.761 209.938 250.445 216.524 250.435 217.861C250.435 221.159 250.646 230.466 251.501 232.27C253.421 236.356 261.782 236.365 264.096 236.383C266.409 236.401 273.84 236.621 276.624 234.02C278.112 232.637 278.429 225.089 278.208 218.448C278.064 215.26 278.054 208.674 277.862 208.61ZM264.71 235.614C257.337 235.614 254.15 234.148 252.998 232.673C251.673 230.969 251.558 227.983 251.462 224.695C251.385 222.112 251.462 214.023 251.462 213.859C255.753 214.683 267.091 215.81 277.382 213.529C277.382 217.358 277.382 220.426 277.382 224.264C277.382 227.012 277.2 231.702 275.721 233.324C274.56 234.679 270.038 235.604 264.71 235.614Z" fill="#A6A6A6"/>
<path d="M214.761 276.815C212.131 282.751 196.406 286.781 196.406 286.781L216.221 156.563C213.713 152.643 212.734 148.005 213.456 143.464C214.79 136.136 230.813 114.967 233.405 113.877C230.73 124.809 228.872 135.908 227.846 147.091C223.401 192.864 217.641 270.339 214.761 276.815Z" fill="#EBEBEB"/>
<path d="M218.506 133.571C219.936 131.4 221.386 129.248 222.807 127.068C222.807 127.003 222.739 126.93 222.691 126.994C221.261 128.826 219.869 130.594 218.487 132.417C218.947 131.446 219.389 130.466 219.802 129.467C219.802 129.358 219.687 129.257 219.629 129.376C218.995 130.658 218.419 131.959 217.853 133.269C216.618 134.899 215.526 136.624 214.589 138.426C212.532 142.164 211.917 146.473 212.851 150.6C213.144 151.75 213.573 152.866 214.128 153.925C214.512 154.648 215.741 156.215 215.731 156.26C214.935 160.529 214.33 164.843 213.696 169.139C213.063 173.435 212.41 177.823 211.882 182.183C211.584 184.656 211.392 187.139 211.008 189.594C211.008 189.685 211.143 189.722 211.162 189.594C211.488 187.45 211.968 185.334 212.371 183.182C212.775 181.029 213.149 178.913 213.504 176.77C214.234 172.446 214.887 168.113 215.54 163.781C215.914 161.326 216.317 158.88 216.605 156.453C216.184 155.523 215.693 154.623 215.136 153.76C214.674 152.853 214.298 151.909 214.013 150.938C213.423 148.973 213.24 146.916 213.475 144.884C213.975 140.743 216.221 137.052 218.506 133.571Z" fill="#263238"/>
<path d="M233.28 114.353C231.776 116.534 230.246 118.692 228.691 120.83C227.126 122.964 225.6 125.126 224.006 127.242V126.738L227.846 130.576L228.163 130.887L227.827 131.199C226.214 132.692 224.573 134.148 222.941 135.623L223.075 135.238C223.67 139.205 224.304 143.171 224.832 147.146C225.36 151.122 225.926 155.106 226.387 159.054C225.59 155.115 224.87 151.168 224.179 147.21C223.488 143.253 222.835 139.296 222.173 135.302V135.083L222.346 134.927C223.968 133.443 225.581 131.95 227.222 130.493V131.116L223.363 127.324L223.123 127.077L223.325 126.811C224.938 124.713 226.618 122.652 228.25 120.573C229.882 118.494 231.581 116.396 233.28 114.353Z" fill="#A6A6A6"/>
<path d="M250.445 123.724C254.813 129.22 274.512 151.048 275.76 152.972C276.605 154.264 271.853 160.355 271.92 161.216C272.343 164.788 280.051 187.716 283.239 185.215C287.434 181.936 306.749 159.082 303.946 149.244C301.143 139.406 257.165 115.773 250.407 113.859C243.648 111.944 246.125 118.347 250.445 123.724Z" fill="#AD6359"/>
<path d="M275.251 153.274C275.251 151.882 252.211 128.478 247.978 120.656C243.744 112.833 245.894 111.166 256.704 116.185C267.514 121.205 300.701 139.589 304.637 148.731C308.573 157.873 286.973 182.998 286.973 182.998L271.862 158.734C271.862 158.734 275.232 154.419 275.251 153.274Z" fill="#EBEBEB"/>
<path d="M289.92 176C284.707 166.758 277.766 157.799 276.672 156.16C276.614 156.077 276.489 156.16 276.547 156.242C277.709 157.799 284.486 168.865 289.785 176.092C289.814 176.174 289.92 176.092 289.92 176Z" fill="#263238"/>
<path d="M266.698 143.153C265.738 142.017 264.835 140.853 263.818 139.736C262.8 138.618 261.802 137.482 260.774 136.374C258.707 134.121 256.602 131.904 254.458 129.724C254.458 129.724 254.371 129.724 254.4 129.724C255.501 131.055 256.618 132.368 257.75 133.663C257.04 133.095 256.282 132.573 255.514 132.069C255.514 132.069 255.446 132.069 255.514 132.124C256.176 132.747 256.867 133.36 257.587 133.956L258.643 134.78C258.741 134.862 258.844 134.938 258.95 135.009C259.411 135.531 259.91 136.053 260.323 136.566C261.283 137.693 262.33 138.82 263.366 139.928C264.403 141.037 265.536 142.127 266.611 143.244C266.64 143.299 266.755 143.217 266.698 143.153Z" fill="#263238"/>
<path d="M269.462 191.224C267.216 189.392 270.787 187.899 270.787 187.899C270.787 187.899 265.114 188.815 263.568 186.067C262.022 183.319 266.448 181.771 266.774 181.652C266.477 181.698 261.245 182.431 259.987 179.499C258.73 176.568 263.376 175.542 263.683 175.478C263.386 175.478 259.45 174.837 259.027 172.41C258.307 168.233 269.722 169.039 272.467 166.84C272.467 166.84 272.016 161.344 271.949 161.225C272.534 162.496 273.548 163.544 274.829 164.202C277.21 165.118 279.37 165.769 280.234 167.005C280.627 167.546 280.831 168.192 280.815 168.851C280.8 169.509 280.566 170.146 280.147 170.669C280.147 170.669 283.296 170.669 284.362 172.95C284.899 174.113 283.402 175.982 283.402 175.982C284.114 176.02 284.802 176.245 285.389 176.631C285.977 177.017 286.442 177.55 286.733 178.171C287.395 179.82 285.773 181.441 285.773 181.441C285.773 181.441 288.144 182.614 288.23 184.51C288.518 188.385 274.282 195.172 269.462 191.224Z" fill="#AD6359"/>
<path d="M285.657 181.78C285.705 181.78 285.744 181.78 285.705 181.844C281.444 185.312 276.177 187.459 270.605 188C270.422 188 270.326 187.743 270.518 187.698C275.838 186.435 280.938 184.441 285.657 181.78Z" fill="#263238"/>
<path d="M283.546 176.028C283.603 176.028 283.651 176.074 283.603 176.119C278.862 179.895 272.864 181.932 266.688 181.863C266.477 181.863 266.285 181.643 266.535 181.634C270.72 181.496 279.159 178.62 283.546 176.028Z" fill="#263238"/>
<path d="M263.251 175.332C269.29 175.332 274.723 173.5 280.023 170.871C280.09 170.871 280.128 170.935 280.08 170.971C277.863 172.941 274.32 174.296 271.44 175.121C268.798 175.938 265.978 176.08 263.261 175.533C263.136 175.506 263.117 175.332 263.251 175.332Z" fill="#263238"/>
<path d="M286.022 181.487C286.57 181.062 286.985 180.501 287.22 179.866C287.455 179.231 287.503 178.546 287.357 177.887C287.155 177.257 286.722 176.718 286.138 176.367C285.42 176.038 284.629 175.881 283.834 175.909C284.338 175.371 284.662 174.7 284.761 173.985C284.86 173.269 284.731 172.541 284.39 171.897C283.998 171.329 283.394 170.926 282.701 170.77C281.9 170.61 281.08 170.551 280.262 170.596C280.643 170.261 280.935 169.844 281.115 169.381C281.295 168.918 281.358 168.421 281.299 167.93C281.213 167.392 280.995 166.881 280.661 166.44C280.327 165.999 279.887 165.64 279.379 165.393C278.188 164.825 276.932 164.391 275.635 164.101C274.967 163.932 274.322 163.686 273.715 163.369C273.178 163.057 272.419 162.453 272.342 161.839C272.342 161.711 272.141 161.793 272.208 161.839C272.469 162.259 272.755 162.666 273.062 163.057C273.424 163.432 273.838 163.759 274.291 164.028C275.432 164.586 276.613 165.067 277.824 165.466C278.884 165.854 279.776 166.57 280.358 167.5C280.619 167.986 280.733 168.531 280.685 169.075C280.638 169.619 280.431 170.14 280.09 170.578C280.08 170.589 280.074 170.602 280.073 170.617C280.071 170.631 280.075 170.646 280.082 170.658C280.089 170.671 280.1 170.682 280.113 170.688C280.127 170.695 280.142 170.698 280.157 170.697C280.888 170.771 281.607 170.931 282.298 171.173C282.866 171.389 283.354 171.762 283.699 172.245C284.004 172.836 284.14 173.494 284.092 174.152C284.045 174.81 283.817 175.444 283.43 175.991C284.21 176.139 284.957 176.415 285.638 176.806C286.078 177.128 286.412 177.564 286.598 178.061C286.808 178.63 286.847 179.244 286.712 179.833C286.576 180.422 286.271 180.963 285.83 181.395V181.441C285.83 181.441 286.579 181.844 286.618 181.853C286.656 181.863 286.618 181.853 286.618 181.808C286.425 181.691 286.227 181.584 286.022 181.487Z" fill="#263238"/>
<path d="M246.864 113.914C248.026 116.268 249.168 118.64 250.272 121.022C251.376 123.404 252.499 125.776 253.555 128.176L253.69 128.478L253.402 128.661L248.803 131.629L248.938 131.015C250.186 132.793 251.395 134.597 252.614 136.402L252.73 136.576L252.672 136.768C251.434 140.432 250.243 144.096 248.957 147.696C247.67 151.296 246.394 154.96 245.04 158.569C246.077 154.859 247.181 151.177 248.314 147.503C249.446 143.83 250.627 140.175 251.798 136.511V136.878C250.56 135.046 249.322 133.305 248.112 131.501L247.853 131.125L248.237 130.887L252.893 128.002L252.739 128.487C251.693 126.078 250.733 123.642 249.715 121.223C248.698 118.805 247.805 116.332 246.864 113.914Z" fill="#A6A6A6"/>
<path d="M251.76 118.448C251.52 113.117 244.56 111.725 240.346 111.615C235.344 111.486 232.119 112.228 230.275 117.028C228.355 122.094 227.674 127.809 227.309 133.168C227.297 133.375 227.201 133.568 227.039 133.707C226.878 133.845 226.666 133.916 226.45 133.905C226.233 133.895 226.03 133.802 225.885 133.648C225.74 133.495 225.665 133.292 225.677 133.086C226.099 126.912 226.416 115.443 232.349 111.486C237.821 107.822 252.989 109.489 253.392 118.53C253.392 119.529 251.799 119.446 251.76 118.448Z" fill="#455A64"/>
<path d="M222.586 135.889C222.549 136.596 222.732 137.298 223.113 137.906C223.495 138.514 224.056 139 224.727 139.304C225.398 139.607 226.148 139.714 226.882 139.611C227.617 139.507 228.303 139.198 228.853 138.723C229.404 138.248 229.794 137.627 229.975 136.94C230.156 136.253 230.119 135.531 229.87 134.863C229.62 134.196 229.169 133.615 228.573 133.192C227.977 132.77 227.263 132.526 226.522 132.49C225.529 132.448 224.558 132.781 223.821 133.417C223.084 134.054 222.64 134.942 222.586 135.889Z" fill="#263238"/>
<path d="M224.083 135.962C224.061 136.387 224.172 136.809 224.4 137.174C224.629 137.539 224.967 137.831 225.369 138.014C225.772 138.196 226.223 138.26 226.664 138.199C227.105 138.137 227.517 137.952 227.848 137.667C228.179 137.381 228.414 137.009 228.524 136.597C228.633 136.184 228.612 135.75 228.463 135.349C228.314 134.948 228.043 134.598 227.686 134.344C227.328 134.089 226.9 133.941 226.455 133.919C226.158 133.903 225.861 133.943 225.581 134.038C225.3 134.132 225.043 134.278 224.822 134.468C224.602 134.658 224.423 134.888 224.296 135.144C224.169 135.401 224.097 135.679 224.083 135.962Z" fill="#EBEBEB"/>
<path d="M248.045 135.623C245.664 150.929 246.72 154.493 248.208 156.068C249.325 157.15 250.688 157.971 252.192 158.468L252.557 157.433C251.236 156.986 250.038 156.26 249.053 155.308C247.978 154.172 246.816 150.911 249.168 135.76L248.045 135.623Z" fill="#C7C7C7"/>
<path d="M250.82 157.204L250.705 157.466C250.478 157.985 250.735 158.58 251.278 158.796L252.952 159.463C253.495 159.68 254.119 159.435 254.346 158.917L254.461 158.655C254.687 158.137 254.431 157.541 253.888 157.325L252.214 156.658C251.67 156.441 251.046 156.686 250.82 157.204Z" fill="#263238"/>
<path d="M258.24 134.918C262.627 145.8 264.087 151.854 262.829 153.98C262.086 155.112 261.085 156.07 259.901 156.783L260.487 157.699C261.837 156.884 262.976 155.788 263.818 154.493C265.315 151.964 264.01 146.175 259.306 134.515L258.24 134.918Z" fill="#C7C7C7"/>
<path d="M258.318 158.317L258.49 158.549C258.83 159.008 259.495 159.117 259.975 158.793L261.457 157.793C261.937 157.469 262.051 156.835 261.712 156.376L261.54 156.144C261.2 155.686 260.535 155.577 260.054 155.901L258.573 156.9C258.092 157.224 257.978 157.859 258.318 158.317Z" fill="#263238"/>
<path d="M259.651 134.02C258.846 131.593 257.884 129.216 256.771 126.903C256.154 125.895 255.266 125.063 254.198 124.494C253.977 124.494 253.853 122.597 253.785 121.04C253.737 119.675 253.699 118.072 253.305 117.669C253.084 117.49 252.798 117.399 252.509 117.416C252.219 117.433 251.947 117.557 251.75 117.761C251.405 118.201 251.568 119.794 251.673 121.159C251.798 122.716 251.913 124.613 251.673 124.631C250.768 125.359 250.058 126.282 249.6 127.324C248.78 129.809 248.16 132.351 247.747 134.927C247.574 136.557 248.141 136.695 248.64 136.805C249.341 136.951 249.725 136.466 250.051 134.652C250.569 131.767 251.088 126.948 253.123 126.747C255.168 126.747 256.569 131.62 257.539 134.331C258.144 136.026 258.499 136.163 259.229 135.925C259.67 135.779 260.16 135.568 259.651 134.02Z" fill="#263238"/>
<path d="M244.934 113.584C244.56 114.5 240.883 120.646 236.294 120.646C233.414 120.646 234.106 111.184 234.106 111.184V110.598L233.434 102.354L244.186 97.6823L245.722 97.0777C245.722 97.0777 245.722 99.3494 245.722 102.171V102.592C245.722 102.757 245.722 102.903 245.722 103.05C245.722 103.471 245.722 103.902 245.722 104.332C245.722 104.763 245.722 104.983 245.722 105.322C245.722 105.661 245.722 106 245.722 106.348C245.631 108.774 245.368 111.192 244.934 113.584Z" fill="#AD6359"/>
<path d="M245.702 102.171C244.517 104.299 242.861 106.156 240.849 107.613C238.836 109.07 236.516 110.091 234.048 110.607L233.376 102.363L244.128 97.6914L245.664 97.0869C245.664 97.0869 245.693 99.3494 245.702 102.171Z" fill="#263238"/>
<path d="M222.566 90.0703C221.146 104.534 230.074 106.98 233.338 107.264C236.304 107.529 246.442 108.051 249.418 93.8075C252.394 79.5637 245.76 74.3609 239.04 73.4265C232.32 72.4922 223.978 75.6066 222.566 90.0703Z" fill="#AD6359"/>
<path d="M227.52 86.8551C227.866 86.8157 228.209 86.7576 228.547 86.6811C228.923 86.6713 229.284 86.5424 229.575 86.3147C229.649 86.2245 229.689 86.1132 229.689 85.9987C229.689 85.8841 229.649 85.7729 229.575 85.6826C229.409 85.5194 229.201 85.4012 228.971 85.34C228.742 85.2789 228.5 85.277 228.269 85.3346C227.781 85.388 227.331 85.6095 227.002 85.9574C226.932 86.0436 226.89 86.1474 226.882 86.2559C226.873 86.3645 226.898 86.4731 226.953 86.5685C227.008 86.6638 227.091 86.7418 227.192 86.7927C227.292 86.8436 227.407 86.8653 227.52 86.8551Z" fill="#263238"/>
<path d="M237.907 87.2398C237.563 87.1757 237.224 87.0932 236.889 86.9925C236.53 86.9498 236.194 86.799 235.929 86.562C235.857 86.4711 235.818 86.3601 235.818 86.246C235.818 86.1318 235.857 86.0208 235.929 85.9299C236.108 85.7777 236.326 85.6737 236.56 85.6286C236.795 85.5835 237.038 85.599 237.264 85.6735C237.746 85.7594 238.178 86.0142 238.473 86.3879C238.537 86.4766 238.571 86.581 238.573 86.6882C238.575 86.7955 238.544 86.9008 238.484 86.9914C238.423 87.082 238.337 87.1537 238.234 87.1979C238.132 87.242 238.018 87.2566 237.907 87.2398Z" fill="#263238"/>
<path d="M235.584 90.8306C235.584 90.8306 235.661 90.8306 235.661 90.9222C235.565 91.9023 235.661 93.0473 236.544 93.432C236.544 93.432 236.544 93.4961 236.544 93.487C235.402 93.2671 235.334 91.7466 235.584 90.8306Z" fill="#263238"/>
<path d="M236.573 89.8505C238.253 89.8505 238.176 93.0198 236.631 93.0381C235.085 93.0565 235.2 89.8688 236.573 89.8505Z" fill="#263238"/>
<path d="M237.226 90.0337C237.514 90.2169 237.792 90.5466 238.186 90.5833C238.579 90.6199 238.906 90.3085 239.146 89.9879H239.203C239.203 90.6016 238.935 91.2245 238.243 91.2977C237.552 91.371 237.178 90.8214 237.034 90.1985C237.005 90.1253 237.12 89.9604 237.226 90.0337Z" fill="#263238"/>
<path d="M229.334 90.5374C229.334 90.5374 229.248 90.5374 229.248 90.629C229.248 91.6183 229.114 92.7541 228.173 93.0656C228.173 93.0656 228.173 93.1297 228.173 93.1205C229.325 92.9831 229.517 91.4717 229.334 90.5374Z" fill="#263238"/>
<path d="M228.422 89.4932C226.752 89.3558 226.579 92.5435 228.125 92.6717C229.67 92.8 229.814 89.6123 228.422 89.4932Z" fill="#263238"/>
<path d="M227.712 89.6672C227.443 89.823 227.165 90.1161 226.848 90.1252C226.531 90.1344 226.224 89.768 226.013 89.4291C226.013 89.4291 225.965 89.4291 225.955 89.4291C225.907 90.0428 226.08 90.684 226.685 90.8306C227.29 90.9771 227.645 90.4642 227.866 89.9146C227.904 89.768 227.827 89.6031 227.712 89.6672Z" fill="#263238"/>
<path d="M234.739 98.699C234.499 98.9371 234.259 99.2577 233.885 99.2944C233.502 99.295 233.123 99.2202 232.771 99.0746C232.771 99.0746 232.704 99.0746 232.723 99.0746C232.875 99.2664 233.078 99.4154 233.311 99.5057C233.545 99.596 233.799 99.6243 234.048 99.5875C234.261 99.5282 234.451 99.4092 234.593 99.246C234.735 99.0827 234.823 98.8826 234.845 98.6715C234.864 98.6807 234.778 98.6623 234.739 98.699Z" fill="#263238"/>
<path d="M230.535 94.98C230.535 94.98 230.275 96.4548 230.247 97.1509C230.247 97.215 230.419 97.2517 230.669 97.27C231.292 97.3977 231.939 97.3593 232.54 97.1589C233.141 96.9585 233.673 96.604 234.077 96.1342C234.135 96.07 234.077 95.9968 233.981 96.0334C233.028 96.6151 231.903 96.8851 230.775 96.8029C230.775 96.6105 231.322 94.3022 231.207 94.2839C230.638 94.319 230.077 94.4237 229.536 94.5953C229.997 91.5175 230.967 88.5405 231.379 85.4353C231.379 85.411 231.369 85.3877 231.351 85.3705C231.333 85.3533 231.309 85.3437 231.283 85.3437C231.258 85.3437 231.234 85.3533 231.216 85.3705C231.198 85.3877 231.187 85.411 231.187 85.4353C230.043 88.5991 229.232 91.864 228.768 95.1815C228.72 95.5663 230.247 95.0899 230.535 94.98Z" fill="#263238"/>
<path d="M231.168 96.9128C231.521 97.4281 232.007 97.8478 232.579 98.1311C232.879 98.2619 233.213 98.3064 233.539 98.2593C234.298 98.1311 234.365 97.4899 234.269 96.922C234.224 96.6072 234.137 96.2993 234.01 96.006C233.188 96.5898 232.192 96.9076 231.168 96.9128Z" fill="#263238"/>
<path d="M232.579 98.1311C232.879 98.2619 233.213 98.3064 233.539 98.2593C234.298 98.1311 234.365 97.4899 234.269 96.922C233.887 96.9184 233.515 97.0349 233.209 97.2535C232.904 97.472 232.682 97.7804 232.579 98.1311Z" fill="#FF9CBD"/>
<path d="M223.459 84.959C225.245 85.5086 231.61 81.7347 234.163 76.3028C234.608 79.4667 236.197 82.3829 238.656 84.5468C242.803 88.2108 246.739 88.4856 246.739 88.4856C246.739 88.4856 247.968 95.0259 249.101 95.1724C250.234 95.319 257.367 72.9228 237.418 72.6663C237.418 72.6663 231.581 72.1075 227.933 75.3593C224.285 78.6111 223.459 84.959 223.459 84.959Z" fill="#263238"/>
<path d="M246.902 93.2763C246.902 93.2763 250.253 88.7696 252.403 89.9054C254.554 91.0413 252.01 97.609 249.466 98.4975C249.148 98.6317 248.806 98.7032 248.459 98.7077C248.112 98.7123 247.767 98.6498 247.446 98.524C247.125 98.3982 246.834 98.2117 246.59 97.9757C246.347 97.7398 246.156 97.4592 246.029 97.151L246.902 93.2763Z" fill="#AD6359"/>
<path d="M251.625 91.774C251.625 91.774 251.673 91.774 251.625 91.8382C249.849 92.516 248.899 94.0732 248.237 95.7037C248.341 95.5344 248.483 95.3888 248.652 95.2768C248.821 95.1649 249.013 95.0893 249.216 95.0553C249.418 95.0213 249.626 95.0298 249.825 95.08C250.024 95.1303 250.209 95.2212 250.368 95.3464C250.416 95.3464 250.368 95.4472 250.32 95.4289C250.008 95.3353 249.673 95.3352 249.361 95.4286C249.048 95.5219 248.773 95.7042 248.573 95.951C248.24 96.3658 247.957 96.8143 247.728 97.2884C247.641 97.4441 247.354 97.3616 247.421 97.1876C247.411 94.9892 249.197 91.9756 251.625 91.774Z" fill="#263238"/>
<path d="M234.019 113.465C233.357 113.795 234.327 125.574 234.749 126.234C234.903 126.481 243.005 120.372 245.703 112.494C245.703 112.521 240.96 110.039 234.019 113.465Z" fill="#AD6359"/>
<path d="M219.813 137.051L182.854 148.028L197.828 193.927L234.786 182.951L219.813 137.051Z" fill="#455A64"/>
<path d="M193.306 147.892L210.816 142.669L209.157 137.607L191.648 142.83L193.306 147.892Z" fill="#A6A6A6"/>
<path d="M195.629 141.641L197.789 141L197.021 138.664L202.262 137.098L203.03 139.433L205.181 138.792L203.789 134.542L194.208 137.4L195.629 141.641Z" fill="#A6A6A6"/>
<path d="M226.973 154.538C227.543 155.095 227.921 155.805 228.057 156.573C228.193 157.341 228.079 158.13 227.731 158.834C229.089 159.102 230.304 159.815 231.168 160.85C232.599 162.737 230.122 165.714 230.122 165.714C231.47 166.27 232.611 167.202 233.395 168.388C234.576 170.321 232.531 173.664 232.531 173.664C233.472 174.831 233.942 176.28 233.856 177.75C233.463 181.661 227.827 184.336 224.256 186.076C220.685 187.817 208.896 189.566 206.679 190.116L194.784 168.397C194.784 168.397 208.435 156.27 212.928 154.795C216.72 153.549 224.707 152.487 226.973 154.538Z" fill="#AD6359"/>
<path d="M196.407 166.987C192.336 169.973 180.087 181.469 182.967 187.322C185.847 193.175 195.677 192.589 209.28 189.612L196.407 166.987Z" fill="#AD6359"/>
<path d="M196.407 166.987C192.336 169.973 179.472 181.194 182.727 188.714C185.319 194.687 196.877 195.41 210.519 192.378L196.407 166.987Z" fill="#EBEBEB"/>
<path d="M203.52 192.626C199.258 182.962 193.229 173.39 192.308 171.677C192.305 171.666 192.299 171.655 192.291 171.647C192.283 171.638 192.273 171.631 192.262 171.627C192.251 171.622 192.239 171.621 192.227 171.622C192.215 171.623 192.203 171.626 192.193 171.632C192.183 171.638 192.174 171.646 192.168 171.656C192.161 171.666 192.157 171.677 192.157 171.689C192.156 171.7 192.157 171.712 192.162 171.722C192.166 171.733 192.174 171.742 192.183 171.75C193.143 173.408 198.816 185.032 203.376 192.717C203.415 192.8 203.52 192.726 203.52 192.626Z" fill="#263238"/>
<path d="M227.376 158.569C223.027 158.963 219.034 160.575 214.954 161.967C214.936 161.973 214.921 161.986 214.913 162.002C214.905 162.018 214.904 162.037 214.91 162.054C214.917 162.071 214.93 162.085 214.947 162.093C214.964 162.1 214.984 162.101 215.002 162.095C219.043 160.676 223.334 160.025 227.424 158.761C227.446 158.751 227.464 158.735 227.475 158.714C227.486 158.693 227.489 158.669 227.483 158.646C227.477 158.623 227.463 158.603 227.444 158.589C227.424 158.575 227.4 158.568 227.376 158.569Z" fill="#263238"/>
<path d="M229.901 165.466C228.919 165.652 227.967 165.96 227.069 166.382C226.109 166.776 225.149 167.17 224.189 167.591C222.269 168.425 220.349 169.295 218.477 170.229C218.39 170.229 218.477 170.403 218.477 170.358C220.397 169.533 222.317 168.736 224.294 167.985C225.254 167.61 226.214 167.243 227.242 166.886C228.193 166.597 229.111 166.214 229.978 165.741C230.016 165.731 230.048 165.708 230.068 165.675C230.088 165.642 230.093 165.603 230.083 165.567C230.073 165.531 230.048 165.499 230.014 165.481C229.98 165.462 229.939 165.457 229.901 165.466Z" fill="#263238"/>
<path d="M232.445 173.692C231.564 173.859 230.72 174.169 229.949 174.608L227.328 175.78C225.581 176.559 223.834 177.328 222.058 178.052C221.971 178.052 222.058 178.217 222.106 178.18C223.92 177.466 225.735 176.77 227.539 176.037L230.189 174.938C231.024 174.669 231.804 174.263 232.493 173.738C232.493 173.738 232.493 173.692 232.445 173.692Z" fill="#263238"/>
<path d="M195.84 167.188C194.413 168.192 193.059 169.287 191.789 170.468L190.829 171.384L190.416 171.64C189.84 172.006 189.264 172.382 188.727 172.794C187.684 173.604 186.697 174.476 185.77 175.405C185.703 175.478 185.77 175.57 185.885 175.506C186.898 174.635 187.98 173.838 189.12 173.124L189.562 172.84C189.024 173.399 188.506 173.976 188.026 174.571C186.731 176.152 185.538 177.807 184.455 179.527C184.407 179.609 184.541 179.673 184.589 179.591C186.576 176.55 195.235 168.416 196.186 167.436C197.136 166.456 196.589 166.63 195.84 167.188Z" fill="#263238"/>
<path d="M328.32 100.11C322.235 107.874 314.473 114.299 305.558 118.952C296.652 114.296 288.897 107.871 282.816 100.11C274.81 90.0336 275.203 74.1594 286.656 70.7335C299.366 66.9504 305.587 85.188 305.587 85.188C305.587 85.188 311.914 66.868 324.499 70.7793C335.923 74.2784 336.355 89.997 328.32 100.11Z" fill="#80BBDA"/>
<path d="M296.65 110.955L293.203 97.2334L290.947 102.07H276.989V100.522H289.891L293.654 92.4335L296.352 103.132L300.163 80.9652L303.523 98.4974L306.182 91.1786L310.368 103.16L311.299 100.513H334.214V102.061H312.461L310.368 108.051L306.154 95.9876L303.034 104.58L300.25 90.0336L296.65 110.955Z" fill="white"/>
<path d="M400.425 333.351V347.384H394.55V339.396H374.189V347.384H368.313V333.351H400.425Z" fill="#80BBDA"/>
<path opacity="0.1" d="M374.189 341.21H368.313V347.384H374.189V341.21Z" fill="black"/>
<path opacity="0.1" d="M400.425 341.21H394.55V347.384H400.425V341.21Z" fill="black"/>
<path d="M427.92 396.271H340.838L345.638 344.297H423.12L427.92 396.271Z" fill="#80BBDA"/>
<path opacity="0.1" d="M384.384 396.271H340.838L345.638 344.297H384.384V396.271Z" fill="black"/>
<path d="M397.786 367.261V373.307H387.552V383.071H381.216V373.307H370.982V367.261H381.216V357.496H387.552V367.261H397.786Z" fill="#FFFFFD"/>
</svg>
