<svg width="65" height="65" viewBox="0 0 65 65" fill="none" xmlns="http://www.w3.org/2000/svg">
<g clip-path="url(#clip0_12_227)">
<path d="M64.9986 32.6984C64.9986 14.6365 50.4467 -0.00474548 32.4986 -0.00474548C14.5423 -0.000682984 -0.00952148 14.6365 -0.00952148 32.7024C-0.00952148 49.0215 11.8774 62.5496 27.4123 65.0034V42.1518H19.1655V32.7024H27.4205V25.4915C27.4205 17.2974 32.2752 12.7718 39.6973 12.7718C43.2561 12.7718 46.9733 13.4096 46.9733 13.4096V21.4534H42.8742C38.8402 21.4534 37.5808 23.9762 37.5808 26.564V32.6984H46.5914L45.1533 42.1478H37.5767V64.9993C53.1117 62.5456 64.9986 49.0174 64.9986 32.6984Z" fill="#455A64"/>
</g>
<defs>
<clipPath id="clip0_12_227">
<rect width="65" height="65" fill="white"/>
</clipPath>
</defs>
</svg>
