<svg width="100" height="100" viewBox="0 0 100 100" fill="none" xmlns="http://www.w3.org/2000/svg">
<path d="M37.5 65.625C37.5 64.7962 37.8292 64.0013 38.4153 63.4153C39.0013 62.8292 39.7962 62.5 40.625 62.5H59.375C60.2038 62.5 60.9987 62.8292 61.5847 63.4153C62.1708 64.0013 62.5 64.7962 62.5 65.625C62.5 66.4538 62.1708 67.2487 61.5847 67.8347C60.9987 68.4208 60.2038 68.75 59.375 68.75H40.625C39.7962 68.75 39.0013 68.4208 38.4153 67.8347C37.8292 67.2487 37.5 66.4538 37.5 65.625ZM25 46.875C25 46.0462 25.3292 45.2513 25.9153 44.6653C26.5013 44.0792 27.2962 43.75 28.125 43.75H71.875C72.7038 43.75 73.4987 44.0792 74.0847 44.6653C74.6708 45.2513 75 46.0462 75 46.875C75 47.7038 74.6708 48.4987 74.0847 49.0847C73.4987 49.6708 72.7038 50 71.875 50H28.125C27.2962 50 26.5013 49.6708 25.9153 49.0847C25.3292 48.4987 25 47.7038 25 46.875ZM12.5 28.125C12.5 27.2962 12.8292 26.5013 13.4153 25.9153C14.0013 25.3292 14.7962 25 15.625 25H84.375C85.2038 25 85.9987 25.3292 86.5847 25.9153C87.1708 26.5013 87.5 27.2962 87.5 28.125C87.5 28.9538 87.1708 29.7487 86.5847 30.3347C85.9987 30.9208 85.2038 31.25 84.375 31.25H15.625C14.7962 31.25 14.0013 30.9208 13.4153 30.3347C12.8292 29.7487 12.5 28.9538 12.5 28.125Z" fill="black"/>
</svg>
