<svg width="65" height="65" viewBox="0 0 65 65" fill="none" xmlns="http://www.w3.org/2000/svg">
<g clip-path="url(#clip0_12_221)">
<path d="M0 32.5C0 23.8805 3.4241 15.614 9.51903 9.51903C15.614 3.4241 23.8805 0 32.5 0C41.1195 0 49.386 3.4241 55.481 9.51903C61.5759 15.614 65 23.8805 65 32.5C65 41.1195 61.5759 49.386 55.481 55.481C49.386 61.5759 41.1195 65 32.5 65C23.8805 65 15.614 61.5759 9.51903 55.481C3.4241 49.386 0 41.1195 0 32.5ZM30.4688 4.37531C27.7469 5.20406 25.0453 7.70656 22.8028 11.9112C22.064 13.3091 21.4285 14.7593 20.9016 16.25H30.4688V4.37531ZM16.6156 16.25C17.2927 14.0921 18.1629 11.9995 19.2156 9.99781C19.9181 8.6696 20.7293 7.40183 21.6409 6.2075C16.6075 8.29492 12.2769 11.7797 9.16094 16.25H16.6156ZM14.2512 30.4688C14.3731 26.9059 14.8119 23.4894 15.5187 20.3125H6.80063C5.28579 23.5018 4.38187 26.9466 4.13563 30.4688H14.2512ZM19.6909 20.3125C18.8919 23.6429 18.4319 27.0457 18.3178 30.4688H30.4688V20.3125H19.6909ZM34.5312 20.3125V30.4688H46.6781C46.5656 27.0458 46.1069 23.6431 45.3091 20.3125H34.5312ZM18.3219 34.5312C18.4346 37.9542 18.8933 41.3569 19.6909 44.6875H30.4688V34.5312H18.3219ZM34.5312 34.5312V44.6875H45.3091C46.0687 41.5797 46.5522 38.155 46.6822 34.5312H34.5312ZM20.9016 48.75C21.4622 50.3181 22.1 51.7725 22.8028 53.0887C25.0453 57.2934 27.7509 59.7919 30.4688 60.6247V48.75H20.9016ZM21.6409 58.7925C20.7292 57.5982 19.918 56.3304 19.2156 55.0022C18.1629 53.0004 17.2928 50.9079 16.6156 48.75H9.16094C12.2767 53.2204 16.6074 56.7053 21.6409 58.7925ZM15.5187 44.6875C14.7841 41.3484 14.3598 37.9485 14.2512 34.5312H4.13563C4.3875 38.1469 5.31781 41.5716 6.80063 44.6875H15.5187ZM43.3591 58.7925C48.3926 56.7053 52.7233 53.2204 55.8391 48.75H48.3844C47.7072 50.9079 46.837 53.0004 45.7844 55.0022C45.0821 56.3305 44.2709 57.5983 43.3591 58.7925ZM34.5312 48.75V60.6247C37.2531 59.7959 39.9547 57.2934 42.1972 53.0887C42.9 51.7725 43.5378 50.3181 44.0984 48.75H34.5312ZM49.4813 44.6875H58.1994C59.6822 41.5716 60.6125 38.1469 60.8644 34.5312H50.7487C50.6402 37.9485 50.2159 41.3484 49.4813 44.6875ZM60.8644 30.4688C60.618 26.9466 59.7141 23.5018 58.1994 20.3125H49.4813C50.1881 23.4894 50.6269 26.9059 50.7487 30.4688H60.8644ZM45.7844 9.99781C46.7878 11.8828 47.6612 13.9791 48.3844 16.25H55.8391C52.7233 11.7796 48.3926 8.29472 43.3591 6.2075C44.2447 7.36125 45.0572 8.63687 45.7844 9.99781ZM44.0984 16.25C43.5715 14.7592 42.9361 13.3091 42.1972 11.9112C39.9547 7.70656 37.2531 5.20813 34.5312 4.37531V16.25H44.0984Z" fill="#455A64"/>
</g>
<defs>
<clipPath id="clip0_12_221">
<rect width="65" height="65" fill="white"/>
</clipPath>
</defs>
</svg>
