<svg width="35" height="39" viewBox="0 0 35 39" fill="none" xmlns="http://www.w3.org/2000/svg">
<path d="M17.1136 13.42L7.77849 21.9873V31.2338C7.77849 31.4732 7.86384 31.7029 8.01577 31.8721C8.16769 32.0414 8.37375 32.1365 8.58861 32.1365L14.2625 32.1202C14.4767 32.119 14.6817 32.0234 14.8327 31.8542C14.9838 31.685 15.0686 31.4561 15.0686 31.2175V25.8176C15.0686 25.5782 15.1539 25.3486 15.3059 25.1793C15.4578 25.01 15.6638 24.9149 15.8787 24.9149H19.1192C19.3341 24.9149 19.5401 25.01 19.692 25.1793C19.844 25.3486 19.9293 25.5782 19.9293 25.8176V31.2135C19.929 31.3323 19.9497 31.45 19.9903 31.5598C20.0308 31.6697 20.0904 31.7695 20.1657 31.8537C20.241 31.9378 20.3304 32.0045 20.4288 32.0501C20.5273 32.0956 20.6328 32.119 20.7394 32.119L26.4113 32.1365C26.6262 32.1365 26.8322 32.0414 26.9842 31.8721C27.1361 31.7029 27.2214 31.4732 27.2214 31.2338V21.9811L17.8883 13.42C17.7786 13.3215 17.6419 13.2677 17.501 13.2677C17.36 13.2677 17.2234 13.3215 17.1136 13.42ZM31.8594 19.243L27.6265 15.3552V7.54056C27.6265 7.361 27.5625 7.18879 27.4485 7.06182C27.3346 6.93486 27.18 6.86353 27.0189 6.86353H24.1835C24.0223 6.86353 23.8678 6.93486 23.7538 7.06182C23.6399 7.18879 23.5759 7.361 23.5759 7.54056V11.6372L19.0427 7.48132C18.6077 7.08242 18.0618 6.86432 17.4984 6.86432C16.9351 6.86432 16.3892 7.08242 15.9541 7.48132L3.1375 19.243C3.07597 19.2997 3.02507 19.3693 2.9877 19.4479C2.95033 19.5265 2.92722 19.6125 2.9197 19.7011C2.91217 19.7896 2.92038 19.879 2.94385 19.964C2.96732 20.049 3.0056 20.128 3.05648 20.1965L4.34762 21.9455C4.39837 22.0143 4.46079 22.0712 4.53131 22.1131C4.60183 22.1549 4.67907 22.1808 4.7586 22.1894C4.83813 22.1979 4.91839 22.1889 4.99478 22.1628C5.07118 22.1368 5.14221 22.0942 5.20382 22.0375L17.1136 11.1068C17.2234 11.0083 17.36 10.9545 17.501 10.9545C17.6419 10.9545 17.7786 11.0083 17.8883 11.1068L29.7986 22.0375C29.8601 22.0942 29.9311 22.1368 30.0073 22.163C30.0836 22.1891 30.1638 22.1983 30.2433 22.1899C30.3227 22.1815 30.3999 22.1558 30.4705 22.1141C30.541 22.0725 30.6035 22.0158 30.6543 21.9472L31.9455 20.1982C31.9963 20.1293 32.0344 20.0499 32.0576 19.9645C32.0808 19.8791 32.0886 19.7895 32.0806 19.7007C32.0726 19.6119 32.049 19.5258 32.011 19.4473C31.973 19.3687 31.9215 19.2993 31.8594 19.243Z" fill="#444B59"/>
</svg>
