<svg width="65" height="65" viewBox="0 0 65 65" fill="none" xmlns="http://www.w3.org/2000/svg">
<g clip-path="url(#clip0_12_229)">
<path d="M32.5 0C23.6803 0 22.5713 0.040625 19.1059 0.195C15.6406 0.3575 13.2803 0.901875 11.2125 1.70625C9.04351 2.52208 7.07887 3.80179 5.45594 5.45594C3.80281 7.0797 2.52325 9.0441 1.70625 11.2125C0.901875 13.2763 0.353438 15.6406 0.195 19.0937C0.040625 22.5672 0 23.6722 0 32.5041C0 41.3278 0.040625 42.4328 0.195 45.8981C0.3575 49.3594 0.901875 51.7197 1.70625 53.7875C2.53906 55.9244 3.64813 57.7362 5.45594 59.5441C7.25969 61.3519 9.07156 62.465 11.2084 63.2937C13.2803 64.0981 15.6366 64.6466 19.0978 64.805C22.5672 64.9594 23.6722 65 32.5 65C41.3278 65 42.4288 64.9594 45.8981 64.805C49.3553 64.6425 51.7238 64.0981 53.7916 63.2937C55.9592 62.4775 57.9224 61.1978 59.5441 59.5441C61.3519 57.7362 62.4609 55.9244 63.2937 53.7875C64.0941 51.7197 64.6425 49.3594 64.805 45.8981C64.9594 42.4328 65 41.3278 65 32.5C65 23.6722 64.9594 22.5672 64.805 19.0978C64.6425 15.6406 64.0941 13.2763 63.2937 11.2125C62.4769 9.04404 61.1973 7.07962 59.5441 5.45594C57.9216 3.80118 55.9568 2.52137 53.7875 1.70625C51.7156 0.901875 49.3512 0.353438 45.8941 0.195C42.4247 0.040625 41.3238 0 32.4919 0H32.5041H32.5ZM29.5872 5.85813H32.5041C41.1816 5.85813 42.2094 5.88656 45.6341 6.045C48.8028 6.18719 50.5253 6.71938 51.6709 7.16219C53.1862 7.75125 54.2709 8.45812 55.4084 9.59562C56.5459 10.7331 57.2488 11.8138 57.8378 13.3331C58.2847 14.4747 58.8128 16.1972 58.955 19.3659C59.1134 22.7906 59.1459 23.8184 59.1459 32.4919C59.1459 41.1653 59.1134 42.1972 58.955 45.6219C58.8128 48.7906 58.2806 50.5091 57.8378 51.6547C57.3168 53.0658 56.4851 54.3418 55.4044 55.3881C54.2669 56.5256 53.1863 57.2284 51.6669 57.8175C50.5294 58.2644 48.8069 58.7925 45.6341 58.9388C42.2094 59.0931 41.1816 59.1297 32.5041 59.1297C23.8266 59.1297 22.7947 59.0931 19.37 58.9388C16.2013 58.7925 14.4828 58.2644 13.3372 57.8175C11.9255 57.2972 10.6483 56.467 9.59969 55.3881C8.51805 54.3401 7.68512 53.063 7.16219 51.6506C6.71938 50.5091 6.18719 48.7866 6.045 45.6178C5.89063 42.1931 5.85813 41.1653 5.85813 32.4837C5.85813 23.8062 5.89063 22.7825 6.045 19.3578C6.19125 16.1891 6.71938 14.4666 7.16625 13.3209C7.75531 11.8056 8.46219 10.7209 9.59969 9.58344C10.7372 8.44594 11.8178 7.74313 13.3372 7.15406C14.4828 6.70719 16.2013 6.17906 19.37 6.03281C22.3681 5.89469 23.53 5.85406 29.5872 5.85V5.85813ZM49.8509 11.2531C49.3388 11.2531 48.8316 11.354 48.3585 11.55C47.8853 11.746 47.4554 12.0333 47.0932 12.3954C46.7311 12.7576 46.4438 13.1875 46.2478 13.6607C46.0518 14.1338 45.9509 14.641 45.9509 15.1531C45.9509 15.6653 46.0518 16.1724 46.2478 16.6456C46.4438 17.1188 46.7311 17.5487 47.0932 17.9108C47.4554 18.273 47.8853 18.5603 48.3585 18.7563C48.8316 18.9522 49.3388 19.0531 49.8509 19.0531C50.8853 19.0531 51.8773 18.6422 52.6087 17.9108C53.34 17.1794 53.7509 16.1875 53.7509 15.1531C53.7509 14.1188 53.34 13.1268 52.6087 12.3954C51.8773 11.664 50.8853 11.2531 49.8509 11.2531ZM32.5041 15.8112C30.2903 15.7767 28.0918 16.1829 26.0365 17.0062C23.9812 17.8295 22.1102 19.0534 20.5325 20.6067C18.9548 22.16 17.7018 24.0117 16.8465 26.0539C15.9913 28.0961 15.5508 30.288 15.5508 32.502C15.5508 34.7161 15.9913 36.908 16.8465 38.9502C17.7018 40.9924 18.9548 42.844 20.5325 44.3973C22.1102 45.9506 23.9812 47.1746 26.0365 47.9979C28.0918 48.8212 30.2903 49.2274 32.5041 49.1928C36.8856 49.1245 41.0646 47.3359 44.139 44.2132C47.2133 41.0905 48.9365 36.8841 48.9365 32.502C48.9365 28.1199 47.2133 23.9136 44.139 20.7909C41.0646 17.6682 36.8856 15.8796 32.5041 15.8112ZM32.5041 21.6653C35.3776 21.6653 38.1334 22.8068 40.1653 24.8387C42.1972 26.8706 43.3388 29.6265 43.3388 32.5C43.3388 35.3735 42.1972 38.1294 40.1653 40.1613C38.1334 42.1932 35.3776 43.3347 32.5041 43.3347C29.6305 43.3347 26.8747 42.1932 24.8428 40.1613C22.8109 38.1294 21.6694 35.3735 21.6694 32.5C21.6694 29.6265 22.8109 26.8706 24.8428 24.8387C26.8747 22.8068 29.6305 21.6653 32.5041 21.6653Z" fill="#455A64"/>
</g>
<defs>
<clipPath id="clip0_12_229">
<rect width="65" height="65" fill="white"/>
</clipPath>
</defs>
</svg>
