<svg width="811" height="624" viewBox="0 0 811 624" fill="none" xmlns="http://www.w3.org/2000/svg">
<path d="M700.964 195.012C691.349 195.015 681.95 191.727 673.955 185.564C665.961 179.4 659.729 170.639 656.049 160.388C652.369 150.137 651.405 138.857 653.28 127.974C655.155 117.091 659.785 107.094 666.583 99.2479C673.381 91.4018 682.043 86.0587 691.473 83.8946C700.902 81.7304 710.676 82.8424 719.558 87.0899C728.44 91.3373 736.031 98.5294 741.372 107.757C746.712 116.984 749.561 127.831 749.559 138.927C749.541 153.796 744.416 168.05 735.306 178.564C726.197 189.077 713.846 194.993 700.964 195.012ZM700.964 85.3258C691.777 85.3233 682.797 88.4649 675.158 94.3532C667.519 100.242 661.565 108.612 658.048 118.406C654.531 128.2 653.61 138.978 655.401 149.377C657.191 159.775 661.614 169.327 668.109 176.825C674.603 184.323 682.879 189.429 691.888 191.498C700.897 193.567 710.236 192.507 718.723 188.45C727.21 184.393 734.464 177.523 739.568 168.708C744.672 159.893 747.396 149.529 747.396 138.927C747.382 124.719 742.485 111.096 733.781 101.048C725.077 90.9996 713.275 85.3456 700.964 85.3258Z" fill="#EBEBEB"/>
<path d="M698.541 202.95C697.795 202.95 697.06 202.862 696.379 202.788L696.552 200.292C697.255 200.354 697.968 200.404 698.714 200.441L698.541 202.95ZM706.273 202.725L706.078 200.229C706.781 200.142 707.484 200.054 708.187 199.942L708.479 202.438C707.722 202.55 706.997 202.638 706.251 202.725H706.273ZM688.68 201.477C687.955 201.29 687.241 201.09 686.517 200.866L687.079 198.457C687.76 198.669 688.452 198.869 689.145 199.044L688.68 201.477ZM716.059 200.666L715.475 198.27C716.156 198.045 716.837 197.808 717.508 197.558L718.178 199.93C717.454 200.142 716.751 200.391 716.037 200.616L716.059 200.666ZM679.207 197.945C678.526 197.608 677.845 197.259 677.185 196.897L678.104 194.638C678.753 194.988 679.402 195.325 680.051 195.649L679.207 197.945ZM725.358 196.573L724.407 194.326C725.045 193.964 725.672 193.59 726.299 193.203L727.38 195.399C726.656 195.761 725.996 196.148 725.337 196.523L725.358 196.573ZM670.427 192.454C669.81 191.98 669.205 191.493 668.599 191.006L669.864 188.972C670.437 189.446 671.021 189.921 671.616 190.37L670.427 192.454ZM733.847 190.57L732.571 188.56C733.133 188.069 733.696 187.57 734.258 187.063L735.599 189.022C735.015 189.546 734.431 190.07 733.836 190.57H733.847ZM662.641 185.291C662.111 184.704 661.56 184.105 661.073 183.493L662.619 181.759C663.117 182.345 663.625 182.919 664.133 183.493L662.641 185.291ZM741.297 182.969L739.729 181.26C740.216 180.661 740.692 180.012 741.167 179.437L742.789 181.085C742.292 181.721 741.795 182.358 741.286 182.969H741.297ZM656.088 176.654C655.656 175.968 655.223 175.282 654.812 174.57L656.607 173.173C657.007 173.859 657.418 174.533 657.829 175.194L656.088 176.654ZM747.472 173.959L745.666 172.598C746.055 171.912 746.423 171.213 746.747 170.514L748.607 171.762C748.283 172.524 747.861 173.247 747.461 173.959H747.472ZM650.963 166.82C650.649 166.059 650.336 165.285 650.044 164.511L652.044 163.488C652.325 164.237 652.628 164.973 652.931 165.709L650.963 166.82ZM752.154 163.813L750.164 162.852C750.435 162.09 750.694 161.329 750.943 160.555L752.976 161.441C752.705 162.24 752.424 163.039 752.143 163.813H752.154ZM647.448 156.087C647.254 155.264 647.07 154.44 646.908 153.591L649.005 153.03C649.168 153.829 649.351 154.615 649.535 155.401L647.448 156.087ZM755.182 152.868L753.019 152.318C753.17 151.52 753.311 150.721 753.43 149.91L755.593 150.359C755.474 151.195 755.333 152.031 755.171 152.868H755.182ZM645.664 144.768C645.588 143.932 645.545 143.083 645.502 142.272L647.665 142.147C647.665 142.971 647.751 143.782 647.816 144.643L645.664 144.768ZM756.447 141.461L754.284 141.361C754.284 140.55 754.284 139.739 754.284 138.865V138.603H756.447V138.84C756.49 139.776 756.468 140.625 756.447 141.473V141.461ZM647.794 133.536L645.632 133.311C645.697 132.463 645.772 131.614 645.859 130.815L648.021 131.127C647.935 131.889 647.859 132.7 647.794 133.536ZM753.765 130.117C753.668 129.305 753.56 128.494 753.43 127.695L755.593 127.246C755.733 128.082 755.852 128.918 755.96 129.742L753.765 130.117ZM649.46 122.629L647.373 121.98C647.567 121.156 647.784 120.332 648 119.484L650.065 120.245C649.881 121.056 649.654 121.867 649.47 122.653L649.46 122.629ZM751.57 119.346C751.343 118.56 751.105 117.799 750.856 117.037L752.878 116.151C753.138 116.933 753.387 117.732 753.624 118.548L751.57 119.346ZM652.812 112.32L650.865 111.247C651.19 110.473 651.514 109.712 651.86 108.963L653.774 110.136C653.439 110.847 653.125 111.571 652.812 112.32ZM747.742 109.275C747.396 108.564 747.05 107.852 746.661 107.153L748.51 105.905C748.892 106.629 749.252 107.365 749.591 108.114L747.742 109.275ZM657.71 102.835L655.958 101.375C656.391 100.689 656.834 100.002 657.299 99.3408L658.997 100.876C658.532 101.512 658.132 102.161 657.71 102.823V102.835ZM742.4 100.14C741.957 99.5031 741.503 98.8916 741.027 98.2551L742.649 96.6077C743.136 97.2442 743.611 97.8557 744.087 98.5546L742.4 100.14ZM663.993 94.5111L662.49 92.7139C663.03 92.1274 663.571 91.5408 664.122 90.9792L665.55 92.8512C665.02 93.3754 664.501 93.937 663.993 94.4986V94.5111ZM735.739 92.2147L734.096 90.6547L735.436 88.6954C736.02 89.232 736.583 89.7687 737.145 90.3303L735.739 92.2147ZM671.508 87.5971L670.308 85.513C670.924 85.0512 671.54 84.5895 672.178 84.1402L673.26 86.2743C672.589 86.6986 672.038 87.1479 671.508 87.5971ZM728.008 85.7875C727.402 85.3632 726.786 84.9639 726.159 84.5395L727.175 82.3431C727.824 82.7424 728.473 83.1667 729.111 83.5911L728.008 85.7875ZM679.845 82.368L678.991 80.0717C679.672 79.7348 680.353 79.4103 681.035 79.1107L681.813 81.432C681.154 81.7066 680.494 82.0186 679.845 82.368ZM719.303 81.12C718.643 80.833 717.962 80.5709 717.292 80.3213L717.951 77.9376C718.654 78.1997 719.357 78.4743 720.049 78.7738L719.303 81.12ZM688.928 78.9485L688.442 76.5149C689.163 76.3235 689.883 76.1488 690.604 75.9907L690.994 78.4867C690.312 78.5491 689.62 78.7239 688.928 78.8986V78.9485ZM710.058 78.2746C709.366 78.1373 708.663 78.0125 707.96 77.9002L708.241 75.4042C708.976 75.5165 709.701 75.6413 710.404 75.7911L710.058 78.2746ZM698.401 77.376L698.303 74.88C699.039 74.88 699.774 74.8176 700.466 74.8176V77.3136C699.817 77.376 699.104 77.376 698.401 77.376Z" fill="#EBEBEB"/>
<path d="M693.502 173.609H708.479V147.539H731.079V130.254H708.479V104.183H693.502V130.254H670.913V147.539H693.502V173.609Z" fill="#EBEBEB"/>
<path d="M140.238 342.601C132.146 355.105 121.821 365.455 109.961 372.952C98.1031 365.452 87.7781 355.102 79.6834 342.601C69.0215 326.302 69.5405 300.781 84.809 295.264C101.645 289.162 109.928 318.49 109.928 318.49C109.928 318.49 118.341 288.974 135.113 295.264C150.305 300.98 150.911 326.302 140.238 342.601Z" fill="#EBEBEB"/>
<path d="M98.0121 360.073L93.4164 337.971L90.4103 345.758H71.8222V343.262H89.0045L94.0327 330.221L97.612 347.468L102.694 311.738L107.171 340.005L110.707 328.199L116.287 347.518L117.519 343.25H148.056V345.746H119.076L116.287 355.393L110.664 335.962L106.522 349.789L102.802 326.352L98.0121 360.073Z" fill="white"/>
<path d="M109.972 383.448C100.358 383.451 90.9593 380.163 82.9646 374C74.97 367.837 68.7384 359.077 65.0579 348.827C61.3773 338.576 60.4132 327.297 62.2875 316.414C64.1617 305.531 68.7901 295.534 75.5874 287.688C82.3846 279.841 91.0453 274.497 100.474 272.332C109.903 270.166 119.677 271.276 128.559 275.522C137.441 279.767 145.033 286.958 150.374 296.183C155.716 305.408 158.567 316.255 158.567 327.35C158.552 342.221 153.428 356.478 144.318 366.995C135.208 377.511 122.856 383.428 109.972 383.448ZM109.972 273.761C100.785 273.759 91.8042 276.901 84.165 282.79C76.5258 288.678 70.5714 297.05 67.0549 306.845C63.5383 316.64 62.6177 327.418 64.4094 337.817C66.2011 348.216 70.6246 357.768 77.1204 365.265C83.6163 372.762 91.8927 377.867 100.903 379.935C109.913 382.003 119.252 380.94 127.739 376.882C136.226 372.823 143.479 365.951 148.581 357.135C153.684 348.318 156.406 337.953 156.404 327.35C156.387 313.144 151.489 299.525 142.785 289.479C134.081 279.433 122.281 273.781 109.972 273.761Z" fill="#EBEBEB"/>
<path d="M107.528 391.385L105.365 391.223L105.538 388.727C106.252 388.802 106.955 388.852 107.701 388.889L107.528 391.385ZM115.27 391.148L115.065 388.652C115.768 388.577 116.481 388.478 117.227 388.378L117.508 390.874C116.784 390.974 116.005 391.073 115.27 391.148ZM97.666 389.9C96.9523 389.713 96.2279 389.501 95.5034 389.289L96.0548 386.88L98.131 387.467L97.666 389.9ZM125.045 389.089L124.461 386.68C125.154 386.456 125.824 386.219 126.494 385.969L127.176 388.34C126.516 388.565 125.759 388.814 125.045 389.052V389.089ZM88.1935 386.368C87.5123 386.031 86.8419 385.682 86.1715 385.308L87.1014 383.061C87.743 383.411 88.3918 383.748 89.0478 384.072L88.1935 386.368ZM134.345 384.983L133.393 382.749C134.031 382.387 134.658 382.013 135.286 381.626L136.367 383.822C135.664 384.184 135.004 384.571 134.345 384.946V384.983ZM79.4239 380.915C78.8076 380.453 78.202 379.966 77.5965 379.467L78.8616 377.445C79.4347 377.919 80.0295 378.381 80.6134 378.83L79.4239 380.915ZM142.844 379.043L141.568 377.033C142.138 376.551 142.7 376.052 143.255 375.536L144.607 377.483C144.034 377.982 143.439 378.493 142.844 379.005V379.043ZM71.6383 373.764C71.1085 373.177 70.557 372.578 70.0704 371.966L71.6275 370.232C72.1141 370.818 72.6223 371.392 73.1306 371.954L71.6383 373.764ZM150.305 371.405L148.737 369.683C149.224 369.084 149.7 368.435 150.165 367.873L151.798 369.508C151.311 370.157 150.814 370.781 150.305 371.405ZM65.0854 365.09C64.6529 364.404 64.2312 363.705 63.8203 363.006L65.6153 361.608C66.0046 362.294 66.4155 362.956 66.8372 363.617L65.0854 365.09ZM156.469 362.394L154.663 361.021C155.052 360.335 155.431 359.649 155.799 358.937L157.648 360.185C157.269 360.959 156.88 361.67 156.469 362.394ZM59.9707 355.256C59.6463 354.494 59.3328 353.721 59.0408 352.934L61.0304 351.936C61.3116 352.685 61.6036 353.434 61.9171 354.17L59.9707 355.256ZM161.119 352.248L159.129 351.275C159.399 350.526 159.67 349.765 159.918 348.991L161.94 349.864C161.713 350.688 161.443 351.462 161.119 352.248ZM56.424 344.51C56.2293 343.678 56.0455 342.846 55.8725 342.014L57.9811 341.44C58.1433 342.239 58.3163 343.038 58.5109 343.824L56.424 344.51ZM164.146 341.291L161.984 340.754C162.135 339.955 162.276 339.157 162.405 338.345L164.568 338.795C164.482 339.631 164.363 340.467 164.179 341.291H164.146ZM54.6722 333.216C54.6073 332.384 54.5533 331.552 54.51 330.72L56.6727 330.595C56.6727 331.406 56.7592 332.23 56.8241 333.091L54.6722 333.216ZM165.444 329.909L163.281 329.809C163.281 328.998 163.281 328.174 163.281 327.313V327.051H165.444V327.301C165.498 328.224 165.444 329.06 165.444 329.909ZM56.8024 321.984L54.6398 321.759C54.7046 320.911 54.7803 320.062 54.8777 319.263L57.0403 319.575C56.943 320.324 56.8673 321.135 56.8024 321.984ZM162.773 318.565C162.676 317.741 162.557 316.942 162.427 316.069L164.59 315.619C164.72 316.455 164.838 317.292 164.947 318.115L162.773 318.565ZM58.4677 311.077L56.3807 310.415C56.5754 309.591 56.7808 308.78 57.0079 307.919L59.0624 308.668C58.8678 309.504 58.6731 310.303 58.4893 311.089L58.4677 311.077ZM160.567 307.782C160.34 307.008 160.102 306.234 159.854 305.473L161.876 304.587C162.135 305.386 162.384 306.184 162.622 306.996L160.567 307.782ZM61.8306 300.768L59.8734 299.695C60.1978 298.921 60.533 298.16 60.8791 297.398L62.7822 298.572C62.4578 299.27 62.1334 300.007 61.8306 300.768ZM156.793 297.698C156.458 296.974 156.101 296.275 155.712 295.576L157.561 294.328C157.95 295.065 158.318 295.801 158.642 296.537L156.793 297.698ZM66.7183 291.258L64.9665 289.798C65.4099 289.099 65.8532 288.425 66.3074 287.751L68.005 289.299C67.5617 289.935 67.14 290.597 66.7183 291.258ZM151.387 288.55C150.933 287.914 150.478 287.302 150.013 286.678L151.635 285.031C152.126 285.671 152.601 286.32 153.063 286.978L151.387 288.55ZM72.9684 282.934L71.4761 281.125C72.0096 280.542 72.5503 279.968 73.0981 279.402L74.612 281.262C74.0389 281.811 73.5307 282.36 73.0008 282.934H72.9684ZM144.715 280.638C144.174 280.101 143.633 279.577 143.071 279.065L144.423 277.118C144.996 277.643 145.569 278.192 146.131 278.741L144.715 280.638ZM80.4296 276.02L79.2293 273.949C79.8456 273.474 80.462 273.025 81.1 272.576L82.1813 274.71C81.6515 275.134 81.1 275.571 80.462 276.02H80.4296ZM136.94 274.211C136.324 273.799 135.707 273.399 135.08 272.963L136.097 270.754C136.745 271.165 137.394 271.577 138.032 272.002L136.94 274.211ZM88.864 270.816L87.9989 268.52L90.0426 267.559L90.8212 269.893C90.1616 270.13 89.5128 270.442 88.864 270.816ZM128.311 269.568C127.651 269.293 126.981 269.019 126.3 268.769L126.959 266.398C127.662 266.66 128.365 266.935 129.057 267.222L128.311 269.568ZM97.9364 267.409L97.4498 264.913L99.6124 264.389L100.013 266.885C99.3205 266.985 98.6284 267.147 97.9364 267.334V267.409ZM119.076 266.723C118.374 266.585 117.671 266.473 116.914 266.361L117.195 263.865C117.93 263.977 118.655 264.102 119.358 264.239L119.076 266.723ZM107.409 265.824L107.312 263.328C108.047 263.328 108.782 263.328 109.528 263.253V265.749C108.825 265.824 108.133 265.824 107.409 265.824Z" fill="#EBEBEB"/>
<path d="M677.25 412.214C676.715 396.622 676.899 381.009 677.801 365.439C679.8 333.335 684.045 301.469 690.496 270.155C694.043 252.52 698.401 235.211 702.942 217.863C703.083 217.339 703.797 217.489 703.678 218.038C689.62 279.078 678.104 342.077 678.894 405.538C679.121 423.297 680.905 440.744 682.365 458.39C682.365 458.865 681.727 459.052 681.629 458.565C678.731 443.464 677.791 427.64 677.25 412.214Z" fill="#EBEBEB"/>
<path d="M703.678 218.038C703.678 218.038 724.958 280.376 720.168 295.027C715.378 309.679 705.581 312.811 705.581 312.811C705.581 312.811 718.557 334.264 709.506 354.382C700.455 374.5 680.191 373.551 678.85 396.365C678.872 396.365 677.747 300.968 703.678 218.038Z" fill="#EBEBEB"/>
<path d="M681.24 356.928C681.203 356.824 681.203 356.707 681.24 356.604C684.225 314.172 690.745 271.952 701.883 231.192C701.883 231.166 701.892 231.14 701.908 231.121C701.924 231.103 701.946 231.092 701.969 231.092C701.992 231.092 702.014 231.103 702.03 231.121C702.047 231.14 702.056 231.166 702.056 231.192C697.839 249.421 694.111 267.754 690.875 286.191C693.735 283.063 697.23 280.815 701.039 279.652C701.054 279.652 701.067 279.658 701.077 279.67C701.088 279.682 701.093 279.698 701.093 279.714C701.093 279.731 701.088 279.747 701.077 279.758C701.067 279.77 701.054 279.777 701.039 279.777C697.103 281.736 693.34 284.02 690.55 287.864C689.934 291.483 689.328 295.09 688.744 298.709C693.502 292.581 700.098 289.536 706.695 286.641C706.792 286.641 706.835 286.765 706.749 286.815C699.871 290.035 693.027 294.204 688.366 301.03C686.737 311.38 685.295 321.78 684.041 332.23C687.481 328.075 691.89 325.157 696.736 323.831C696.887 323.831 696.963 324.043 696.811 324.093C691.816 325.762 687.347 329.065 683.943 333.603C683.943 333.603 683.943 333.603 683.868 333.678C683.435 337.347 683.035 341.004 682.667 344.685C685.322 342.07 688.323 339.964 691.556 338.445C691.642 338.445 691.686 338.557 691.556 338.595C688.261 340.237 685.244 342.539 682.646 345.396C682.646 345.396 682.57 345.396 682.527 345.459C682.17 348.941 681.824 352.435 681.51 355.93C686.31 349.25 692.534 344.128 699.569 341.066C699.709 341.004 699.774 341.241 699.644 341.316C692.695 344.844 686.591 350.266 681.856 357.115C681.804 357.192 681.732 357.248 681.651 357.277C681.57 357.306 681.483 357.306 681.402 357.277C680.948 362.627 680.544 367.998 680.191 373.389C680.191 373.464 680.083 373.476 680.083 373.389C680.429 367.948 680.815 362.461 681.24 356.928Z" fill="#A6A6A6"/>
<path d="M698.282 273.562C701.969 270.629 706.662 269.381 711.063 268.956C711.076 268.951 711.09 268.949 711.104 268.951C711.118 268.953 711.131 268.959 711.143 268.968C711.154 268.977 711.163 268.99 711.17 269.004C711.176 269.018 711.18 269.034 711.18 269.05C711.18 269.066 711.176 269.082 711.17 269.096C711.163 269.111 711.154 269.123 711.143 269.132C711.131 269.141 711.118 269.147 711.104 269.149C711.09 269.151 711.076 269.149 711.063 269.144C706.489 269.93 702.64 271.839 698.422 273.911C698.385 273.918 698.347 273.911 698.313 273.891C698.279 273.871 698.252 273.838 698.236 273.798C698.221 273.758 698.216 273.714 698.224 273.671C698.233 273.628 698.253 273.59 698.282 273.562Z" fill="#A6A6A6"/>
<path d="M695.698 339.556C698.662 337.612 701.921 336.341 705.3 335.812C705.408 335.812 705.419 335.999 705.3 336.012C701.995 336.774 698.799 338.068 695.806 339.855C695.687 339.893 695.568 339.643 695.698 339.556Z" fill="#A6A6A6"/>
<path d="M621.302 296.038C630.303 303.22 638.567 311.56 645.934 320.898C653.544 330.768 659.42 342.251 663.236 354.707C671.305 380.667 675.645 407.976 676.082 435.552C676.346 450.829 675.072 466.091 672.287 481.029C672.257 481.128 672.197 481.211 672.118 481.263C672.04 481.315 671.947 481.333 671.858 481.314C671.769 481.294 671.689 481.238 671.633 481.156C671.577 481.074 671.548 480.971 671.551 480.867C675.023 454.511 674.892 427.69 671.162 401.382C667.507 375.648 661.776 347.543 647.556 326.589C639.825 315.17 630.179 306.197 620.653 296.912C620.145 296.425 620.793 295.626 621.302 296.038Z" fill="#EBEBEB"/>
<path d="M672.946 416.994C667.824 407.433 661.804 398.551 654.996 390.512C644.345 378.219 635.381 369.495 633.997 361.371C632.612 353.246 644.659 347.269 644.659 347.269C644.659 347.269 629.931 350.314 625.897 343.175C621.864 336.037 619.918 294.715 619.918 294.715C619.918 294.715 646.724 316.805 659.213 347.755C671.703 378.706 672.946 416.994 672.946 416.994Z" fill="#EBEBEB"/>
<path d="M629.498 333.478C631.26 333.189 633.044 333.118 634.818 333.266C635.035 333.266 635.024 333.703 634.818 333.703C633.045 333.765 631.282 333.615 629.52 333.703C629.336 333.74 629.336 333.503 629.498 333.478Z" fill="#A6A6A6"/>
<path d="M648.8 373.576C651.629 373.653 654.425 374.299 657.061 375.486C657.126 375.486 657.061 375.648 657.061 375.623C654.326 374.874 651.568 374.575 648.811 374.051C648.54 374.001 648.551 373.576 648.8 373.576Z" fill="#A6A6A6"/>
<path d="M654.564 359.724C655.739 359.713 656.912 359.834 658.067 360.085C658.186 360.085 658.186 360.335 658.067 360.335C656.893 360.404 655.716 360.341 654.553 360.148C654.529 360.147 654.505 360.141 654.483 360.129C654.461 360.118 654.441 360.102 654.424 360.081C654.391 360.04 654.373 359.986 654.374 359.929C654.376 359.873 654.396 359.82 654.432 359.781C654.467 359.743 654.515 359.722 654.564 359.724Z" fill="#A6A6A6"/>
<path d="M751.527 339.905C742.82 343.319 734.476 347.862 726.656 353.446C718.529 359.409 711.482 367.136 705.905 376.197C694.163 395.05 685.173 415.993 679.294 438.198C676.02 450.49 673.995 463.18 673.26 476.012C673.251 476.108 673.276 476.204 673.329 476.279C673.381 476.354 673.458 476.402 673.541 476.412C673.624 476.421 673.707 476.393 673.772 476.332C673.837 476.271 673.878 476.183 673.887 476.087C676.351 453.829 681.825 432.154 690.107 411.853C698.239 391.959 708.49 370.793 724.191 357.614C732.733 350.438 742.335 345.746 751.916 340.779C752.37 340.517 752.013 339.706 751.527 339.905Z" fill="#EBEBEB"/>
<path d="M685.5 424.008C691.56 417.634 698.211 412.051 705.332 407.36C716.405 400.259 725.413 395.591 728.159 389.389C730.906 383.186 722.331 375.124 722.331 375.124C722.331 375.124 733.641 381.526 738.334 376.821C743.027 372.116 752.878 339.194 752.878 339.194C752.878 339.194 726.764 349.927 710.458 371.642C694.151 393.357 685.5 424.008 685.5 424.008Z" fill="#EBEBEB"/>
<path d="M686.852 417.219C699.915 388.927 717.346 363.33 741.222 346.445C734.986 351.072 729.137 356.357 723.747 362.232C728.612 361.921 733.462 363.101 737.805 365.652C737.814 365.656 737.822 365.663 737.829 365.672C737.836 365.681 737.841 365.691 737.845 365.702C737.848 365.713 737.85 365.724 737.85 365.736C737.849 365.748 737.847 365.759 737.842 365.77C737.838 365.781 737.832 365.79 737.825 365.798C737.817 365.806 737.808 365.812 737.799 365.816C737.789 365.821 737.779 365.822 737.769 365.822C737.759 365.821 737.749 365.819 737.74 365.814C733.124 363.821 728.22 362.868 723.293 363.006C723.233 363.004 723.175 362.978 723.131 362.931C722.277 363.854 721.444 364.803 720.611 365.751C723.136 365.889 725.647 366.273 728.116 366.9C728.13 366.9 728.144 366.906 728.154 366.918C728.164 366.93 728.17 366.945 728.17 366.962C728.17 366.978 728.164 366.994 728.154 367.006C728.144 367.018 728.13 367.024 728.116 367.024C725.504 366.453 722.847 366.198 720.19 366.263C715.827 371.377 711.715 376.768 707.873 382.412C709.628 382.124 711.417 382.273 713.118 382.849C713.144 382.849 713.168 382.861 713.187 382.882C713.205 382.903 713.215 382.931 713.215 382.961C713.215 382.991 713.205 383.02 713.187 383.041C713.168 383.062 713.144 383.074 713.118 383.074C711.258 382.833 709.381 382.803 707.516 382.986C706.803 384.035 706.078 385.083 705.354 386.144C710.686 385.768 716.037 386.371 721.206 387.928C721.282 387.928 721.26 388.078 721.206 388.066C715.868 386.852 710.417 386.433 704.986 386.818C704.316 387.841 703.689 388.889 703.029 389.913C706.21 389.822 709.388 390.242 712.469 391.161C712.495 391.161 712.52 391.172 712.538 391.194C712.556 391.215 712.566 391.243 712.566 391.273C712.566 391.303 712.556 391.331 712.538 391.352C712.52 391.373 712.495 391.385 712.469 391.385C709.275 390.583 706.001 390.285 702.737 390.499C699.925 394.967 697.229 399.522 694.649 404.165C696.029 403.878 697.449 403.977 698.79 404.452C698.804 404.452 698.818 404.458 698.828 404.47C698.838 404.482 698.844 404.498 698.844 404.514C698.844 404.531 698.838 404.547 698.828 404.558C698.818 404.57 698.804 404.577 698.79 404.577C697.295 404.447 695.791 404.531 694.313 404.826C691.985 408.986 689.743 413.2 687.587 417.469C687.187 417.868 686.647 417.593 686.852 417.219Z" fill="#A6A6A6"/>
<path d="M707.192 393.757C709.751 393.549 712.32 393.909 714.761 394.817C714.826 394.817 714.761 394.967 714.761 394.955C712.258 394.467 709.729 394.167 707.192 394.056C707.03 394.056 706.997 393.769 707.192 393.757Z" fill="#A6A6A6"/>
<path d="M729.954 359.274C731.122 359.172 732.297 359.252 733.447 359.511C733.587 359.511 733.544 359.761 733.447 359.748C732.301 359.611 731.165 359.649 730.019 359.611C729.983 359.614 729.947 359.601 729.919 359.576C729.89 359.551 729.87 359.515 729.862 359.475C729.854 359.434 729.859 359.392 729.876 359.355C729.893 359.318 729.92 359.289 729.954 359.274Z" fill="#A6A6A6"/>
<path d="M651.817 518.032H710.76L702.358 446.984L700.207 428.763H662.371L660.219 446.984L651.817 518.032Z" fill="#DBDBDB"/>
<path d="M660.219 446.984H702.358L700.207 428.763H662.371L660.219 446.984Z" fill="#C7C7C7"/>
<path d="M656.964 437.873H705.624V422.448H656.964V437.873Z" fill="#DBDBDB"/>
<path d="M85.7173 518.032L165.66 517.733L245.603 517.621L405.5 517.408L565.397 517.621L645.34 517.733L725.283 518.032L645.34 518.344L565.397 518.444L405.5 518.656L245.603 518.444L165.66 518.332L85.7173 518.032Z" fill="#263238"/>
<path d="M405.5 591.227C582.78 591.227 726.494 576.549 726.494 558.443C726.494 540.336 582.78 525.658 405.5 525.658C228.22 525.658 84.5062 540.336 84.5062 558.443C84.5062 576.549 228.22 591.227 405.5 591.227Z" fill="#EBEBEB"/>
<path d="M657.375 67.6292H153.625V481.716H657.375V67.6292Z" fill="#263238"/>
<path d="M633.023 94.5485H177.977V391.897H633.023V94.5485Z" fill="white"/>
<path d="M657.375 420.626H153.625V481.703H657.375V420.626Z" fill="#EBEBEB"/>
<path d="M508.324 540.696H302.687V556.371H508.324V540.696Z" fill="#C7C7C7"/>
<path d="M483.832 540.709H327.168L331.148 513.515L331.342 512.229L331.71 509.683L331.894 508.398L332.283 505.839L332.326 505.453L332.467 504.566L332.845 502.008L333.029 500.723L335.808 481.728H475.181L477.809 499.649L477.949 500.51L478.382 503.481L478.501 504.342L478.663 505.453L478.944 507.312L479.063 508.186L479.496 511.168L479.625 512.017L483.832 540.709Z" fill="#DBDBDB"/>
<path d="M633.023 94.5485H177.977V110.635H633.023V94.5485Z" fill="#455A64"/>
<path d="M189.05 102.586C189.05 103.376 188.846 104.149 188.466 104.806C188.085 105.463 187.544 105.975 186.911 106.276C186.278 106.578 185.582 106.657 184.91 106.502C184.239 106.346 183.622 105.965 183.139 105.405C182.655 104.845 182.326 104.133 182.194 103.357C182.062 102.582 182.132 101.778 182.395 101.049C182.659 100.319 183.104 99.6963 183.675 99.259C184.245 98.8217 184.915 98.5896 185.6 98.5921C186.054 98.5921 186.503 98.6954 186.923 98.8963C187.342 99.0971 187.723 99.3915 188.043 99.7625C188.363 100.134 188.617 100.574 188.79 101.058C188.963 101.543 189.051 102.062 189.05 102.586Z" fill="#C7C7C7"/>
<path d="M203.161 102.586C203.161 103.376 202.958 104.149 202.577 104.806C202.196 105.463 201.655 105.975 201.022 106.276C200.389 106.578 199.693 106.657 199.022 106.502C198.35 106.346 197.734 105.965 197.25 105.405C196.767 104.845 196.438 104.133 196.306 103.357C196.173 102.582 196.243 101.778 196.507 101.049C196.77 100.319 197.216 99.6963 197.786 99.259C198.357 98.8217 199.027 98.5896 199.711 98.5921C200.165 98.5921 200.615 98.6954 201.034 98.8963C201.453 99.0971 201.834 99.3915 202.154 99.7625C202.475 100.134 202.729 100.574 202.901 101.058C203.074 101.543 203.162 102.062 203.161 102.586Z" fill="white"/>
<path d="M217.272 102.586C217.272 103.376 217.069 104.149 216.688 104.806C216.308 105.463 215.767 105.975 215.134 106.276C214.501 106.578 213.805 106.657 213.133 106.502C212.461 106.346 211.845 105.965 211.361 105.405C210.878 104.845 210.549 104.133 210.417 103.357C210.285 102.582 210.355 101.778 210.618 101.049C210.882 100.319 211.327 99.6963 211.897 99.259C212.468 98.8217 213.138 98.5896 213.823 98.5921C214.277 98.5921 214.726 98.6954 215.145 98.8963C215.565 99.0971 215.945 99.3915 216.266 99.7625C216.586 100.134 216.84 100.574 217.013 101.058C217.186 101.543 217.274 102.062 217.272 102.586Z" fill="#80BBDA"/>
<path d="M412.408 450.559C413.518 445.157 410.624 439.739 405.943 438.458C401.262 437.177 396.568 440.518 395.458 445.92C394.348 451.322 397.243 456.74 401.924 458.021C406.604 459.302 411.299 455.961 412.408 450.559Z" fill="#263238"/>
<path d="M478.663 505.453H332.326L332.467 504.566L332.845 502.008L333.029 500.723L335.808 481.728H475.181L477.809 499.649L477.949 500.51L478.382 503.481L478.501 504.342L478.663 505.453Z" fill="#C7C7C7"/>
<path d="M633.034 110.635H532.048V391.909H633.034V110.635Z" fill="#EBEBEB"/>
<path d="M557.027 226.425H617.009V181.334H557.027V226.425Z" fill="#80BBDA"/>
<path d="M609.883 189.134H564.153V189.996H609.883V189.134Z" fill="white"/>
<path d="M587.013 193.765H564.153V194.626H587.013V193.765Z" fill="white"/>
<path d="M600.821 203.012H564.153V203.873H600.821V203.012Z" fill="white"/>
<path d="M609.883 207.642H564.153V208.503H609.883V207.642Z" fill="white"/>
<path d="M609.883 212.272H564.153V213.133H609.883V212.272Z" fill="white"/>
<path d="M579.368 216.89H564.153V217.751H579.368V216.89Z" fill="white"/>
<path d="M616.976 218.15L621.107 233.638L606.877 226.375L616.976 218.15Z" fill="#80BBDA"/>
<path d="M608.077 129.343H548.095V167.382H608.077V129.343Z" fill="#263238"/>
<path d="M548.095 159.157L543.965 174.658L558.195 167.382L548.095 159.157Z" fill="#263238"/>
<path d="M582.676 136.369H555.362V137.23H582.676V136.369Z" fill="white"/>
<path d="M601.092 140.999H555.362V141.86H601.092V140.999Z" fill="white"/>
<path d="M601.092 145.617H555.362V146.478H601.092V145.617Z" fill="white"/>
<path d="M592.365 150.247H555.362V151.108H592.365V150.247Z" fill="white"/>
<path d="M601.092 154.877H555.362V155.738H601.092V154.877Z" fill="white"/>
<path d="M572.328 159.507H555.362V160.368H572.328V159.507Z" fill="white"/>
<path d="M608.077 239.192H548.095V265.225H608.077V239.192Z" fill="#263238"/>
<path d="M548.095 257.001L543.965 272.488L558.195 265.225L548.095 257.001Z" fill="#263238"/>
<path d="M594.96 246.218H555.362V247.079H594.96V246.218Z" fill="white"/>
<path d="M576.048 250.848H555.362V251.709H576.048V250.848Z" fill="white"/>
<path d="M589.889 255.466H555.362V256.327H589.889V255.466Z" fill="white"/>
<path d="M621.107 324.018H543.965V340.417H621.107V324.018Z" fill="white"/>
<path d="M617.733 332.417C617.735 333.218 617.532 334.002 617.147 334.668C616.763 335.335 616.216 335.856 615.576 336.163C614.935 336.471 614.23 336.552 613.549 336.396C612.868 336.241 612.243 335.855 611.752 335.289C611.262 334.723 610.928 334.001 610.793 333.216C610.658 332.43 610.729 331.616 610.995 330.877C611.262 330.137 611.712 329.506 612.29 329.063C612.868 328.619 613.547 328.384 614.241 328.386C615.166 328.39 616.053 328.815 616.707 329.571C617.362 330.326 617.73 331.349 617.733 332.417Z" fill="#80BBDA"/>
<path d="M613.592 330.083L615.754 332.417L613.592 334.751L613.148 334.202L614.792 332.417L613.148 330.633L613.592 330.083Z" fill="white"/>
<path d="M547.955 327.325H547.025V337.11H547.955V327.325Z" fill="#263238"/>
<path d="M633.023 350.825H177.977V391.909H633.023V350.825Z" fill="#80BBDA"/>
<path d="M411.209 385.47H399.39C397.781 385.478 396.187 385.119 394.698 384.414C393.209 383.709 391.856 382.672 390.715 381.361C389.575 380.051 388.67 378.494 388.053 376.779C387.435 375.064 387.117 373.225 387.117 371.367C387.117 367.624 388.406 364.034 390.699 361.387C392.993 358.74 396.104 357.253 399.347 357.253H411.166C414.41 357.253 417.52 358.74 419.814 361.387C422.108 364.034 423.396 367.624 423.396 371.367C423.393 375.1 422.109 378.68 419.826 381.322C417.542 383.965 414.444 385.457 411.209 385.47Z" fill="#455A64"/>
<path d="M532.038 110.635H425.288V231.229H532.038V110.635Z" fill="#DBDBDB"/>
<path d="M482.815 187.512C474.857 196.248 458.518 204.809 443.152 205.221C434.501 205.458 417.146 167.27 413.848 158.97C408.333 145.13 429.819 141.748 434.793 143.108C440.989 144.806 450.429 176.33 453.846 179.587C455.047 180.735 471.829 178.14 478.933 176.492C486.524 174.72 486.914 183.019 482.815 187.512Z" fill="#AD6359"/>
<path d="M414.248 159.844C412.94 156.637 408.074 141.324 407.555 136.718C407.036 132.113 406.343 118.71 409.36 117.886C412.377 117.062 412.853 120.969 412.853 120.969C412.853 120.969 413.34 115.253 416.443 114.729C419.547 114.205 420.109 120.32 420.109 120.32C420.109 120.32 420.974 114.504 424.099 114.254C427.224 114.005 426.9 120.232 426.9 120.232C426.9 120.232 427.484 114.878 430.144 115.914C433.334 117.162 431.29 126.922 432.198 131.964C432.404 133.099 437.832 154.802 437.832 154.802L414.248 159.844Z" fill="#AD6359"/>
<path d="M426.921 119.708C425.44 126.884 425.84 130.329 427.894 137.18C427.894 137.317 427.765 137.417 427.711 137.28C425.202 130.753 424.121 126.535 426.629 119.596C426.748 119.271 426.997 119.371 426.921 119.708Z" fill="#263238"/>
<path d="M420.228 119.808C419.255 127.408 419.687 131.14 421.309 138.528C421.309 138.64 421.179 138.69 421.147 138.591C418.984 131.514 418 127.271 419.849 119.871C419.979 119.434 420.282 119.421 420.228 119.808Z" fill="#263238"/>
<path d="M412.95 121.331C412.453 128.819 412.777 132.887 415.2 139.813C415.2 139.976 415.048 140.088 414.983 139.938C411.923 133.149 411.491 128.02 412.745 121.343C412.831 120.881 412.972 120.869 412.95 121.331Z" fill="#263238"/>
<path d="M439.357 160.031C439.357 160.031 442.06 151.295 442.514 147.202C442.968 143.108 439.778 126.984 436.729 127.583C432.793 128.357 433.052 138.066 433.712 142.809C433.712 142.809 424.596 144.581 423.483 151.545C422.369 158.509 439.357 160.031 439.357 160.031Z" fill="#AD6359"/>
<path d="M435.712 128.207C432.555 131.951 433.777 138.054 434.123 142.709C434.131 142.777 434.125 142.846 434.105 142.911C434.086 142.975 434.052 143.033 434.009 143.08C433.965 143.127 433.913 143.16 433.855 143.178C433.798 143.196 433.738 143.198 433.68 143.183C429.895 144.219 424.834 146.927 423.331 151.358C423.331 151.384 423.322 151.409 423.306 151.428C423.29 151.447 423.268 151.457 423.245 151.457C423.222 151.457 423.2 151.447 423.184 151.428C423.167 151.409 423.158 151.384 423.158 151.358C424.239 146.366 428.997 143.233 433.193 142.397C432.771 137.63 431.787 131.402 435.68 128.232L435.712 128.207Z" fill="#263238"/>
<path d="M442.19 152.256C442.19 152.256 419.244 172.474 419.276 174.72C419.276 174.72 434.793 205.221 441.984 205.845C452.798 206.769 469.526 199.73 479.377 191.943C489.92 183.606 490.623 173.609 477.398 175.644C463.167 177.84 455.425 179.388 454.03 178.14C452.635 176.892 443.347 152.755 442.19 152.256Z" fill="#80BBDA"/>
<path d="M444.006 159.981C442.159 161.322 440.372 162.771 438.654 164.324C436.902 165.834 435.161 167.369 433.463 168.954C431.766 170.539 430.057 172.137 428.403 173.784C426.748 175.431 425.256 177.054 423.666 178.664C423.591 178.739 423.666 178.876 423.775 178.813C425.483 177.253 427.246 175.768 428.976 174.233C430.706 172.698 432.404 171.126 434.134 169.566C435.864 168.006 437.551 166.433 439.259 164.848C440.968 163.263 442.59 161.816 444.125 160.143C444.201 160.056 444.093 159.931 444.006 159.981Z" fill="#263238"/>
<path opacity="0.1" d="M479.377 191.942C469.526 199.73 452.765 206.769 441.984 205.845C441.548 205.797 441.121 205.671 440.719 205.471L486.6 177.665C488.763 180.81 486.005 186.701 479.377 191.942Z" fill="black"/>
<path d="M482.145 184.155C485.735 185.653 492.71 179.974 495.726 175.02C495.932 174.683 495.824 170.814 495.889 166.096C495.943 163.238 496.051 160.044 496.343 157.148L480.123 159.507C480.665 163.246 480.811 167.047 480.555 170.826C480.517 171.226 480.44 171.619 480.328 171.999C480.328 172.062 480.328 172.124 480.328 172.199C479.777 174.408 478.674 182.72 482.145 184.155Z" fill="#AD6359"/>
<path d="M495.424 157.248C494.505 161.154 490.882 173.41 481.929 172.474C481.386 172.417 480.847 172.312 480.317 172.162C480.317 172.087 480.317 172.024 480.317 171.962C480.43 171.582 480.506 171.188 480.545 170.789C480.8 167.009 480.655 163.208 480.112 159.469L495.424 157.248Z" fill="#263238"/>
<path d="M498.149 133.798C500.041 140.213 497.586 159.045 493.704 163.363C488.071 169.603 478.566 170.539 473.938 162.664C469.407 155.039 472.986 130.566 477.355 126.61C483.767 120.781 495.359 124.313 498.149 133.798Z" fill="#AD6359"/>
<path d="M485.086 146.016C485.086 146.016 485.173 146.091 485.162 146.141C484.967 147.389 484.924 148.887 485.865 149.473C485.865 149.473 485.865 149.56 485.865 149.548C484.664 149.174 484.729 147.264 485.086 146.016Z" fill="#263238"/>
<path d="M486.243 144.88C488.027 145.018 487.649 149.136 485.994 149.011C484.34 148.887 484.74 144.768 486.243 144.88Z" fill="#263238"/>
<path d="M478.598 144.968C478.598 144.968 478.501 144.968 478.501 145.08C478.414 146.328 478.133 147.801 477.095 148.1V148.175C478.339 148.125 478.695 146.203 478.598 144.968Z" fill="#263238"/>
<path d="M477.733 143.52C475.97 143.146 475.451 147.264 477.084 147.588C478.717 147.913 479.204 143.832 477.733 143.52Z" fill="#263238"/>
<path d="M487.822 143.171C487.365 142.958 486.921 142.712 486.492 142.434C485.993 142.256 485.559 141.892 485.259 141.399C485.19 141.221 485.174 141.022 485.213 140.832C485.252 140.643 485.345 140.473 485.475 140.35C485.765 140.157 486.093 140.056 486.427 140.056C486.761 140.056 487.089 140.157 487.379 140.35C488.018 140.646 488.538 141.207 488.838 141.923C488.9 142.09 488.918 142.274 488.89 142.453C488.862 142.631 488.79 142.797 488.683 142.929C488.575 143.061 488.436 143.155 488.283 143.197C488.131 143.24 487.97 143.231 487.822 143.171Z" fill="#263238"/>
<path d="M476.544 141.274C477.016 141.226 477.486 141.143 477.949 141.024C478.476 141.025 478.987 140.818 479.398 140.438C479.507 140.292 479.571 140.109 479.581 139.918C479.591 139.726 479.546 139.536 479.452 139.377C479.224 139.093 478.934 138.885 478.613 138.773C478.292 138.661 477.951 138.65 477.625 138.74C476.941 138.807 476.305 139.168 475.841 139.751C475.734 139.892 475.668 140.067 475.649 140.253C475.631 140.439 475.662 140.627 475.738 140.792C475.814 140.957 475.932 141.091 476.076 141.177C476.22 141.263 476.383 141.297 476.544 141.274Z" fill="#263238"/>
<path d="M484.718 157.797C484.416 158.059 484.124 158.434 483.713 158.434C483.303 158.37 482.909 158.209 482.556 157.959C482.556 157.959 482.48 157.959 482.502 158.022C482.636 158.293 482.832 158.517 483.068 158.668C483.304 158.82 483.572 158.894 483.843 158.883C484.075 158.844 484.291 158.725 484.465 158.543C484.638 158.36 484.76 158.123 484.816 157.86C484.816 157.86 484.751 157.76 484.718 157.797Z" fill="#263238"/>
<path d="M483.907 153.829C483.581 154.301 483.173 154.69 482.709 154.971C482.246 155.252 481.737 155.42 481.215 155.463C480.759 155.499 480.301 155.465 479.852 155.364H479.593L479.355 155.289C479.299 155.266 479.25 155.224 479.215 155.168C479.181 155.112 479.161 155.045 479.16 154.977C479.154 154.935 479.154 154.893 479.16 154.852V154.74C479.225 153.754 479.442 152.244 479.442 152.244C479.117 152.393 477.452 153.017 477.528 152.506C478.036 148.09 478.931 143.746 480.198 139.539C480.198 139.509 480.209 139.481 480.227 139.46C480.245 139.438 480.27 139.427 480.296 139.427C480.322 139.427 480.346 139.438 480.365 139.46C480.383 139.481 480.393 139.509 480.393 139.539C479.95 143.62 478.879 147.589 478.371 151.682C478.964 151.446 479.583 151.308 480.209 151.27C480.328 151.333 479.744 154.128 479.744 154.577C480.434 154.742 481.146 154.746 481.837 154.587C482.528 154.429 483.184 154.111 483.767 153.654C483.897 153.641 483.983 153.741 483.907 153.829Z" fill="#263238"/>
<path d="M480.415 155.089C480.845 155.828 481.434 156.426 482.123 156.824C482.507 157.017 482.932 157.078 483.345 156.998C484.243 156.786 484.308 155.85 484.189 155.039C484.121 154.61 484.012 154.192 483.864 153.791C482.864 154.637 481.655 155.092 480.415 155.089Z" fill="#263238"/>
<path d="M482.123 156.824C482.507 157.017 482.932 157.078 483.345 156.998C484.243 156.786 484.308 155.85 484.189 155.039C483.72 155.022 483.26 155.189 482.885 155.513C482.509 155.838 482.241 156.3 482.123 156.824Z" fill="#FF99BA"/>
<path d="M475.246 132.126C480.199 137.804 489.033 132.662 489.033 132.662C489.287 134.195 489.964 135.591 490.961 136.643C491.959 137.696 493.225 138.348 494.569 138.503C494.569 138.503 493.921 149.81 496.451 150.322C500.311 151.108 503.901 136.269 503.166 133.037C502.431 129.805 499.273 128.357 499.273 128.357C499.199 126.472 498.512 124.69 497.348 123.365C495.088 120.519 485.519 121.717 485.519 121.717C485.22 120.21 484.62 118.804 483.767 117.612C483.564 117.314 483.31 117.068 483.022 116.887C482.734 116.707 482.417 116.596 482.09 116.561C481.763 116.526 481.434 116.568 481.122 116.684C480.81 116.8 480.521 116.988 480.274 117.237C480.634 118.157 480.804 119.161 480.772 120.17C480.707 123.502 478.414 123.015 478.901 120.083C479.047 118.974 479.534 117.964 480.274 117.237C479.452 115.078 477.701 114.067 476.414 114.853C474.067 116.289 471.115 127.396 475.246 132.126Z" fill="#263238"/>
<path d="M495.099 149.174C495.099 149.174 498.711 143.071 501.101 144.556C503.49 146.041 500.83 154.852 498.04 156.087C497.692 156.273 497.315 156.375 496.932 156.388C496.549 156.401 496.167 156.325 495.81 156.164C495.452 156.004 495.127 155.762 494.852 155.452C494.578 155.143 494.36 154.774 494.213 154.365L495.099 149.174Z" fill="#AD6359"/>
<path d="M500.279 147.052V147.139C498.322 148.088 497.316 150.197 496.613 152.381C496.725 152.152 496.878 151.954 497.063 151.801C497.247 151.647 497.458 151.542 497.681 151.492C497.905 151.442 498.135 151.449 498.355 151.512C498.576 151.575 498.782 151.693 498.96 151.857C498.96 151.857 498.96 151.994 498.906 151.981C498.559 151.859 498.189 151.863 497.844 151.993C497.5 152.122 497.198 152.371 496.981 152.705C496.628 153.271 496.327 153.877 496.083 154.515C495.986 154.715 495.672 154.615 495.737 154.378C495.694 151.445 497.597 147.376 500.279 147.052Z" fill="#263238"/>
<path d="M518.856 231.242C512.985 208.653 504.929 183.88 497.154 176.667C496.419 175.419 497.392 170.776 496.873 170.302C496.354 169.828 479.723 170.614 479.236 171.088C478.75 171.563 479.236 174.421 478.706 175.157C475.264 181.558 472.266 188.264 469.742 195.212C467.287 202.401 464.616 216.828 462.432 231.242H518.856Z" fill="#80BBDA"/>
<path d="M495.251 171.575C495.063 173.027 495.063 174.503 495.251 175.956C495.453 174.505 495.453 173.026 495.251 171.575Z" fill="#263238"/>
<path d="M493.153 171.575C492.951 173.026 492.951 174.505 493.153 175.956C493.355 174.505 493.355 173.026 493.153 171.575Z" fill="#263238"/>
<path d="M491.077 171.575C490.875 173.026 490.875 174.505 491.077 175.956C491.264 174.503 491.264 173.027 491.077 171.575Z" fill="#263238"/>
<path d="M488.99 171.575C488.802 173.027 488.802 174.503 488.99 175.956C489.094 175.234 489.144 174.503 489.141 173.772C489.14 173.036 489.089 172.302 488.99 171.575Z" fill="#263238"/>
<path d="M486.914 171.575C486.814 172.302 486.764 173.036 486.762 173.772C486.759 174.503 486.81 175.234 486.914 175.956C487.101 174.503 487.101 173.027 486.914 171.575Z" fill="#263238"/>
<path d="M484.827 171.575C484.639 173.027 484.639 174.503 484.827 175.956C484.936 175.235 484.987 174.503 484.978 173.772C484.982 173.036 484.931 172.301 484.827 171.575Z" fill="#263238"/>
<path d="M482.75 171.575C482.549 173.026 482.549 174.505 482.75 175.956C482.952 174.505 482.952 173.026 482.75 171.575Z" fill="#263238"/>
<path d="M480.674 171.575C480.472 173.026 480.472 174.505 480.674 175.956C480.862 174.503 480.862 173.027 480.674 171.575Z" fill="#263238"/>
<path d="M472.391 187.812C471.755 189.082 471.185 190.395 470.683 191.743C470.683 191.468 470.78 191.181 470.823 190.894C470.953 190.145 471.126 189.384 471.31 188.648C471.31 188.648 471.31 188.648 471.256 188.648C470.998 189.369 470.789 190.111 470.629 190.869C470.509 191.432 470.422 192.003 470.369 192.579C470.304 192.754 470.229 192.928 470.175 193.116C469.573 194.9 469.057 196.72 468.628 198.569C468.628 198.694 468.758 198.732 468.79 198.569C469.969 194.963 471.321 191.443 472.478 187.824C472.543 187.787 472.413 187.762 472.391 187.812Z" fill="#263238"/>
<path d="M532.016 217.539C520.835 200.067 506.064 183.469 499.057 179.313C490.623 174.321 497.143 192.953 502.496 203.811C506.821 212.659 516.445 227.523 515.828 227.947C515.212 228.372 513.158 222.419 509.989 221.82C506.356 221.121 490.925 221.82 491.185 224.316C491.282 225.351 492.32 227.872 494.072 231.229H532.016V217.539Z" fill="#AD6359"/>
<path d="M532.016 231.204V216.466C524.203 204.904 515.585 194.098 506.248 184.155C496.267 174.046 490.309 173.534 497.759 193.977C502.087 206.02 508.019 217.208 515.342 227.136C515.342 227.136 504.712 229.457 498.473 231.217L532.016 231.204Z" fill="#80BBDA"/>
<path d="M496.386 196.485C497.208 197.172 497.988 197.922 498.722 198.732L499.338 199.455C498.365 197.546 497.413 195.624 496.505 193.677C496.492 193.647 496.49 193.613 496.499 193.581C496.508 193.55 496.528 193.524 496.554 193.509C496.579 193.494 496.609 193.491 496.637 193.502C496.664 193.512 496.687 193.535 496.7 193.565C499.403 198.557 502.106 203.549 504.82 208.404C507.535 213.258 510.379 218.051 513.19 222.843C514.79 225.564 516.326 228.347 517.937 231.055C518.002 231.155 517.851 231.267 517.786 231.167C516.239 228.871 514.639 226.624 513.158 224.266C511.676 221.907 510.303 219.611 508.93 217.239C506.111 212.389 503.415 207.447 500.841 202.413L500.073 200.916C499.857 200.679 499.63 200.466 499.414 200.254C499.035 199.88 498.668 199.493 498.332 199.106C497.629 198.322 496.968 197.488 496.354 196.61C496.354 196.61 496.332 196.435 496.386 196.485Z" fill="#263238"/>
<path d="M515.666 217.701C512.639 217.252 511.265 220.796 511.265 220.796C511.265 220.796 509.914 216.441 506.81 216.441C505.21 216.441 503.815 219.398 503.815 219.398C503.424 218.53 502.834 217.803 502.109 217.295C501.385 216.786 500.554 216.517 499.706 216.516C497.543 216.678 496.462 219.611 496.462 219.611C496.462 219.611 493.975 217.339 491.78 218.363C487.324 220.384 486.546 242.212 493.402 245.906C496.646 247.628 496.527 242.287 496.527 242.287C496.527 242.287 498.224 249.949 502.117 250.249C506.01 250.549 505.567 243.61 505.567 243.61C505.567 243.61 507.264 251.01 511.33 250.848C515.396 250.686 514.088 243.834 514.088 243.834C514.088 243.834 516.769 248.826 519.851 247.878C524.955 246.318 519.181 235.997 520.338 231.242H530.935C530.935 231.242 523.192 218.849 515.666 217.701Z" fill="#AD6359"/>
<path d="M491.206 224.004C486.946 224.815 482.999 218.026 478.836 218.125C473.191 218.25 476.781 229.258 484.556 231.192H491.185L491.206 224.004Z" fill="#AD6359"/>
<path d="M496.213 220.047C496.213 219.973 496.127 219.948 496.116 220.047C494.253 227.428 494.377 235.289 496.473 242.586C496.548 242.811 496.905 242.773 496.862 242.511C495.704 235.099 495.485 227.532 496.213 220.047Z" fill="#263238"/>
<path d="M503.782 219.299C503.777 219.282 503.767 219.268 503.755 219.259C503.742 219.249 503.727 219.244 503.712 219.244C503.697 219.244 503.682 219.249 503.67 219.259C503.657 219.268 503.647 219.282 503.642 219.299C501.663 227.456 502.272 236.162 505.361 243.847C505.48 244.109 505.815 244.221 505.696 243.847C503.815 238.555 503.004 226.3 503.782 219.299Z" fill="#263238"/>
<path d="M514.466 244.284C511.503 236.796 510.93 228.858 511.352 220.671C511.352 220.559 511.233 220.559 511.2 220.671C510.054 224.615 510.249 229.869 510.714 233.95C511.072 237.741 512.288 241.356 514.239 244.433C514.315 244.533 514.531 244.446 514.466 244.284Z" fill="#263238"/>
<path d="M488.957 223.791C488.219 226.147 487.931 228.659 488.114 231.155C488.114 231.267 488.276 231.292 488.287 231.155C488.417 229.907 488.73 226.088 489.13 223.816C489.152 223.741 489.001 223.692 488.957 223.791Z" fill="#263238"/>
<mask id="mask0_64_825" style="mask-type:luminance" maskUnits="userSpaceOnUse" x="177" y="94" width="356" height="257">
<path d="M532.048 94.5485H177.977V350.825H532.048V94.5485Z" fill="white"/>
</mask>
<g mask="url(#mask0_64_825)">
<path d="M262.894 195.824C261.358 222.83 260.169 250.648 262.234 277.63C263.835 298.659 271.328 316.044 290.197 321.435C307.693 326.427 332.694 326.352 347.659 313.111C354.623 306.933 357.11 298.135 356.743 288.226C356.234 274.498 347.465 198.994 344.848 175.469C343.28 161.129 341.755 146.603 337.992 132.725C330.088 103.609 317.652 103.696 315.933 103.097C314.452 101.974 304.947 96.9447 291.311 101.774C287.75 103.033 284.459 105.143 281.653 107.969C278.847 110.795 276.589 114.272 275.026 118.173C265.046 141.336 264.354 170.539 262.894 195.824Z" fill="#263238"/>
<path d="M319.772 107.166C334.662 115.415 338.057 134.31 341.528 151.258C346.362 174.845 350.839 198.532 354.321 222.394C355.997 233.888 357.446 245.432 358.646 257.001C359.727 268.083 361.511 279.914 360.809 291.096C359.576 309.566 344.837 317.803 330.618 320.262C330.474 320.292 330.327 320.254 330.207 320.158C330.087 320.062 330.005 319.916 329.98 319.75C329.954 319.585 329.986 319.414 330.069 319.276C330.152 319.138 330.28 319.044 330.423 319.014C338.522 317.267 346.805 314.771 352.882 307.919C360.69 299.183 359.9 287.527 359.089 275.983C357.716 256.314 355.369 236.758 352.417 217.327C349.465 197.895 345.929 178.551 342.101 159.307C338.468 140.987 335.927 116.875 319.761 107.403C319.534 107.328 319.621 107.078 319.772 107.166Z" fill="#263238"/>
<path d="M267.954 134.247C270.928 120.157 277.416 106.467 290.338 102.523C273.621 108.451 269.371 129.405 266.992 146.94C264.498 165.368 262.591 183.897 261.272 202.525C259.996 220.422 259.044 238.455 259.185 256.427C259.336 275.808 262.213 294.004 271.977 310.091C272.009 310.156 272.021 310.233 272.009 310.307C271.997 310.382 271.964 310.449 271.914 310.498C271.864 310.547 271.801 310.574 271.735 310.575C271.67 310.576 271.606 310.55 271.555 310.502C261.91 297.461 258.828 279.627 258.201 262.954C257.368 240.989 258.806 218.687 260.493 196.81C262.104 176.08 263.683 154.552 267.954 134.247Z" fill="#263238"/>
<path d="M409.306 294.016L400.364 365.552C400.364 365.552 353.661 366.488 335.484 354.17C313.446 339.194 293.571 246.455 291.257 231.429C287.451 206.756 292.025 193.428 302.481 199.381C306.547 201.652 311.511 206.869 317.198 215.505C323.156 224.515 356.418 281.724 367.967 293.754C374.455 300.481 409.306 294.016 409.306 294.016Z" fill="#EBEBEB"/>
<path d="M389.28 360.36C390.361 349.739 395.995 306.471 397.768 297.224C397.887 296.575 398.266 296.512 398.212 297.224C395.736 329.123 391.14 350.064 389.648 360.41C389.637 360.672 389.28 360.672 389.28 360.36Z" fill="#263238"/>
<path d="M380.727 364.965C365.729 363.942 345.919 361.221 335.505 354.17C313.468 339.194 293.593 246.455 291.279 231.429C287.472 206.756 292.047 193.428 302.503 199.381C302.836 199.561 303.161 199.761 303.476 199.98L380.727 364.965Z" fill="#263238"/>
<path d="M323.957 350.813L321.156 297.261C321.156 297.261 333.635 281.324 330.888 266.935C329.493 259.646 307.953 204.235 305.844 201.964C297.356 192.841 283.039 196.473 277.167 201.602C244.619 229.994 221.673 290.921 210.665 350.813H323.957Z" fill="#80BBDA"/>
<path d="M323.957 350.813L321.156 297.261C321.156 297.261 333.635 281.324 330.888 266.935C329.493 259.646 307.953 204.235 305.844 201.964C297.356 192.841 283.039 196.473 277.167 201.602C244.619 229.994 221.673 290.921 210.665 350.813H323.957Z" fill="#80BBDA"/>
<path d="M321.156 297.274L323.924 350.825H210.676C221.673 290.921 244.619 229.994 277.167 201.602C277.589 201.24 278.054 200.891 278.551 200.541L279.395 199.992C279.719 199.78 280.065 199.593 280.476 199.393L281.017 199.118L313.306 290.01L305.942 202.001C307.726 204.198 321.08 238.068 327.568 256.302C327.598 256.346 327.62 256.397 327.633 256.452L328.639 259.359C328.758 259.709 328.877 260.058 328.996 260.383C329.169 260.919 329.342 261.444 329.504 261.918C330.068 263.55 330.556 265.217 330.964 266.91C333.667 281.324 321.156 297.274 321.156 297.274Z" fill="#EBEBEB"/>
<path d="M279.395 199.992C276.638 208.853 273.761 217.664 270.95 226.5L270.474 225.663L287.029 226.125H288.11L287.667 227.298L282.077 242.174L281.968 241.126L298.124 265.949L306.201 278.366L314.203 290.846L312.332 291.47L314.171 264.926C314.755 256.065 315.468 247.229 316.128 238.381L316.268 238.93L308.483 226.375L308.072 225.688L308.731 225.401L313.803 223.155L313.554 223.841C310.991 216.566 308.396 209.302 305.898 201.989C308.775 209.115 311.565 216.278 314.387 223.43L314.571 223.916L314.138 224.128L309.142 226.624L309.38 225.651L317.425 237.994L317.577 238.231V238.543C317.09 247.404 316.647 256.264 316.063 265.125L314.419 291.695L314.225 294.878L312.559 292.382L304.503 279.902L296.512 267.422L280.541 242.462L280.217 241.962L280.444 241.413L286.348 226.687L286.997 227.935L270.463 227.011H269.695L269.987 226.225C273.112 217.364 276.183 208.653 279.395 199.992Z" fill="#DBDBDB"/>
<path d="M305.379 197.995C305.379 197.995 305.715 217.589 302.622 217.813C293.106 218.512 282.92 203.075 282.401 200.666C282.271 200.054 283.428 184.879 284.347 173.098C284.942 165.51 285.429 159.37 285.429 159.37L309.261 176.193L305.617 196.535L305.379 197.995Z" fill="#EB9481"/>
<path d="M309.261 176.193L305.617 196.535C300.853 194.564 296.501 191.459 292.845 187.421C289.188 183.384 286.307 178.503 284.391 173.098C284.985 165.51 285.472 159.37 285.472 159.37L288.478 161.341L309.261 176.193Z" fill="#263238"/>
<path d="M335.094 144.481C339.236 180.673 320.951 187.574 314.192 188.598C308.061 189.521 287.083 191.78 279.73 156.324C272.377 120.869 285.623 107.228 299.529 104.245C313.435 101.263 330.953 108.339 335.094 144.481Z" fill="#EB9481"/>
<path d="M328.725 139.863C327.999 139.793 327.277 139.672 326.563 139.502C325.779 139.5 325.018 139.197 324.4 138.64C324.23 138.427 324.129 138.153 324.116 137.864C324.102 137.574 324.176 137.289 324.324 137.055C324.66 136.636 325.086 136.328 325.56 136.163C326.033 135.999 326.537 135.984 327.017 136.119C328.034 136.209 328.984 136.74 329.677 137.605C329.826 137.808 329.921 138.056 329.949 138.32C329.978 138.584 329.94 138.852 329.839 139.092C329.738 139.331 329.579 139.532 329.381 139.668C329.184 139.805 328.956 139.873 328.725 139.863Z" fill="#263238"/>
<path d="M307.499 142.197C308.212 142.016 308.916 141.791 309.607 141.523C310.375 141.406 311.089 141.003 311.64 140.375C311.778 140.136 311.844 139.852 311.829 139.566C311.813 139.279 311.717 139.007 311.554 138.79C311.173 138.42 310.715 138.173 310.225 138.074C309.734 137.976 309.23 138.029 308.764 138.228C307.769 138.469 306.889 139.133 306.298 140.088C306.17 140.312 306.101 140.575 306.101 140.843C306.101 141.112 306.168 141.375 306.296 141.599C306.424 141.824 306.606 142 306.82 142.106C307.034 142.213 307.27 142.244 307.499 142.197Z" fill="#263238"/>
<path d="M313.219 150.596C313.219 150.496 313.057 150.733 313.068 150.833C313.327 153.329 313.251 156.175 311.37 157.186C311.316 157.186 311.37 157.335 311.37 157.323C313.738 156.699 313.803 152.88 313.219 150.596Z" fill="#263238"/>
<path d="M311.121 148.2C307.65 148.2 307.964 156.237 311.121 156.212C314.279 156.187 314.019 148.163 311.121 148.2Z" fill="#263238"/>
<path d="M309.77 148.699C309.186 149.174 308.623 149.947 307.899 150.134C307.174 150.322 306.385 149.473 305.801 148.687C305.736 148.612 305.682 148.687 305.682 148.787C305.682 150.322 306.298 151.869 307.726 152.031C309.153 152.194 309.888 150.783 310.191 149.198C310.235 148.911 310.007 148.512 309.77 148.699Z" fill="#263238"/>
<path d="M325.016 149.236C325.016 149.136 325.189 149.348 325.189 149.448C325.189 151.944 325.579 154.777 327.557 155.513C327.569 155.519 327.579 155.529 327.586 155.541C327.593 155.553 327.596 155.567 327.596 155.582C327.596 155.597 327.593 155.611 327.586 155.623C327.579 155.635 327.569 155.645 327.557 155.651C325.157 155.364 324.681 151.595 325.016 149.236Z" fill="#263238"/>
<path d="M326.855 146.553C330.293 146.103 330.834 154.041 327.644 154.515C324.454 154.989 323.957 146.94 326.855 146.553Z" fill="#263238"/>
<path d="M328.325 146.952C328.909 147.326 329.493 148.05 330.153 148.038C330.812 148.025 331.418 147.114 331.85 146.241C331.85 146.153 331.948 146.241 331.958 146.328C332.099 147.851 331.764 149.473 330.51 149.885C329.255 150.297 328.433 149.024 328.012 147.526C327.936 147.264 328.098 146.802 328.325 146.952Z" fill="#263238"/>
<path d="M313.414 170.04C313.933 170.627 314.495 171.425 315.23 171.5C316.028 171.486 316.814 171.273 317.534 170.876C317.609 170.876 317.674 170.876 317.631 171.001C317.325 171.49 316.91 171.874 316.43 172.111C315.95 172.349 315.423 172.431 314.906 172.349C314.466 172.219 314.069 171.941 313.766 171.55C313.464 171.159 313.27 170.672 313.208 170.152C313.176 170.015 313.338 169.965 313.414 170.04Z" fill="#263238"/>
<path d="M321.945 160.493C321.945 160.493 322.573 164.162 322.659 165.909C322.659 166.071 322.302 166.171 321.794 166.246C320.508 166.606 319.161 166.551 317.9 166.086C316.639 165.622 315.514 164.766 314.646 163.613C314.538 163.451 314.722 163.251 314.863 163.351C316.865 164.747 319.206 165.355 321.534 165.085C321.621 164.599 320.28 158.845 320.518 158.845C321.699 158.886 322.87 159.109 324 159.507C322.919 151.819 320.756 144.394 319.675 136.718C319.667 136.662 319.677 136.604 319.703 136.555C319.729 136.507 319.77 136.471 319.817 136.454C319.865 136.437 319.916 136.441 319.961 136.464C320.007 136.488 320.043 136.529 320.064 136.581C322.821 144.169 324.27 152.992 325.6 160.905C325.741 161.853 322.562 160.742 321.945 160.493Z" fill="#263238"/>
<path d="M320.075 165.847C319.331 166.994 318.344 167.901 317.209 168.48C316.585 168.773 315.897 168.834 315.241 168.655C313.803 168.243 313.749 166.733 313.998 165.435C314.152 164.757 314.377 164.103 314.668 163.488C316.209 164.914 318.102 165.74 320.075 165.847Z" fill="#263238"/>
<path d="M317.231 168.48C316.606 168.773 315.919 168.834 315.263 168.655C313.825 168.243 313.77 166.733 314.019 165.435C314.772 165.456 315.497 165.767 316.08 166.319C316.662 166.871 317.067 167.632 317.231 168.48Z" fill="#FF99BA"/>
<path d="M281.471 154.116C288.781 153.903 288.316 140.612 288.316 140.612C288.316 140.612 296.577 139.364 296.718 123.951C296.718 123.951 301.043 133.112 312.267 134.559C314.657 134.871 306.482 128.07 306.482 128.07C306.482 128.07 316.322 137.667 333.927 133.174C335.181 132.85 331.861 111.384 317.707 104.582C303.552 97.7808 291.181 102.461 282.888 112.932C282.888 112.932 272.853 118.747 272.074 129.929C271.296 141.111 278.627 154.19 281.471 154.116Z" fill="#263238"/>
<path d="M308.591 163.75C306.745 163.737 304.939 163.126 303.379 161.986C301.819 160.847 300.567 159.225 299.767 157.305C298.966 155.386 298.648 153.245 298.85 151.127C299.051 149.009 299.763 146.999 300.906 145.325C302.048 143.651 303.575 142.381 305.312 141.66C307.049 140.938 308.926 140.793 310.731 141.243C312.536 141.692 314.195 142.716 315.52 144.2C316.845 145.684 317.782 147.567 318.226 149.635C318.584 151.318 318.605 153.072 318.288 154.765C317.971 156.459 317.323 158.046 316.394 159.407C315.465 160.768 314.279 161.867 312.927 162.619C311.575 163.372 310.092 163.758 308.591 163.75ZM308.71 142.534C307.999 142.525 307.291 142.621 306.601 142.821C304.491 143.422 302.659 144.929 301.478 147.035C300.296 149.141 299.855 151.687 300.243 154.155C300.632 156.623 301.821 158.828 303.569 160.32C305.316 161.811 307.49 162.478 309.649 162.184C311.808 161.891 313.788 160.658 315.187 158.738C316.586 156.818 317.298 154.355 317.178 151.85C317.058 149.345 316.116 146.987 314.542 145.257C312.969 143.526 310.883 142.552 308.71 142.534Z" fill="#80BBDA"/>
<path d="M331.061 160.73C327.287 160.73 323.892 156.225 323.329 150.322C323.01 147.506 323.468 144.645 324.638 142.147C325.081 141.038 325.766 140.08 326.624 139.366C327.483 138.652 328.487 138.206 329.539 138.071C330.591 137.937 331.656 138.119 332.629 138.599C333.602 139.079 334.452 139.841 335.094 140.812C336.716 142.97 337.704 145.666 337.917 148.512C338.522 154.752 335.754 160.243 331.71 160.755C331.494 160.738 331.277 160.73 331.061 160.73ZM330.185 139.514C330.02 139.501 329.853 139.501 329.688 139.514C328.854 139.662 328.064 140.039 327.385 140.615C326.705 141.191 326.156 141.948 325.784 142.821C324.755 145.04 324.354 147.576 324.638 150.072C325.157 155.476 328.25 159.532 331.569 159.108C334.889 158.683 337.127 153.941 336.608 148.537C336.412 146.032 335.538 143.661 334.11 141.76C333.625 141.097 333.025 140.558 332.35 140.178C331.674 139.798 330.937 139.584 330.185 139.551V139.514Z" fill="#80BBDA"/>
<path d="M318.02 151.008L317.069 149.96C318.409 148.325 321.664 145.941 324.346 148.599L323.481 149.748C321.091 147.351 318.139 150.833 318.02 151.008Z" fill="#80BBDA"/>
<path d="M274.659 159.482L273.437 158.933C273.653 158.271 275.664 152.431 278.541 151.52C281.233 150.659 298.978 150.272 299.724 150.272V151.794C294.642 151.894 280.952 152.293 278.876 152.955C276.962 153.591 275.167 157.885 274.659 159.482Z" fill="#80BBDA"/>
<path d="M285.029 158.346C285.029 158.346 277.697 147.339 273.339 150.396C268.982 153.454 274.799 169.678 280.13 171.612C280.803 171.921 281.523 172.068 282.247 172.045C282.971 172.023 283.683 171.83 284.34 171.48C284.998 171.13 285.587 170.629 286.071 170.008C286.556 169.388 286.926 168.659 287.159 167.868L285.029 158.346Z" fill="#EB9481"/>
<path d="M275.102 155.002C275.088 155.008 275.076 155.019 275.067 155.034C275.059 155.048 275.054 155.065 275.054 155.083C275.054 155.1 275.059 155.117 275.067 155.132C275.076 155.146 275.088 155.157 275.102 155.164C278.854 156.699 280.941 160.53 282.455 164.536C281.298 163.026 279.773 162.24 278.011 163.837C277.995 163.859 277.985 163.885 277.983 163.913C277.981 163.941 277.986 163.969 277.998 163.993C278.009 164.017 278.027 164.037 278.049 164.049C278.071 164.062 278.095 164.066 278.119 164.062C278.756 163.783 279.453 163.743 280.111 163.947C280.769 164.15 281.354 164.588 281.785 165.198C282.503 166.213 283.127 167.313 283.645 168.48C283.828 168.854 284.423 168.617 284.272 168.193V168.093C284.099 162.677 280.163 155.289 275.102 155.002Z" fill="#263238"/>
<path d="M283.028 169.903C283.028 170.15 282.965 170.391 282.846 170.596C282.727 170.801 282.558 170.961 282.361 171.056C282.163 171.15 281.946 171.175 281.736 171.127C281.526 171.079 281.333 170.96 281.182 170.785C281.031 170.611 280.928 170.388 280.886 170.146C280.845 169.904 280.866 169.653 280.948 169.425C281.03 169.197 281.168 169.002 281.346 168.865C281.524 168.728 281.733 168.655 281.947 168.655C282.234 168.655 282.509 168.786 282.711 169.02C282.914 169.254 283.028 169.572 283.028 169.903Z" fill="white"/>
<path d="M279.903 167.756C279.903 167.971 279.829 168.178 279.697 168.33C279.565 168.482 279.387 168.567 279.2 168.567C279.014 168.567 278.835 168.482 278.703 168.33C278.571 168.178 278.497 167.971 278.497 167.756C278.497 167.541 278.571 167.335 278.703 167.183C278.835 167.03 279.014 166.945 279.2 166.945C279.387 166.945 279.565 167.03 279.697 167.183C279.829 167.335 279.903 167.541 279.903 167.756Z" fill="white"/>
<path d="M303.606 247.229C303.606 247.229 296.199 235.997 303.26 230.755C310.321 225.514 316.074 238.056 316.074 238.056L303.606 247.229Z" fill="#455A64"/>
<path d="M362.182 321.447L363.209 335.238L363.577 339.781L360.116 337.522L349.714 330.62L303.357 246.755L315.836 237.569L362.193 321.447H362.182Z" fill="#455A64"/>
<path d="M363.22 335.25L363.577 339.805L360.116 337.534L363.22 335.25Z" fill="#37474F"/>
<path d="M316.609 236.371L302.051 247.091L303.894 250.426L318.452 239.706L316.609 236.371Z" fill="#263238"/>
<path d="M318.643 240.072L304.085 250.792L305.929 254.128L320.487 243.407L318.643 240.072Z" fill="#263238"/>
<path d="M305.931 254.105L310.624 250.636L324.811 282.884L323.016 284.045L305.931 254.105Z" fill="#263238"/>
<path d="M256.827 222.044C220.592 266.373 179.155 341.615 195.97 358.301C211.314 373.551 268.646 360.797 304.806 345.484C311.694 342.564 285.277 272.176 278.238 276.157C270.806 280.446 263.149 284.197 255.314 287.389C253.335 287.951 263.499 261.082 275.978 228.496C289.905 192.192 277.578 196.697 256.827 222.044Z" fill="#EB9481"/>
<path d="M365.491 273.075C365.383 281.187 348.092 279.165 348.092 279.165C350.581 281.151 352.39 284.077 353.207 287.439C354.407 293.442 346.719 298.247 346.719 298.247C348.934 300.928 350.399 304.315 350.925 307.969C351.563 313.847 344.437 319.962 344.437 319.962C345.285 323.721 344.936 327.707 343.453 331.194C339.128 340.317 325.33 340.18 316.744 342.039C307.128 344.369 297.69 347.587 288.521 351.661L273.967 278.479C273.967 278.479 311.5 253.98 321.848 254.767C330.683 255.491 365.685 260.695 365.491 273.075Z" fill="#EB9481"/>
<path d="M347.973 278.94C338.847 275.633 329.071 274.86 319.62 274.223C319.404 274.223 319.393 274.597 319.62 274.597C329.028 275.109 338.544 278.516 347.908 279.452C347.962 279.451 348.014 279.428 348.054 279.387C348.094 279.346 348.121 279.29 348.129 279.228C348.136 279.167 348.125 279.104 348.097 279.051C348.068 278.999 348.024 278.959 347.973 278.94Z" fill="#263238"/>
<path d="M346.556 297.423C344.426 296.897 342.244 296.7 340.068 296.837C337.754 296.837 335.451 296.837 333.137 296.912C328.523 297.053 323.91 297.324 319.296 297.723C319.091 297.723 319.058 298.097 319.296 298.097C323.903 297.972 328.509 297.923 333.116 298.022C335.415 298.072 337.718 298.143 340.025 298.235C342.184 298.484 344.36 298.454 346.513 298.147C346.584 298.132 346.649 298.09 346.697 298.028C346.745 297.966 346.774 297.888 346.779 297.805C346.783 297.722 346.764 297.639 346.724 297.57C346.684 297.501 346.625 297.449 346.556 297.423Z" fill="#263238"/>
<path d="M344.351 319.95C342.556 319.288 340.328 319.7 338.479 319.8C336.374 319.908 334.269 320.004 332.164 320.087C327.947 320.262 323.74 320.424 319.534 320.424C319.497 320.435 319.464 320.46 319.44 320.495C319.417 320.53 319.404 320.573 319.404 320.617C319.404 320.662 319.417 320.705 319.44 320.74C319.464 320.775 319.497 320.8 319.534 320.811C323.859 320.811 328.098 320.923 332.369 320.911C334.478 320.911 336.576 320.911 338.674 320.836C340.469 320.836 342.696 320.998 344.383 320.199C344.403 320.185 344.419 320.165 344.428 320.14C344.438 320.116 344.442 320.089 344.438 320.062C344.435 320.036 344.425 320.011 344.409 319.991C344.393 319.971 344.373 319.957 344.351 319.95Z" fill="#263238"/>
<path d="M274.659 202.563C248.707 219.748 180.183 324.068 191.396 353.883C202.609 383.698 285.699 354.42 285.699 354.42L280.66 274.398C280.66 274.398 258.666 287.614 257.952 286.329C257.238 285.043 270.928 249.088 276.421 234.462C281.914 219.835 288.467 193.44 274.659 202.563Z" fill="#EBEBEB"/>
<path d="M275.416 349.515C274.194 338.919 270.539 295.377 270.301 285.867C270.301 285.205 270.647 285.031 270.733 285.717C275.059 317.354 275.059 338.944 275.783 349.365C275.794 349.702 275.448 349.789 275.416 349.515Z" fill="#263238"/>
<path d="M280.152 274.448C277.729 275.381 275.372 276.528 273.102 277.88C271.036 278.978 268.971 280.076 266.927 281.212C262.472 283.708 258.071 286.204 253.681 288.875C249.291 291.545 244.933 294.154 240.607 296.899C236.282 299.645 232.108 302.665 227.794 305.423C227.599 305.548 227.794 305.885 227.978 305.76C232.368 303.089 236.909 300.768 241.343 298.272L254.394 290.784C258.72 288.288 263.11 285.854 267.446 283.296C269.609 282.048 271.696 280.8 273.815 279.552C276.142 278.344 278.393 276.951 280.552 275.384C280.617 275.3 280.659 275.196 280.673 275.085C280.686 274.973 280.67 274.86 280.627 274.759C280.584 274.658 280.516 274.575 280.431 274.519C280.346 274.464 280.249 274.439 280.152 274.448Z" fill="#263238"/>
<path d="M273.577 251.272C272.204 253.182 270.842 255.104 269.544 257.088C269.306 257.45 269.09 257.837 268.852 258.211L269.933 255.116C271.352 251.551 272.598 247.897 273.664 244.171C273.664 243.997 273.491 243.922 273.415 244.059C271.696 247.645 270.147 251.336 268.776 255.116C267.327 258.735 265.846 262.355 264.451 265.999C263.056 269.643 261.618 273.3 260.288 276.994C258.854 280.564 257.65 284.251 256.687 288.026C256.687 288.251 256.903 288.338 257.011 288.163C258.833 284.649 260.423 280.982 261.769 277.193C263.207 273.549 264.548 269.868 265.932 266.211C266.516 264.676 267.068 263.128 267.63 261.581L268.322 260.545C268.971 259.597 269.576 258.611 270.171 257.625C271.393 255.565 272.528 253.469 273.653 251.385C273.661 251.372 273.665 251.356 273.664 251.34C273.664 251.325 273.659 251.309 273.65 251.297C273.642 251.284 273.63 251.275 273.617 251.271C273.604 251.267 273.59 251.267 273.577 251.272Z" fill="#263238"/>
<path d="M297.226 264.576L295.377 265.612L280.52 242.374L280.195 241.875L280.422 241.326L285.829 227.735L270.398 226.874H269.63L269.922 226.088C273.069 217.352 276.14 208.678 279.352 200.017C276.681 208.603 273.945 217.152 271.166 225.713L286.986 226.15H288.067L287.624 227.323L282.217 241.638L297.226 264.576Z" fill="#DBDBDB"/>
<path d="M270.474 225.663H271.209L270.95 226.475L270.474 225.663Z" fill="#DBDBDB"/>
<path d="M281.968 241.151L282.282 241.638L282.077 242.199L281.968 241.151Z" fill="#DBDBDB"/>
<path d="M286.326 226.624L286.975 227.822L285.872 227.76L286.326 226.624Z" fill="#DBDBDB"/>
<path d="M397.704 366.138L325.07 372.216L352.223 261.855L424.845 255.778L397.704 366.138Z" fill="white"/>
<path d="M402.667 365.726L330.045 371.804L357.197 261.444L429.819 255.353L402.667 365.726Z" fill="#455A64"/>
<path d="M364.918 260.832C364.731 261.782 364.383 262.68 363.895 263.474C363.407 264.269 362.788 264.944 362.074 265.462C361.414 265.949 361.155 264.925 361.814 264.464C362.73 263.764 363.413 262.725 363.75 261.518C363.808 261.324 363.852 261.123 363.879 260.919C364.037 260.245 364.037 259.535 363.879 258.86C363.809 258.574 363.651 258.326 363.436 258.161C363.418 258.165 363.4 258.165 363.382 258.161C363.382 258.161 363.306 258.161 363.296 258.161H363.155C362.982 258.13 362.804 258.16 362.647 258.249C362.337 258.402 362.063 258.637 361.847 258.935C361.581 259.314 361.363 259.734 361.198 260.183C361.09 260.383 361.014 260.595 360.917 260.82V260.969C360.878 261.037 360.852 261.114 360.841 261.194C360.836 261.244 360.836 261.294 360.841 261.344L359.814 261.431C360.01 260.669 360.297 259.942 360.668 259.272C360.945 258.695 361.326 258.193 361.785 257.799C362.243 257.405 362.769 257.129 363.328 256.988C363.738 256.945 364.146 257.086 364.468 257.381C364.79 257.676 365.001 258.103 365.058 258.573C365.162 259.329 365.114 260.101 364.918 260.832Z" fill="#80BBDA"/>
<path d="M370.595 260.333C370.212 262.245 369.195 263.908 367.761 264.963C367.091 265.45 366.842 264.426 367.502 263.964C368.418 263.264 369.1 262.226 369.438 261.019C369.438 260.832 369.535 260.607 369.567 260.408C369.725 259.738 369.725 259.031 369.567 258.361C369.496 258.068 369.335 257.815 369.113 257.65H369.016H368.875C368.706 257.617 368.531 257.648 368.378 257.737C368.067 257.887 367.792 258.123 367.578 258.423C367.313 258.78 367.094 259.18 366.929 259.609C366.818 259.811 366.724 260.024 366.648 260.245V260.395C366.618 260.468 366.593 260.543 366.572 260.62C366.572 260.62 366.572 260.72 366.572 260.757L365.545 260.844C365.743 260.087 366.031 259.365 366.399 258.698C366.67 258.115 367.049 257.609 367.508 257.214C367.968 256.819 368.498 256.546 369.059 256.414C369.469 256.371 369.877 256.512 370.199 256.807C370.521 257.102 370.733 257.529 370.789 257.999C370.89 258.784 370.824 259.585 370.595 260.333Z" fill="#80BBDA"/>
<path d="M376.304 259.846C375.922 261.765 374.9 263.433 373.46 264.489C372.8 264.975 372.552 263.94 373.211 263.478C374.127 262.782 374.809 261.748 375.147 260.545C375.147 260.345 375.244 260.133 375.277 259.933C375.429 259.263 375.429 258.558 375.277 257.887C375.2 257.597 375.04 257.345 374.823 257.175H374.736H374.596C374.422 257.144 374.245 257.174 374.087 257.263C373.777 257.409 373.505 257.645 373.298 257.949C373.036 258.306 372.814 258.701 372.638 259.122C372.53 259.322 372.454 259.547 372.357 259.771V259.921C372.323 259.991 372.297 260.067 372.281 260.146C372.281 260.146 372.281 260.245 372.281 260.283L371.2 260.37C371.408 259.617 371.695 258.896 372.054 258.224C372.328 257.644 372.708 257.139 373.167 256.745C373.626 256.351 374.154 256.076 374.714 255.94C375.124 255.896 375.532 256.035 375.855 256.327C376.179 256.619 376.394 257.043 376.455 257.512C376.566 258.293 376.514 259.093 376.304 259.846Z" fill="#80BBDA"/>
<path d="M381.97 259.372C381.588 261.291 380.566 262.959 379.126 264.014C378.467 264.501 378.207 263.465 378.867 263.004C379.782 262.308 380.465 261.274 380.802 260.071C380.861 259.872 380.904 259.667 380.932 259.459C381.097 258.79 381.097 258.081 380.932 257.412C380.864 257.121 380.706 256.869 380.489 256.701H380.435C380.435 256.701 380.359 256.701 380.348 256.701C380.302 256.71 380.254 256.71 380.208 256.701C380.033 256.68 379.858 256.715 379.699 256.801C379.386 256.947 379.11 257.183 378.899 257.487C378.638 257.843 378.42 258.237 378.25 258.66C378.142 258.86 378.067 259.085 377.969 259.309V259.459C377.932 259.523 377.906 259.596 377.894 259.671C377.889 259.721 377.889 259.771 377.894 259.821L376.866 259.908C377.063 259.15 377.35 258.428 377.721 257.762C377.994 257.182 378.374 256.677 378.833 256.283C379.293 255.889 379.82 255.614 380.381 255.478C380.789 255.435 381.195 255.574 381.517 255.866C381.839 256.159 382.052 256.583 382.111 257.051C382.223 257.826 382.175 258.622 381.97 259.372Z" fill="#80BBDA"/>
<path d="M387.647 258.898C387.268 260.814 386.25 262.482 384.814 263.54C384.144 264.027 383.895 262.991 384.555 262.529C385.47 261.834 386.152 260.799 386.49 259.596C386.49 259.397 386.587 259.185 386.62 258.985C386.777 258.311 386.777 257.6 386.62 256.926C386.546 256.637 386.385 256.389 386.166 256.227C386.166 256.227 386.09 256.227 386.068 256.227C386.022 256.235 385.974 256.235 385.928 256.227C385.757 256.205 385.585 256.24 385.43 256.327C385.117 256.472 384.842 256.709 384.63 257.013C384.363 257.364 384.144 257.759 383.981 258.186C383.871 258.392 383.777 258.609 383.7 258.835V258.985C383.67 259.053 383.645 259.124 383.625 259.197C383.625 259.197 383.625 259.297 383.625 259.347L382.597 259.434C382.794 258.676 383.081 257.954 383.452 257.288C383.723 256.705 384.101 256.198 384.561 255.804C385.021 255.409 385.55 255.136 386.112 255.004C386.52 254.961 386.926 255.099 387.248 255.392C387.57 255.685 387.783 256.108 387.842 256.576C387.941 257.357 387.874 258.154 387.647 258.898Z" fill="#80BBDA"/>
<path d="M393.335 258.423C392.955 260.34 391.938 262.008 390.502 263.066C389.831 263.553 389.583 262.517 390.242 262.055C391.158 261.36 391.84 260.325 392.178 259.122C392.178 258.923 392.275 258.698 392.308 258.511C392.46 257.836 392.46 257.127 392.308 256.451C392.228 256.167 392.068 255.921 391.854 255.753H391.8C391.8 255.753 391.724 255.753 391.713 255.753H391.572C391.399 255.721 391.222 255.751 391.064 255.84C390.756 255.995 390.485 256.235 390.275 256.539C390.008 256.892 389.786 257.287 389.615 257.712C389.507 257.912 389.431 258.136 389.334 258.361V258.498C389.3 258.568 389.274 258.644 389.258 258.723C389.258 258.723 389.258 258.823 389.258 258.873L388.177 258.96C388.385 258.203 388.671 257.478 389.031 256.801C389.307 256.224 389.687 255.722 390.146 255.33C390.606 254.938 391.133 254.665 391.691 254.53C392.101 254.483 392.511 254.62 392.835 254.913C393.159 255.206 393.373 255.632 393.432 256.102C393.559 256.874 393.525 257.669 393.335 258.423Z" fill="#80BBDA"/>
<path d="M399.012 257.949C398.63 259.868 397.608 261.536 396.168 262.592C395.508 263.078 395.249 262.043 395.909 261.581C396.824 260.885 397.506 259.851 397.844 258.648C397.901 258.448 397.945 258.244 397.974 258.036C398.137 257.363 398.137 256.651 397.974 255.977C397.898 255.693 397.742 255.447 397.531 255.278C397.513 255.282 397.494 255.282 397.476 255.278C397.476 255.278 397.401 255.278 397.39 255.278H397.249C397.076 255.247 396.899 255.277 396.741 255.366C396.432 255.519 396.158 255.755 395.941 256.052C395.68 256.412 395.461 256.811 395.292 257.238C395.184 257.437 395.108 257.662 395.011 257.887V258.024C394.972 258.092 394.946 258.168 394.935 258.249C394.931 258.298 394.931 258.349 394.935 258.398L393.908 258.486C394.104 257.724 394.392 256.997 394.762 256.327C395.038 255.749 395.418 255.248 395.877 254.856C396.337 254.464 396.864 254.191 397.422 254.055C397.831 254.009 398.239 254.147 398.562 254.44C398.884 254.733 399.096 255.159 399.153 255.628C399.265 256.404 399.217 257.199 399.012 257.949Z" fill="#80BBDA"/>
<path d="M404.7 257.475C404.318 259.387 403.3 261.05 401.867 262.105C401.196 262.592 400.948 261.568 401.607 261.107C402.523 260.406 403.206 259.368 403.543 258.161C403.543 257.974 403.64 257.749 403.673 257.562C403.83 256.888 403.83 256.177 403.673 255.503C403.599 255.215 403.438 254.966 403.218 254.804C403.218 254.804 403.143 254.804 403.121 254.804H402.98C402.811 254.772 402.637 254.802 402.483 254.892C402.174 255.045 401.9 255.28 401.683 255.578C401.418 255.935 401.199 256.334 401.034 256.764C400.93 256.969 400.836 257.182 400.753 257.4V257.55C400.723 257.622 400.698 257.698 400.677 257.774C400.677 257.774 400.677 257.874 400.677 257.924L399.596 258.012C399.792 257.249 400.08 256.523 400.45 255.852C400.726 255.274 401.107 254.772 401.566 254.378C402.024 253.984 402.551 253.708 403.11 253.569C403.52 253.526 403.928 253.666 404.25 253.961C404.572 254.257 404.784 254.683 404.84 255.154C404.957 255.929 404.909 256.726 404.7 257.475Z" fill="#80BBDA"/>
<path d="M410.388 257.001C410.005 258.913 408.988 260.575 407.555 261.631C406.884 262.117 406.635 261.094 407.295 260.632C408.211 259.932 408.893 258.894 409.231 257.687C409.231 257.5 409.328 257.275 409.36 257.088C409.513 256.413 409.513 255.704 409.36 255.029C409.281 254.74 409.121 254.49 408.906 254.317H408.852C408.852 254.317 408.776 254.317 408.766 254.317H408.625C408.452 254.286 408.274 254.316 408.117 254.405C407.811 254.56 407.541 254.795 407.327 255.091C407.063 255.451 406.841 255.85 406.668 256.277C406.56 256.476 406.484 256.689 406.387 256.913V257.063C406.352 257.133 406.327 257.209 406.311 257.288C406.311 257.288 406.311 257.388 406.311 257.437L405.23 257.512C405.437 256.759 405.724 256.038 406.084 255.366C406.36 254.787 406.74 254.284 407.199 253.89C407.658 253.496 408.185 253.22 408.744 253.082C409.155 253.039 409.564 253.179 409.888 253.474C410.212 253.769 410.426 254.196 410.485 254.667C410.613 255.443 410.58 256.243 410.388 257.001Z" fill="#80BBDA"/>
<path d="M416.075 256.526C415.691 258.441 414.669 260.104 413.232 261.156C412.572 261.643 412.323 260.62 412.972 260.158C413.888 259.458 414.57 258.419 414.908 257.213C414.967 257.014 415.011 256.809 415.037 256.601C415.202 255.932 415.202 255.224 415.037 254.555C414.969 254.263 414.811 254.011 414.594 253.843C414.594 253.843 414.594 253.843 414.54 253.843H414.453H414.313C414.14 253.811 413.962 253.842 413.805 253.931C413.491 254.076 413.216 254.313 413.004 254.617C412.746 254.975 412.528 255.369 412.356 255.79C412.247 256.002 412.172 256.214 412.074 256.439V256.589C412.035 256.656 412.01 256.733 411.999 256.813C411.999 256.813 411.999 256.913 411.999 256.951L410.972 257.038C411.17 256.281 411.457 255.559 411.826 254.892C412.1 254.312 412.479 253.807 412.939 253.413C413.398 253.018 413.926 252.744 414.486 252.608C414.895 252.565 415.304 252.705 415.626 253C415.948 253.296 416.159 253.722 416.216 254.193C416.33 254.972 416.282 255.772 416.075 256.526Z" fill="#80BBDA"/>
<path d="M421.72 256.04C421.34 257.957 420.323 259.624 418.887 260.682C418.216 261.169 417.968 260.133 418.627 259.671C419.543 258.976 420.225 257.942 420.563 256.739C420.563 256.539 420.66 256.327 420.693 256.127C420.85 255.457 420.85 254.75 420.693 254.08C420.622 253.787 420.46 253.534 420.239 253.369C420.239 253.369 420.163 253.369 420.141 253.369C420.095 253.377 420.047 253.377 420.001 253.369C419.83 253.347 419.658 253.382 419.503 253.469C419.19 253.615 418.914 253.851 418.703 254.155C418.44 254.509 418.222 254.904 418.054 255.328C417.948 255.537 417.854 255.754 417.773 255.977V256.127C417.743 256.2 417.718 256.275 417.697 256.352C417.697 256.352 417.697 256.452 417.697 256.489L416.67 256.576C416.867 255.818 417.154 255.096 417.524 254.43C417.797 253.849 418.177 253.343 418.636 252.949C419.095 252.554 419.624 252.28 420.184 252.146C420.592 252.103 420.999 252.242 421.321 252.534C421.643 252.827 421.855 253.251 421.915 253.718C422.014 254.499 421.947 255.296 421.72 256.04Z" fill="#80BBDA"/>
<path d="M427.44 255.565C427.061 257.482 426.043 259.15 424.607 260.208C423.937 260.695 423.688 259.659 424.348 259.197C425.263 258.502 425.945 257.467 426.283 256.264C426.283 256.065 426.381 255.852 426.413 255.653C426.565 254.978 426.565 254.269 426.413 253.594C426.333 253.309 426.173 253.063 425.959 252.895C425.959 252.895 425.883 252.895 425.872 252.895C425.826 252.903 425.778 252.903 425.732 252.895C425.558 252.874 425.382 252.909 425.224 252.995C424.913 253.141 424.641 253.377 424.434 253.681C424.168 254.034 423.946 254.429 423.775 254.854C423.666 255.054 423.591 255.278 423.493 255.503V255.653C423.461 255.72 423.435 255.791 423.418 255.865C423.418 255.865 423.418 255.965 423.418 256.015L422.336 256.102C422.542 255.348 422.829 254.627 423.191 253.956C423.465 253.375 423.844 252.871 424.303 252.477C424.763 252.082 425.291 251.808 425.851 251.672C426.26 251.625 426.67 251.762 426.994 252.055C427.318 252.348 427.532 252.774 427.592 253.244C427.7 254.021 427.649 254.816 427.44 255.565Z" fill="#80BBDA"/>
<path d="M426.251 280.176C430.09 289.249 439.659 300.456 440.503 307.894C440.769 309.721 440.519 311.599 439.788 313.248C439.058 314.898 437.887 316.233 436.448 317.054C436.448 317.054 442.936 320.674 442.741 327.575C442.644 331.119 437.637 334.065 437.637 334.065C437.637 334.065 442.719 337.222 442.222 343.35C441.822 348.229 436.869 350.438 436.869 350.438C436.869 350.438 440.514 356.104 438.729 360.922C435.107 370.693 398.655 371.18 392.87 355.767C390.167 348.579 399.077 349.016 399.077 349.016C399.077 349.016 386.404 344.81 386.101 336.136C385.798 327.463 397.368 328.848 397.368 328.848C397.368 328.848 385.106 324.655 385.603 315.632C386.123 306.234 397.498 309.891 397.498 309.891C397.498 309.891 389.334 303.651 391.086 296.849C393.973 285.617 409.468 299.495 417.449 297.186L421.72 281.886L426.251 280.176Z" fill="#EB9481"/>
<path d="M433.69 293.28C430.695 284.319 440.243 273.087 438.448 264.039C436.026 251.809 424.185 264.039 421.709 281.836L421.893 296.076L433.69 293.28Z" fill="#EB9481"/>
<path d="M436.134 350.925C436.153 350.933 436.17 350.947 436.182 350.966C436.193 350.985 436.2 351.008 436.2 351.031C436.2 351.055 436.193 351.077 436.182 351.096C436.17 351.115 436.153 351.13 436.134 351.137C424.175 354.669 410.106 354.32 398.558 349.053C398.179 348.878 398.255 348.092 398.709 348.192C411.534 351 423.093 352.31 436.134 350.925Z" fill="#263238"/>
<path d="M437.81 334.139C437.951 334.139 437.983 334.402 437.81 334.439C425.472 338.008 409.631 337.11 396.936 329.235C396.503 328.96 396.352 328.211 396.871 328.486C405.673 332.979 426.045 335.462 437.81 334.139Z" fill="#263238"/>
<path d="M396.72 308.98C409.144 315.994 422.261 317.716 435.95 317.229C436.134 317.229 436.123 317.504 435.95 317.566C429.311 319.9 420.552 319.164 413.783 317.916C407.476 316.896 401.511 313.988 396.482 309.479C396.309 309.304 396.449 308.83 396.72 308.98Z" fill="#263238"/>
<path d="M366.507 173.01H358.938V163.55H350.741V154.814H358.938V145.355H366.507V154.752H374.704V163.488H366.507V173.01ZM360.019 171.762H365.426V162.302H373.622V156.062H365.426V146.603H360.019V156H351.823V162.24H360.019V171.762Z" fill="#80BBDA"/>
<path d="M214.158 257.924H206.589V248.464H198.392V239.728H206.535V230.256H214.104V239.728H222.311V248.464H214.104L214.158 257.924ZM207.67 256.676H213.077V247.216H221.284V240.976H213.077V231.504H207.67V240.976H199.474V247.216H207.616L207.67 256.676Z" fill="#80BBDA"/>
</g>
<path d="M673.033 558.705H549.977V371.604H673.033V558.705Z" fill="#455A64"/>
<path d="M661.365 383.598H561.645V546.699H661.365V383.598Z" fill="white"/>
<path d="M599.005 383.598H561.645V546.699H599.005V383.598Z" fill="#EBEBEB"/>
<path d="M586.158 416.607C585.267 417.246 584.292 417.714 583.271 417.993C580.696 418.716 577.978 418.231 575.712 416.645C573.445 415.059 571.817 412.501 571.182 409.531C570.744 407.463 570.81 405.295 571.372 403.268C571.935 401.24 572.972 399.432 574.37 398.042C575.768 396.653 577.471 395.736 579.292 395.395C581.113 395.053 582.98 395.299 584.687 396.105C586.395 396.912 587.875 398.248 588.966 399.965C590.056 401.683 590.714 403.714 590.866 405.836C591.018 407.958 590.659 410.087 589.828 411.988C588.998 413.889 587.727 415.488 586.158 416.607Z" fill="#A6A6A6"/>
<path d="M583.92 405.463C583.922 406.159 583.745 406.841 583.411 407.421C583.078 408.002 582.602 408.455 582.045 408.723C581.488 408.991 580.875 409.063 580.282 408.928C579.69 408.794 579.146 408.46 578.718 407.968C578.291 407.476 577.999 406.849 577.881 406.166C577.762 405.483 577.822 404.775 578.052 404.131C578.283 403.487 578.674 402.937 579.175 402.55C579.677 402.163 580.267 401.956 580.871 401.956C581.677 401.956 582.451 402.325 583.023 402.982C583.595 403.64 583.917 404.531 583.92 405.463Z" fill="white"/>
<path d="M586.158 415.16V416.607C585.267 417.246 584.292 417.713 583.271 417.993C581.983 418.364 580.642 418.431 579.331 418.191C578.019 417.951 576.763 417.408 575.637 416.595V415.16C575.605 414.339 575.717 413.52 575.967 412.751C576.217 411.982 576.599 411.279 577.091 410.685C577.582 410.091 578.173 409.619 578.827 409.296C579.482 408.973 580.186 408.807 580.898 408.807C581.609 408.807 582.314 408.973 582.968 409.296C583.622 409.619 584.213 410.091 584.705 410.685C585.196 411.279 585.579 411.982 585.829 412.751C586.078 413.52 586.191 414.339 586.158 415.16Z" fill="white"/>
<path d="M632.515 397.388H605.601V399.535H632.515V397.388Z" fill="#EBEBEB"/>
<path d="M652.109 403.329H605.601V405.475H652.109V403.329Z" fill="#EBEBEB"/>
<path d="M641.739 409.257H605.601V411.403H641.739V409.257Z" fill="#EBEBEB"/>
<path d="M626.46 421.125H605.601V423.272H626.46V421.125Z" fill="#EBEBEB"/>
<path d="M641.739 427.066H605.601V429.212H641.739V427.066Z" fill="#EBEBEB"/>
<path d="M652.109 433.006H605.601V435.153H652.109V433.006Z" fill="#EBEBEB"/>
<path d="M632.515 438.934H605.601V441.081H632.515V438.934Z" fill="#EBEBEB"/>
<path d="M652.109 450.815H605.601V452.962H652.109V450.815Z" fill="#EBEBEB"/>
<path d="M639.338 456.743H605.601V458.89H639.338V456.743Z" fill="#EBEBEB"/>
<path d="M630.655 462.683H605.601V464.83H630.655V462.683Z" fill="#EBEBEB"/>
<path d="M647.492 468.624H605.601V470.771H647.492V468.624Z" fill="#EBEBEB"/>
<path d="M639.338 480.492H605.601V482.639H639.338V480.492Z" fill="#EBEBEB"/>
<path d="M652.109 486.433H605.601V488.58H652.109V486.433Z" fill="#EBEBEB"/>
<path d="M647.492 498.301H605.601V500.448H647.492V498.301Z" fill="#EBEBEB"/>
<path d="M630.417 504.242H605.601V506.389H630.417V504.242Z" fill="#EBEBEB"/>
<path d="M652.109 510.17H605.601V512.316H652.109V510.17Z" fill="#EBEBEB"/>
<path d="M639.338 522.051H605.601V524.197H639.338V522.051Z" fill="#EBEBEB"/>
<path d="M652.109 527.979H605.601V530.125H652.109V527.979Z" fill="#EBEBEB"/>
<path d="M647.492 533.919H605.601V536.066H647.492V533.919Z" fill="#EBEBEB"/>
<path d="M583.25 427.066H570.901V429.212H583.25V427.066Z" fill="#A6A6A6"/>
<path d="M591.457 433.006H570.901V435.153H591.457V433.006Z" fill="#A6A6A6"/>
<path d="M588.083 438.934H570.901V441.081H588.083V438.934Z" fill="#A6A6A6"/>
<path d="M591.457 450.815H570.901V452.962H591.457V450.815Z" fill="#A6A6A6"/>
<path d="M592.744 456.743H570.901V458.89H592.744V456.743Z" fill="#A6A6A6"/>
<path d="M586.223 462.683H570.901V464.83H586.223V462.683Z" fill="#A6A6A6"/>
<path d="M589.002 468.624H570.901V470.771H589.002V468.624Z" fill="#A6A6A6"/>
<path d="M642.69 360.734H580.319V386.243H642.69V360.734Z" fill="#A6A6A6"/>
<path d="M633.694 370.631H589.316V350.838H633.694V370.631Z" fill="#A6A6A6"/>
<path d="M196.251 425.481H124.018V550.53H196.251V425.481Z" fill="#80BBDA"/>
<path d="M204.978 391.909H115.303V425.481H204.978V391.909Z" fill="#455A64"/>
<path d="M184.184 461.473H136.097V516.971H184.184V461.473Z" fill="white"/>
<path opacity="0.1" d="M124.018 425.481V435.215L164.687 452.974V550.53H184.184V425.481H124.018Z" fill="black"/>
<path d="M101.645 547.672C101.651 544.891 102.613 542.226 104.32 540.263C106.028 538.299 108.34 537.198 110.75 537.202H128.765C131.173 537.202 133.483 538.304 135.188 540.267C136.893 542.23 137.853 544.893 137.859 547.672C137.853 550.454 136.894 553.12 135.189 555.087C133.485 557.054 131.175 558.161 128.765 558.168H110.761C108.347 558.168 106.032 557.063 104.323 555.095C102.614 553.128 101.651 550.458 101.645 547.672Z" fill="#455A64"/>
<path d="M101.645 547.672C101.651 544.891 102.613 542.226 104.32 540.263C106.028 538.299 108.34 537.198 110.75 537.202H119.768V558.205H110.75C109.553 558.204 108.368 557.93 107.263 557.4C106.157 556.87 105.153 556.093 104.308 555.115C103.462 554.137 102.792 552.976 102.335 551.699C101.878 550.422 101.644 549.054 101.645 547.672Z" fill="#80BBDA"/>
<path d="M225.242 547.66C225.236 550.441 224.274 553.106 222.567 555.07C220.86 557.033 218.547 558.134 216.137 558.131H198.122C196.929 558.132 195.748 557.863 194.645 557.337C193.543 556.812 192.54 556.041 191.696 555.069C190.851 554.097 190.181 552.942 189.723 551.671C189.266 550.399 189.029 549.037 189.028 547.66C189.031 544.877 189.99 542.21 191.695 540.242C193.399 538.274 195.711 537.167 198.122 537.164H216.137C218.549 537.167 220.861 538.274 222.568 540.241C224.275 542.208 225.236 544.876 225.242 547.66Z" fill="#455A64"/>
<path d="M225.242 547.66C225.236 550.441 224.274 553.106 222.567 555.07C220.86 557.033 218.547 558.134 216.137 558.131H207.119V537.164H216.137C218.549 537.167 220.861 538.274 222.568 540.241C224.275 542.208 225.236 544.876 225.242 547.66Z" fill="#80BBDA"/>
<path d="M245.679 551.94C244.835 552.914 243.834 553.686 242.732 554.213C241.63 554.74 240.449 555.011 239.256 555.011C238.063 555.011 236.882 554.74 235.78 554.213C234.678 553.686 233.676 552.914 232.833 551.94L220.095 537.239C219.251 536.266 218.582 535.11 218.125 533.838C217.669 532.566 217.434 531.203 217.434 529.826C217.434 528.449 217.669 527.086 218.125 525.814C218.582 524.542 219.251 523.386 220.095 522.413C221.803 520.448 224.117 519.345 226.529 519.345C228.94 519.345 231.254 520.448 232.962 522.413L245.701 537.114C247.393 539.088 248.341 541.755 248.337 544.532C248.333 547.31 247.378 549.973 245.679 551.94Z" fill="#455A64"/>
<path d="M245.679 551.94C244.835 552.914 243.834 553.686 242.732 554.213C241.63 554.74 240.449 555.011 239.256 555.011C238.063 555.011 236.882 554.74 235.78 554.213C234.678 553.686 233.676 552.914 232.833 551.94L226.453 544.577L239.321 529.726L245.701 537.089C247.4 539.064 248.352 541.736 248.348 544.52C248.344 547.304 247.384 549.972 245.679 551.94Z" fill="#80BBDA"/>
<path d="M163.281 568.664C163.287 565.882 164.249 563.217 165.956 561.254C167.664 559.291 169.976 558.19 172.386 558.193H190.401C191.594 558.191 192.775 558.461 193.878 558.986C194.981 559.512 195.983 560.282 196.827 561.255C197.672 562.227 198.342 563.382 198.8 564.653C199.257 565.924 199.494 567.287 199.495 568.664C199.495 571.449 198.537 574.119 196.832 576.09C195.127 578.06 192.814 579.169 190.401 579.172H172.386C169.972 579.169 167.658 578.06 165.951 576.09C164.244 574.121 163.284 571.45 163.281 568.664Z" fill="#455A64"/>
<path d="M163.281 568.664C163.287 565.882 164.249 563.217 165.956 561.254C167.664 559.291 169.976 558.19 172.386 558.193H181.404V579.197H172.386C171.189 579.195 170.004 578.921 168.899 578.391C167.793 577.861 166.789 577.085 165.944 576.107C165.098 575.129 164.428 573.968 163.971 572.691C163.514 571.414 163.28 570.045 163.281 568.664Z" fill="#80BBDA"/>
</svg>
