<svg width="22" height="27" viewBox="0 0 22 27" fill="none" xmlns="http://www.w3.org/2000/svg">
<path d="M11 27C9.48207 26.9927 8.25126 25.7903 8.23625 24.3H13.7362C13.7392 24.6609 13.6691 25.0189 13.53 25.353C13.1693 26.1657 12.4325 26.7585 11.55 26.946H11.5431H11.5225H11.4978H11.4854C11.3256 26.9787 11.1631 26.9967 11 27ZM22 22.95H0V20.25L2.75 18.9V11.475C2.67756 9.57031 3.11566 7.68032 4.0205 5.994C4.92118 4.43004 6.46071 3.31949 8.25 2.943V0H13.75V2.943C17.2961 3.7719 19.25 6.8013 19.25 11.475V18.9L22 20.25V22.95Z" fill="#444B59"/>
<circle cx="16.625" cy="5.625" r="3.225" fill="#EC5252" stroke="#EEF8FD" stroke-width="1.2"/>
</svg>
