<svg width="28" height="22" viewBox="0 0 28 22" fill="none" xmlns="http://www.w3.org/2000/svg">
<path d="M14.0002 17C10.8398 17 8.28146 14.5537 8.04605 11.4537L3.67523 8.07584C3.10064 8.79667 2.5719 9.55875 2.14523 10.3921C2.04992 10.5806 2.00025 10.7889 2.00025 11.0002C2.00025 11.2115 2.04992 11.4198 2.14523 11.6083C4.40481 16.0171 8.87813 19 14.0002 19C15.1214 19 16.2031 18.8333 17.2456 18.5641L15.0835 16.8912C14.7265 16.9602 14.3639 16.9966 14.0002 17ZM27.076 19.4208L22.4698 15.8608C23.869 14.6816 25.0198 13.2359 25.8552 11.6079C25.9505 11.4194 26.0001 11.2111 26.0001 10.9998C26.0001 10.7885 25.9505 10.5802 25.8552 10.3917C23.5956 5.98293 19.1223 3.00002 14.0002 3.00002C11.855 3.00262 9.74463 3.54267 7.86188 4.57085L2.56106 0.473778C2.49194 0.419989 2.41289 0.380349 2.32844 0.357122C2.24399 0.333895 2.1558 0.327536 2.06889 0.338409C1.98198 0.349282 1.89807 0.377174 1.82194 0.420491C1.74582 0.463808 1.67897 0.5217 1.62523 0.590861L0.807318 1.64377C0.698818 1.78335 0.6502 1.96031 0.672156 2.13573C0.694113 2.31114 0.784846 2.47066 0.924401 2.57919L25.4393 21.5262C25.5084 21.58 25.5875 21.6196 25.6719 21.6429C25.7564 21.6661 25.8446 21.6725 25.9315 21.6616C26.0184 21.6507 26.1023 21.6228 26.1784 21.5795C26.2546 21.5362 26.3214 21.4783 26.3752 21.4091L27.1935 20.3562C27.3019 20.2166 27.3505 20.0396 27.3285 19.8642C27.3064 19.6888 27.2156 19.5293 27.076 19.4208ZM19.421 13.5042L17.7835 12.2383C17.9214 11.8398 17.9946 11.4217 18.0002 11C18.0083 10.3826 17.8715 9.77191 17.6008 9.21698C17.3301 8.66204 16.9331 8.17832 16.4415 7.80468C15.9499 7.43104 15.3776 7.17789 14.7705 7.06556C14.1633 6.95324 13.5383 6.98487 12.9456 7.15792C13.1969 7.49838 13.3328 7.91021 13.3335 8.33334C13.3273 8.47414 13.3058 8.61385 13.2694 8.75L10.2023 6.37959C11.2677 5.48926 12.6118 5.00104 14.0002 5.00001C14.7882 4.99958 15.5687 5.15447 16.2968 5.45584C17.025 5.75721 17.6866 6.19915 18.2438 6.75639C18.801 7.31363 19.243 7.97523 19.5443 8.70338C19.8457 9.43153 20.0006 10.2119 20.0002 11C20.0002 11.9012 19.7798 12.7412 19.421 13.5046V13.5042Z" fill="#9EB0EA"/>
</svg>
