<svg width="100" height="100" viewBox="0 0 100 100" fill="none" xmlns="http://www.w3.org/2000/svg">
<path d="M93.75 87C93.75 87 100 87 100 80.75C100 74.5 93.75 55.75 68.75 55.75C43.75 55.75 37.5 74.5 37.5 80.75C37.5 87 43.75 87 43.75 87H93.75ZM43.8875 80.75C43.8413 80.7436 43.7955 80.7353 43.75 80.725C43.7563 79.075 44.7938 74.2875 48.5 69.975C51.95 65.9313 58.0125 62 68.75 62C79.4813 62 85.5437 65.9375 89 69.975C92.7062 74.2875 93.7375 79.0813 93.75 80.725L93.7 80.7375C93.6709 80.7424 93.6418 80.7466 93.6125 80.75H43.8875ZM68.75 43.25C72.0652 43.25 75.2446 41.933 77.5888 39.5888C79.933 37.2446 81.25 34.0652 81.25 30.75C81.25 27.4348 79.933 24.2554 77.5888 21.9112C75.2446 19.567 72.0652 18.25 68.75 18.25C65.4348 18.25 62.2554 19.567 59.9112 21.9112C57.567 24.2554 56.25 27.4348 56.25 30.75C56.25 34.0652 57.567 37.2446 59.9112 39.5888C62.2554 41.933 65.4348 43.25 68.75 43.25ZM87.5 30.75C87.5 33.2123 87.015 35.6505 86.0727 37.9253C85.1305 40.2002 83.7494 42.2672 82.0083 44.0083C80.2672 45.7494 78.2002 47.1305 75.9253 48.0727C73.6505 49.015 71.2123 49.5 68.75 49.5C66.2877 49.5 63.8495 49.015 61.5747 48.0727C59.2998 47.1305 57.2328 45.7494 55.4917 44.0083C53.7506 42.2672 52.3695 40.2002 51.4273 37.9253C50.485 35.6505 50 33.2123 50 30.75C50 25.7772 51.9754 21.0081 55.4917 17.4917C59.0081 13.9754 63.7772 12 68.75 12C73.7228 12 78.4919 13.9754 82.0083 17.4917C85.5246 21.0081 87.5 25.7772 87.5 30.75ZM43.35 57.5C40.8499 56.7127 38.2727 56.1952 35.6625 55.9562C34.1958 55.8168 32.7233 55.748 31.25 55.75C6.25 55.75 0 74.5 0 80.75C0 84.9187 2.08125 87 6.25 87H32.6C31.6735 85.0488 31.2114 82.9096 31.25 80.75C31.25 74.4375 33.6063 67.9875 38.0625 62.6C39.5813 60.7625 41.35 59.0437 43.35 57.5ZM30.75 62C27.051 67.5579 25.0528 74.0739 25 80.75H6.25C6.25 79.125 7.275 74.3125 11 69.975C14.4063 66 20.325 62.125 30.75 62.0063V62ZM9.375 33.875C9.375 28.9022 11.3504 24.1331 14.8667 20.6167C18.3831 17.1004 23.1522 15.125 28.125 15.125C33.0978 15.125 37.8669 17.1004 41.3833 20.6167C44.8996 24.1331 46.875 28.9022 46.875 33.875C46.875 38.8478 44.8996 43.6169 41.3833 47.1333C37.8669 50.6496 33.0978 52.625 28.125 52.625C23.1522 52.625 18.3831 50.6496 14.8667 47.1333C11.3504 43.6169 9.375 38.8478 9.375 33.875ZM28.125 21.375C24.8098 21.375 21.6304 22.692 19.2862 25.0362C16.942 27.3804 15.625 30.5598 15.625 33.875C15.625 37.1902 16.942 40.3696 19.2862 42.7138C21.6304 45.058 24.8098 46.375 28.125 46.375C31.4402 46.375 34.6196 45.058 36.9638 42.7138C39.308 40.3696 40.625 37.1902 40.625 33.875C40.625 30.5598 39.308 27.3804 36.9638 25.0362C34.6196 22.692 31.4402 21.375 28.125 21.375Z" fill="black"/>
</svg>
