<svg width="227" height="227" viewBox="0 0 227 227" fill="none" xmlns="http://www.w3.org/2000/svg">
<g clip-path="url(#clip0_120_2042)">
<path d="M156.062 85.125C156.062 96.4133 151.578 107.239 143.596 115.221C135.614 123.203 124.788 127.688 113.5 127.688C102.212 127.688 91.3858 123.203 83.4038 115.221C75.4218 107.239 70.9375 96.4133 70.9375 85.125C70.9375 73.8367 75.4218 63.0108 83.4038 55.0288C91.3858 47.0468 102.212 42.5625 113.5 42.5625C124.788 42.5625 135.614 47.0468 143.596 55.0288C151.578 63.0108 156.062 73.8367 156.062 85.125Z" fill="#1F384C"/>
<path fill-rule="evenodd" clip-rule="evenodd" d="M0 113.5C0 83.3979 11.958 54.5288 33.2434 33.2434C54.5288 11.958 83.3979 0 113.5 0C143.602 0 172.471 11.958 193.757 33.2434C215.042 54.5288 227 83.3979 227 113.5C227 143.602 215.042 172.471 193.757 193.757C172.471 215.042 143.602 227 113.5 227C83.3979 227 54.5288 215.042 33.2434 193.757C11.958 172.471 0 143.602 0 113.5ZM113.5 14.1875C94.7977 14.1885 76.4758 19.4704 60.6431 29.4253C44.8104 39.3801 32.1103 53.6034 24.0047 70.4579C15.8992 87.3124 12.7175 106.113 14.8259 124.696C16.9343 143.279 24.2472 160.889 35.9228 175.499C45.9959 159.269 68.1709 141.875 113.5 141.875C158.829 141.875 180.99 159.255 191.077 175.499C202.753 160.889 210.066 143.279 212.174 124.696C214.283 106.113 211.101 87.3124 202.995 70.4579C194.89 53.6034 182.19 39.3801 166.357 29.4253C150.524 19.4704 132.202 14.1885 113.5 14.1875Z" fill="#1F384C"/>
</g>
<defs>
<clipPath id="clip0_120_2042">
<rect width="227" height="227" rx="113.5" fill="white"/>
</clipPath>
</defs>
</svg>
