<svg width="65" height="65" viewBox="0 0 65 65" fill="none" xmlns="http://www.w3.org/2000/svg">
<path fill-rule="evenodd" clip-rule="evenodd" d="M60.9376 32.5369C60.9474 24.9948 57.9607 17.7577 52.6346 12.4177C47.3084 7.07778 40.0791 4.07232 32.537 4.06254C24.9949 4.05277 17.7579 7.03948 12.4179 12.3656C7.07791 17.6918 4.07246 24.9211 4.06268 32.4632C4.05291 40.0052 7.03961 47.2423 12.3658 52.5823C17.6919 57.9223 24.9212 60.9277 32.4633 60.9375C40.0054 60.9473 47.2425 57.9606 52.5824 52.6344C57.9224 47.3083 60.9279 40.079 60.9376 32.5369ZM0.000183928 32.4579C0.0113553 23.8384 3.44616 15.5763 9.54899 9.48928C15.6518 3.40225 23.9227 -0.0111248 32.5423 4.66223e-05C41.1618 0.011218 49.4239 3.44602 55.5109 9.54885C61.5979 15.6517 65.0113 23.9226 65.0001 32.5421C64.989 41.1617 61.5541 49.4237 55.4513 55.5108C49.3485 61.5978 41.0776 65.0112 32.458 65C23.8385 64.9888 15.5764 61.554 9.48942 55.4512C3.40239 49.3484 -0.0109875 41.0774 0.000183928 32.4579ZM18.2788 34.5128C17.7401 34.5121 17.2237 34.2975 16.8432 33.916C16.4628 33.5346 16.2495 33.0177 16.2502 32.479C16.2509 31.9402 16.4655 31.4239 16.847 31.0434C17.2284 30.663 17.7453 30.4496 18.2841 30.4503L41.8181 30.4808L33.1072 21.7514C32.9186 21.5623 32.7691 21.3379 32.6672 21.091C32.5653 20.8441 32.513 20.5796 32.5134 20.3125C32.5137 20.0454 32.5667 19.781 32.6692 19.5344C32.7717 19.2878 32.9218 19.0638 33.1109 18.8752C33.3 18.6866 33.5244 18.537 33.7713 18.4352C34.0182 18.3333 34.2828 18.281 34.5498 18.2814C34.8169 18.2817 35.0813 18.3346 35.3279 18.4372C35.5746 18.5397 35.7986 18.6898 35.9872 18.8789L48.1589 31.0822C48.3478 31.2711 48.4976 31.4955 48.5997 31.7424C48.7018 31.9893 48.7541 32.2539 48.7538 32.5211C48.7534 32.7883 48.7004 33.0528 48.5977 33.2994C48.4949 33.546 48.3446 33.77 48.1552 33.9584L35.9519 46.1301C35.57 46.5111 35.0524 46.7247 34.513 46.724C33.9736 46.7233 33.4565 46.5083 33.0756 46.1264C32.6947 45.7445 32.4811 45.2269 32.4818 44.6875C32.4825 44.1481 32.6974 43.6311 33.0793 43.2502L41.8128 34.5433L18.2788 34.5128Z" fill="#454444"/>
</svg>
